<svg width="120" height="120" viewBox="0 0 120 120" fill="none" xmlns="http://www.w3.org/2000/svg">
<path d="M118.999 74.7171C118.999 99.3429 102.236 119 81.9038 119C61.5717 119 44.8086 99.3429 44.8086 74.7171C44.8086 50.0913 61.5717 30.4341 81.9038 30.4341C102.236 30.4341 118.999 50.0913 118.999 74.7171Z" stroke="#9F9F9F" stroke-width="2"/>
<path d="M8.80518 1.94809C8.55518 3.27828 8.30915 4.60847 8.05915 5.93866C7.65439 8.11316 7.24963 10.283 6.84486 12.4575C6.74566 12.9953 6.64248 13.533 6.54328 14.0707C6.26153 15.5943 6.12264 17.1698 6.19804 18.7311C6.39248 22.6745 7.72185 26.4292 9.98375 29.3349C11.0909 30.7547 12.4401 31.967 13.8965 32.8349C15.5671 33.8301 17.3369 34.4151 19.1941 34.6132C22.5671 34.9717 26.0949 33.7594 28.7814 31.3113C30.1584 30.0566 31.333 28.5896 32.2655 26.8443C33.1108 25.2689 33.7417 23.4811 34.0869 21.6603C34.4401 19.8018 34.5512 17.8632 34.3528 15.967C34.2615 15.1226 34.1306 14.2972 33.9758 13.4717C33.6108 11.5141 33.2457 9.55656 32.8806 7.59903C32.5473 5.8113 32.2139 4.02828 31.8806 2.24054C31.8607 2.14149 31.8448 2.04243 31.825 1.94337C31.7496 1.54715 31.5155 1.20281 31.2575 0.962242C30.9798 0.707525 30.6544 0.556582 30.2972 0.556582C29.6346 0.556582 28.9718 0.556582 28.3092 0.556582C26.7179 0.556582 25.1266 0.556582 23.5353 0.556582C21.6187 0.556582 19.702 0.556582 17.7814 0.556582C16.1187 0.556582 14.456 0.556582 12.7893 0.556582C11.9838 0.556582 11.1742 0.542431 10.3647 0.556582C10.3528 0.556582 10.3409 0.556582 10.333 0.556582C9.50359 0.556582 8.70598 1.4245 8.74566 2.44337C8.78534 3.46696 9.44407 4.33016 10.333 4.33016C10.9957 4.33016 11.6584 4.33016 12.3211 4.33016C13.9123 4.33016 15.5036 4.33016 17.0949 4.33016C19.0115 4.33016 20.9282 4.33016 22.8488 4.33016C24.5115 4.33016 26.1742 4.33016 27.8409 4.33016C28.6464 4.33016 29.456 4.34903 30.2655 4.33016C30.2774 4.33016 30.2893 4.33016 30.2972 4.33016C29.7854 3.8679 29.2774 3.40564 28.7655 2.94337C29.0393 4.41979 29.3171 5.8962 29.5909 7.37734C30.0076 9.59905 30.4203 11.8255 30.8369 14.0471C30.9838 14.8255 31.1385 15.6037 31.2258 16.3962C31.206 16.2311 31.1861 16.0613 31.1702 15.8962C31.3171 17.2169 31.3131 18.5471 31.1663 19.8679C31.1861 19.7028 31.206 19.533 31.2219 19.3679C31.0711 20.6651 30.7814 21.9339 30.3568 23.1415C30.4083 22.9905 30.4639 22.8396 30.5155 22.6886C30.0949 23.8726 29.5473 24.9905 28.8885 26.0141C28.9718 25.8867 29.0552 25.7594 29.1385 25.632C28.4758 26.6509 27.7099 27.5613 26.8568 28.3443C26.9639 28.2452 27.0711 28.1462 27.1782 28.0471C26.325 28.8255 25.3965 29.467 24.4123 29.967C24.5393 29.9056 24.6663 29.8396 24.7933 29.7783C23.7655 30.2924 22.6861 30.6462 21.579 30.8255C21.7179 30.8018 21.8607 30.7783 21.9996 30.7594C20.8806 30.9339 19.7496 30.9339 18.6346 30.7594C18.7734 30.783 18.9163 30.8066 19.0552 30.8255C17.948 30.6462 16.8687 30.2924 15.8409 29.7783C15.9679 29.8396 16.0949 29.9056 16.2219 29.967C15.2337 29.467 14.3052 28.8207 13.456 28.0471C13.5631 28.1462 13.6702 28.2452 13.7774 28.3443C12.9242 27.5566 12.1544 26.6462 11.4957 25.632C11.579 25.7594 11.6623 25.8867 11.7457 26.0141C11.0869 24.9905 10.5433 23.8773 10.1187 22.6886C10.1703 22.8396 10.2258 22.9905 10.2774 23.1415C9.8528 21.9339 9.56312 20.6651 9.41232 19.3679C9.43217 19.533 9.45201 19.7028 9.46788 19.8679C9.32106 18.5471 9.31709 17.2169 9.46391 15.8962C9.44407 16.0613 9.42423 16.2311 9.40836 16.3962C9.48772 15.6934 9.62264 15 9.74963 14.3066C9.92423 13.3632 10.0988 12.4245 10.2774 11.4811C10.706 9.1792 11.1385 6.87262 11.5671 4.57073C11.6703 4.02828 11.7695 3.48583 11.8726 2.94337C11.9639 2.44809 11.9322 1.93394 11.7139 1.49054C11.5195 1.09903 11.1425 0.726393 10.7655 0.62262C10.3607 0.514129 9.90439 0.537714 9.54328 0.811299C9.19804 1.08017 8.89645 1.46696 8.80518 1.94809Z" fill="#393D46"/>
<path d="M18.7305 32.8065C18.7305 34.2781 18.7305 35.7498 18.7305 37.2168C18.7305 39.5611 18.7305 41.9008 18.7305 44.2451C18.7305 44.7829 18.7305 45.3159 18.7305 45.8536C18.7305 46.8395 19.4606 47.7876 20.3178 47.7404C21.1789 47.6932 21.9051 46.9102 21.9051 45.8536C21.9051 44.3819 21.9051 42.9102 21.9051 41.4433C21.9051 39.0989 21.9051 36.7593 21.9051 34.4149C21.9051 33.8772 21.9051 33.3442 21.9051 32.8065C21.9051 31.8206 21.1749 30.8725 20.3178 30.9197C19.4567 30.9668 18.7305 31.7498 18.7305 32.8065Z" fill="#393D46"/>
<path d="M12.9168 47.7407C13.4089 47.7407 13.901 47.7407 14.393 47.7407C15.5676 47.7407 16.7422 47.7407 17.9168 47.7407C19.3454 47.7407 20.774 47.7407 22.1986 47.7407C23.4288 47.7407 24.6589 47.7407 25.8851 47.7407C26.4843 47.7407 27.0875 47.7548 27.6867 47.7407C27.6946 47.7407 27.7025 47.7407 27.7105 47.7407C28.5399 47.7407 29.3375 46.8728 29.2978 45.8539C29.2581 44.8303 28.5994 43.9672 27.7105 43.9672C27.2184 43.9672 26.7263 43.9672 26.2343 43.9672C25.0597 43.9672 23.8851 43.9672 22.7105 43.9672C21.2819 43.9672 19.8533 43.9672 18.4288 43.9672C17.1986 43.9672 15.9684 43.9672 14.7422 43.9672C14.143 43.9672 13.5399 43.953 12.9407 43.9672C12.9327 43.9672 12.9248 43.9672 12.9168 43.9672C12.0875 43.9672 11.2899 44.8351 11.3295 45.8539C11.3692 46.8775 12.028 47.7407 12.9168 47.7407ZM22.77 19.3492C22.4724 18.3445 22.1748 17.3351 21.8771 16.3303C21.405 14.7265 20.9327 13.1228 20.4565 11.519C20.3494 11.1511 20.2383 10.7879 20.1311 10.42C19.4803 11.1936 18.8295 11.9672 18.1787 12.7407C19.1787 12.9105 20.1748 13.0756 21.1748 13.2454C21.3176 13.269 21.4605 13.2926 21.6034 13.3162C21.8851 13.4058 22.1669 13.4058 22.4486 13.3162C22.7184 13.2265 22.9526 13.0662 23.151 12.8303C23.5716 12.3303 23.6748 11.6653 23.5597 10.9955C23.3811 9.98127 23.2065 8.9624 23.0279 7.94826C22.7422 6.3209 22.4605 4.69354 22.1748 3.06619C22.1113 2.69354 22.0438 2.3209 21.9803 1.95298C21.901 1.50487 21.5756 1.05204 21.2502 0.825621C20.9089 0.589771 20.4089 0.490715 20.0279 0.636941C19.643 0.783168 19.274 1.06619 19.0796 1.50487C18.8732 1.97185 18.8295 2.43883 18.9208 2.9577C19.0994 3.97185 19.274 4.99071 19.4526 6.00487C19.7383 7.63222 20.02 9.2596 20.3057 10.8869C20.3692 11.2596 20.4367 11.6322 20.5002 12.0001C21.151 11.2265 21.8018 10.453 22.4526 9.67938C21.4526 9.50957 20.4565 9.34451 19.4565 9.1747C19.3136 9.15108 19.1708 9.12753 19.0279 9.10391C18.7462 9.01432 18.4644 9.01432 18.1827 9.10391C17.9129 9.19357 17.6787 9.35394 17.4803 9.58979C17.0994 10.0426 16.8891 10.802 17.0716 11.4247C17.3692 12.4294 17.6668 13.4388 17.9644 14.4435C18.4367 16.0473 18.9089 17.6511 19.3851 19.2549C19.4923 19.6228 19.6034 19.986 19.7105 20.3539C19.8494 20.8209 20.0716 21.2265 20.4406 21.4813C20.7819 21.7171 21.2819 21.8162 21.6629 21.6699C22.0478 21.5238 22.4168 21.2407 22.6113 20.802C22.8018 20.3728 22.9129 19.8256 22.77 19.3492Z" fill="#393D46"/>
</svg>
