<svg width="120" height="120" viewBox="0 0 120 120" fill="none" xmlns="http://www.w3.org/2000/svg">
<path d="M119 74.4305C119 99.2155 102.145 119 81.7022 119C61.259 119 44.4043 99.2155 44.4043 74.4305C44.4043 49.6454 61.259 29.8608 81.7022 29.8608C102.145 29.8608 119 49.6454 119 74.4305Z" stroke="#9F9F9F" stroke-width="2"/>
<path d="M32.2685 38.0135C33.3017 38.0135 34.343 37.7532 35.1939 37.0155C36.1744 36.167 36.9604 34.9474 37.1792 33.4962C37.3332 32.4645 37.2845 31.4135 37.2845 30.3722C37.2845 27.9906 37.2967 25.6042 37.2845 23.2178C37.2805 22.0897 37.009 20.9086 36.4459 19.9926C35.7368 18.8356 34.7239 17.9051 33.5165 17.6399C33.0505 17.5339 32.5724 17.4809 32.0984 17.5098C31.3853 17.5532 30.7654 17.7605 30.1252 18.1172C29.007 18.7391 28.2169 19.9444 27.7752 21.2798C27.4187 22.3549 27.4876 23.5505 27.4876 24.6834C27.4876 26.1104 27.4876 27.5423 27.4876 28.9693C27.4876 30.0396 27.4876 31.1098 27.4876 32.1801C27.4876 33.1395 27.6618 34.0073 28.0021 34.8702C28.5208 36.2008 29.5377 37.1409 30.66 37.6664C31.1665 37.9074 31.7257 38.0087 32.2685 38.0135C33.1154 38.0232 33.9298 37.1216 33.8892 36.0851C33.8487 35.0341 33.1761 34.1664 32.2685 34.1567C32.1187 34.1567 31.9728 34.1422 31.8229 34.1182C31.9647 34.1422 32.1106 34.1664 32.2524 34.1856C31.9809 34.1374 31.7216 34.0506 31.4704 33.9253C31.6 33.988 31.7297 34.0555 31.8593 34.1182C31.6122 33.9928 31.3853 33.8337 31.1705 33.6409C31.2799 33.7421 31.3893 33.8434 31.4987 33.9446C31.2759 33.7373 31.0773 33.5011 30.9031 33.2359C30.9882 33.366 31.0733 33.4962 31.1584 33.6264C30.9963 33.3709 30.8626 33.1009 30.7573 32.8068C30.81 32.9611 30.8667 33.1154 30.9194 33.2696C30.814 32.9707 30.7411 32.6622 30.7006 32.3392C30.7208 32.508 30.7411 32.6815 30.7573 32.8502C30.7087 32.4211 30.7249 31.9825 30.7249 31.5486C30.7249 30.8013 30.7249 30.0589 30.7249 29.3116C30.7249 27.5953 30.7249 25.8839 30.7249 24.1676C30.7249 23.6662 30.7006 23.1552 30.7573 22.6586C30.737 22.8273 30.7168 23.0009 30.7006 23.1696C30.7411 22.8466 30.814 22.5381 30.9194 22.2392C30.8667 22.3935 30.81 22.5477 30.7573 22.702C30.8626 22.4079 30.9963 22.1379 31.1584 21.8824C31.0733 22.0126 30.9882 22.1428 30.9031 22.2729C31.0773 22.0078 31.2759 21.7715 31.4987 21.5642C31.3893 21.6655 31.2799 21.7667 31.1705 21.868C31.3853 21.6751 31.6122 21.516 31.8593 21.3907C31.7297 21.4534 31.6 21.5209 31.4704 21.5835C31.7216 21.4582 31.9809 21.3714 32.2524 21.3232C32.1106 21.3473 31.9647 21.3714 31.8229 21.3907C32.1916 21.3328 32.5805 21.3328 32.9493 21.3907C32.8074 21.3666 32.6616 21.3425 32.5198 21.3232C32.7912 21.3714 33.0505 21.4582 33.3017 21.5835C33.1721 21.5209 33.0425 21.4534 32.9128 21.3907C33.1599 21.516 33.3868 21.6751 33.6016 21.868C33.4921 21.7667 33.3828 21.6655 33.2734 21.5642C33.4962 21.7715 33.6947 22.0078 33.869 22.2729C33.7839 22.1428 33.6988 22.0126 33.6137 21.8824C33.7758 22.1379 33.9095 22.4079 34.0149 22.702C33.9622 22.5477 33.9054 22.3935 33.8528 22.2392C33.9581 22.5381 34.0311 22.8466 34.0716 23.1696C34.0513 23.0009 34.0311 22.8273 34.0149 22.6586C34.0635 23.0877 34.0473 23.5264 34.0473 23.9603C34.0473 24.7075 34.0473 25.45 34.0473 26.1972C34.0473 27.9135 34.0473 29.625 34.0473 31.3412C34.0473 31.8426 34.0716 32.3536 34.0149 32.8502C34.0351 32.6815 34.0554 32.508 34.0716 32.3392C34.0311 32.6622 33.9581 32.9707 33.8528 33.2696C33.9054 33.1154 33.9622 32.9611 34.0149 32.8068C33.9095 33.1009 33.7758 33.3709 33.6137 33.6264C33.6988 33.4962 33.7839 33.366 33.869 33.2359C33.6947 33.5011 33.4962 33.7373 33.2734 33.9446C33.3828 33.8434 33.4921 33.7421 33.6016 33.6409C33.3868 33.8337 33.1599 33.9928 32.9128 34.1182C33.0425 34.0555 33.1721 33.988 33.3017 33.9253C33.0505 34.0506 32.7912 34.1374 32.5198 34.1856C32.6616 34.1615 32.8074 34.1374 32.9493 34.1182C32.7224 34.1519 32.4954 34.1567 32.2685 34.1567C31.4218 34.1567 30.6074 35.0438 30.6479 36.0851C30.6884 37.1313 31.361 38.0135 32.2685 38.0135ZM8.98752 38.0135C10.0207 38.0135 11.062 37.7532 11.9128 37.0155C12.8934 36.167 13.6794 34.9474 13.8982 33.4962C14.0522 32.4645 14.0035 31.4135 14.0035 30.3722C14.0035 27.9906 14.0157 25.6042 14.0035 23.2178C13.9995 22.0897 13.728 20.9086 13.1648 19.9926C12.4558 18.8356 11.4429 17.9051 10.2354 17.6399C9.7695 17.5339 9.2914 17.4809 8.81735 17.5098C8.10425 17.5532 7.48434 17.7605 6.84417 18.1172C5.72591 18.7391 4.93583 19.9444 4.49419 21.2798C4.13764 22.3549 4.20652 23.5505 4.20652 24.6834C4.20652 26.1104 4.20652 27.5423 4.20652 28.9693C4.20652 30.0396 4.20652 31.1098 4.20652 32.1801C4.20652 33.1395 4.38074 34.0073 4.72109 34.8702C5.2397 36.2008 6.25668 37.1409 7.379 37.6664C7.88546 37.9074 8.4446 38.0087 8.98752 38.0135C9.83433 38.0232 10.6487 37.1216 10.6082 36.0851C10.5677 35.0341 9.8951 34.1664 8.98752 34.1567C8.83761 34.1567 8.69175 34.1422 8.54183 34.1182C8.68364 34.1422 8.82951 34.1664 8.97131 34.1856C8.69985 34.1374 8.44054 34.0506 8.18934 33.9253C8.31899 33.988 8.44865 34.0555 8.5783 34.1182C8.33114 33.9928 8.10425 33.8337 7.88951 33.6409C7.99891 33.7421 8.1083 33.8434 8.2177 33.9446C7.99486 33.7373 7.79632 33.5011 7.6221 33.2359C7.70719 33.366 7.79227 33.4962 7.87736 33.6264C7.71529 33.3709 7.58158 33.1009 7.47624 32.8068C7.52891 32.9611 7.58564 33.1154 7.63831 33.2696C7.53297 32.9707 7.46003 32.6622 7.41951 32.3392C7.43977 32.508 7.46003 32.6815 7.47624 32.8502C7.42762 32.4211 7.44383 31.9825 7.44383 31.5486C7.44383 30.8013 7.44383 30.0589 7.44383 29.3116C7.44383 27.5953 7.44383 25.8839 7.44383 24.1676C7.44383 23.6662 7.41951 23.1552 7.47624 22.6586C7.45598 22.8273 7.43572 23.0009 7.41951 23.1696C7.46003 22.8466 7.53297 22.5381 7.63831 22.2392C7.58564 22.3935 7.52891 22.5477 7.47624 22.702C7.58158 22.4079 7.71529 22.1379 7.87736 21.8824C7.79227 22.0126 7.70719 22.1428 7.6221 22.2729C7.79632 22.0078 7.99486 21.7715 8.2177 21.5642C8.1083 21.6655 7.99891 21.7667 7.88951 21.868C8.10425 21.6751 8.33114 21.516 8.5783 21.3907C8.44865 21.4534 8.31899 21.5209 8.18934 21.5835C8.44054 21.4582 8.69985 21.3714 8.97131 21.3232C8.82951 21.3473 8.68364 21.3714 8.54183 21.3907C8.91054 21.3328 9.29951 21.3328 9.66821 21.3907C9.52639 21.3666 9.38054 21.3425 9.23873 21.3232C9.51019 21.3714 9.7695 21.4582 10.0207 21.5835C9.89105 21.5209 9.7614 21.4534 9.63174 21.3907C9.87889 21.516 10.1058 21.6751 10.3205 21.868C10.2111 21.7667 10.1017 21.6655 9.99234 21.5642C10.2152 21.7715 10.4137 22.0078 10.5879 22.2729C10.5029 22.1428 10.4178 22.0126 10.3327 21.8824C10.4948 22.1379 10.6284 22.4079 10.7338 22.702C10.6811 22.5477 10.6244 22.3935 10.5717 22.2392C10.6771 22.5381 10.75 22.8466 10.7905 23.1696C10.7703 23.0009 10.75 22.8273 10.7338 22.6586C10.7824 23.0877 10.7662 23.5264 10.7662 23.9603C10.7662 24.7075 10.7662 25.45 10.7662 26.1972C10.7662 27.9135 10.7662 29.625 10.7662 31.3412C10.7662 31.8426 10.7905 32.3536 10.7338 32.8502C10.7541 32.6815 10.7743 32.508 10.7905 32.3392C10.75 32.6622 10.6771 32.9707 10.5717 33.2696C10.6244 33.1154 10.6811 32.9611 10.7338 32.8068C10.6284 33.1009 10.4948 33.3709 10.3327 33.6264C10.4178 33.4962 10.5029 33.366 10.5879 33.2359C10.4137 33.5011 10.2152 33.7373 9.99234 33.9446C10.1017 33.8434 10.2111 33.7421 10.3205 33.6409C10.1058 33.8337 9.87889 33.9928 9.63174 34.1182C9.7614 34.0555 9.89105 33.988 10.0207 33.9253C9.7695 34.0506 9.51019 34.1374 9.23873 34.1856C9.38054 34.1615 9.52639 34.1374 9.66821 34.1182C9.44131 34.1519 9.21441 34.1567 8.98752 34.1567C8.14072 34.1567 7.32633 35.0438 7.36684 36.0851C7.40331 37.1313 8.07994 38.0135 8.98752 38.0135Z" fill="#393D46"/>
<path d="M7.44644 32.1852C7.44644 30.7003 7.44644 29.2154 7.44644 27.7305C7.44644 25.672 7.44644 23.6134 7.44644 21.5548C7.44644 20.5617 7.46669 19.5734 7.57609 18.5899C7.55583 18.7587 7.53557 18.9322 7.51936 19.1009C7.69764 17.5486 8.04609 16.03 8.5566 14.5837C8.50392 14.7379 8.44721 14.8922 8.39453 15.0465C8.901 13.6339 9.55332 12.3033 10.3434 11.0884C10.2583 11.2186 10.1732 11.3488 10.0881 11.4789C10.8741 10.2737 11.7858 9.18899 12.7987 8.25368C12.6893 8.35492 12.5799 8.45616 12.4705 8.5574C13.4915 7.62213 14.6098 6.84113 15.797 6.2385C15.6673 6.30117 15.5377 6.36867 15.408 6.43134C16.6235 5.82389 17.8998 5.40928 19.2044 5.19717C19.0627 5.22126 18.9168 5.24537 18.775 5.26465C20.0837 5.06217 21.4086 5.06217 22.7172 5.26465C22.5755 5.24056 22.4296 5.21645 22.2878 5.19717C23.5924 5.40928 24.8688 5.82389 26.0843 6.43134C25.9546 6.36867 25.8249 6.30117 25.6953 6.2385C26.8824 6.84113 28.0007 7.61731 29.0217 8.5574C28.9123 8.45616 28.8029 8.35492 28.6935 8.25368C29.7065 9.18899 30.6181 10.2737 31.4041 11.4789C31.319 11.3488 31.2339 11.2186 31.1488 11.0884C31.9349 12.3033 32.5913 13.6339 33.0977 15.0465C33.045 14.8922 32.9884 14.7379 32.9356 14.5837C33.4461 16.03 33.7946 17.5486 33.9729 19.1009C33.9526 18.9322 33.9324 18.7587 33.9162 18.5899C34.0296 19.612 34.0458 20.634 34.0458 21.6609C34.0458 22.7746 34.0458 23.8834 34.0458 24.997C34.0458 27.7691 34.0458 30.5412 34.0458 33.3132C34.0458 34.2051 34.0782 35.1115 33.981 35.9986C34.0013 35.8298 34.0215 35.6563 34.0377 35.4875C33.9526 36.2204 33.7906 36.9338 33.5515 37.6136C33.6042 37.4593 33.6609 37.3051 33.7136 37.1508C33.4705 37.8353 33.1544 38.4766 32.7695 39.0695C32.8546 38.9393 32.9397 38.8092 33.0248 38.6791C32.652 39.2479 32.2266 39.7541 31.7485 40.1977C31.8579 40.0964 31.9673 39.9952 32.0767 39.8939C31.5824 40.3471 31.0394 40.7232 30.4641 41.0172C30.5938 40.9546 30.7234 40.8871 30.8531 40.8244C30.2778 41.1088 29.6822 41.3017 29.0663 41.4029C29.2081 41.3788 29.354 41.3547 29.4958 41.3354C28.8678 41.4318 28.2357 41.4126 27.6036 41.4126C26.8176 41.4126 26.0315 41.4126 25.2455 41.4126C25.047 41.4126 24.8525 41.4126 24.654 41.4126C23.8072 41.4126 22.9928 42.2996 23.0333 43.341C23.0738 44.3871 23.7464 45.2693 24.654 45.2693C25.6507 45.2693 26.6434 45.2693 27.6401 45.2693C28.0169 45.2693 28.3937 45.279 28.7705 45.2646C29.9414 45.2211 31.0313 44.8933 32.101 44.3485C33.904 43.4277 35.4679 41.6584 36.335 39.5661C36.8536 38.3126 37.1494 37.0303 37.2588 35.637C37.2872 35.2803 37.2872 34.9234 37.2872 34.5619C37.2872 32.0694 37.2872 29.577 37.2872 27.0846C37.2872 25.0356 37.2912 22.9866 37.2872 20.9377C37.2831 18.7056 36.9711 16.4349 36.3229 14.3378C35.626 12.0815 34.6293 10.0471 33.3327 8.20547C30.9139 4.77291 27.4051 2.33349 23.6978 1.57659C21.6355 1.15234 19.5772 1.1668 17.523 1.63444C15.6552 2.05869 13.8238 2.92165 12.1991 4.09797C8.87263 6.5133 6.35248 10.2688 5.08024 14.6415C4.49275 16.6567 4.20913 18.8213 4.20508 20.9522C4.20508 21.7814 4.20508 22.6058 4.20508 23.435C4.20508 26.1589 4.20508 28.8876 4.20508 31.6114C4.20508 31.8043 4.20508 31.9923 4.20508 32.1852C4.20508 33.1927 4.95059 34.1617 5.82575 34.1135C6.70092 34.0654 7.44644 33.2651 7.44644 32.1852Z" fill="#393D46"/>
<path d="M23.0332 43.3362C23.0332 43.4711 23.0251 43.6061 23.0089 43.7363C23.0292 43.5676 23.0495 43.394 23.0657 43.2253C23.0332 43.4615 22.9806 43.6929 22.9076 43.9147C22.9603 43.7604 23.017 43.6061 23.0697 43.4519C22.9846 43.6881 22.8752 43.905 22.7456 44.1123C22.8306 43.9822 22.9157 43.852 23.0008 43.7218C22.8793 43.905 22.7415 44.0689 22.5875 44.2136C22.6969 44.1123 22.8063 44.0111 22.9157 43.9099C22.7456 44.0641 22.5592 44.1943 22.3607 44.2955C22.4903 44.2329 22.6199 44.1654 22.7496 44.1027C22.5633 44.1943 22.3688 44.257 22.1702 44.2907C22.312 44.2666 22.4579 44.2425 22.5997 44.2232C22.0689 44.3052 21.5138 44.2521 20.979 44.2521C20.4361 44.2521 19.8729 44.3052 19.334 44.228C19.4758 44.2521 19.6217 44.2762 19.7635 44.2955C19.5528 44.257 19.3543 44.1943 19.1558 44.0979C19.2854 44.1605 19.4151 44.228 19.5447 44.2907C19.3543 44.1895 19.1801 44.0689 19.014 43.9195C19.1233 44.0207 19.2327 44.122 19.3421 44.2232C19.1801 44.0689 19.0383 43.9002 18.9086 43.7074C18.9937 43.8375 19.0788 43.9677 19.1639 44.0979C19.0383 43.9002 18.937 43.6929 18.8519 43.4663C18.9046 43.6206 18.9613 43.7749 19.014 43.9291C18.9329 43.6977 18.8802 43.4567 18.8478 43.206C18.8681 43.3747 18.8883 43.5483 18.9046 43.717C18.8762 43.4519 18.8762 43.1915 18.9046 42.9312C18.8843 43.0999 18.864 43.2735 18.8478 43.4422C18.8802 43.206 18.9329 42.9746 19.0058 42.7528C18.9532 42.9071 18.8965 43.0614 18.8438 43.2156C18.9289 42.9794 19.0383 42.7624 19.1679 42.5551C19.0828 42.6853 18.9977 42.8155 18.9127 42.9456C19.0342 42.7624 19.172 42.5985 19.3259 42.4539C19.2165 42.5551 19.1071 42.6564 18.9977 42.7576C19.1679 42.6034 19.3543 42.4732 19.5528 42.372C19.4232 42.4346 19.2935 42.5021 19.1639 42.5648C19.3502 42.4732 19.5447 42.4105 19.7433 42.3768C19.6014 42.4009 19.4556 42.425 19.3138 42.4443C19.8446 42.3623 20.3996 42.4153 20.9345 42.4153C21.4774 42.4153 22.0406 42.3623 22.5794 42.4394C22.4376 42.4153 22.2918 42.3912 22.15 42.372C22.3607 42.4105 22.5592 42.4732 22.7577 42.5696C22.628 42.5069 22.4984 42.4394 22.3688 42.3768C22.5592 42.478 22.7334 42.5985 22.8995 42.748C22.7901 42.6467 22.6807 42.5455 22.5714 42.4443C22.7334 42.5985 22.8752 42.7673 23.0049 42.9601C22.9197 42.8299 22.8347 42.6998 22.7496 42.5696C22.8752 42.7673 22.9765 42.9746 23.0616 43.2012C23.0089 43.0469 22.9522 42.8926 22.8995 42.7383C22.9806 42.9697 23.0332 43.2108 23.0657 43.4615C23.0454 43.2928 23.0251 43.1192 23.0089 42.9505C23.0251 43.0806 23.0292 43.206 23.0332 43.3362C23.0373 43.8327 23.2115 44.3437 23.5073 44.7005C23.7868 45.0331 24.2487 45.2887 24.6539 45.2646C25.5209 45.2163 26.2867 44.4161 26.2746 43.3362C26.2665 42.4587 26.068 41.5427 25.6587 40.8003C25.2738 40.1061 24.7512 39.4745 24.1191 39.1033C23.5235 38.7562 22.9157 38.5634 22.2432 38.5537C22.0811 38.5537 21.9231 38.5537 21.761 38.5537C21.1816 38.5537 20.5982 38.5537 20.0188 38.5537C19.8972 38.5537 19.7716 38.5537 19.6501 38.5537C18.9694 38.5634 18.3211 38.7658 17.7174 39.1467C17.134 39.5131 16.6802 40.0771 16.2993 40.7087C15.9063 41.3644 15.7402 42.1405 15.6551 42.9312C15.566 43.8086 15.7523 44.6909 16.0684 45.4815C16.3722 46.2529 16.8868 46.8603 17.4703 47.3424C18.2077 47.9499 19.0909 48.1138 19.9661 48.1138C20.5455 48.1138 21.1208 48.1138 21.7002 48.1138C21.8825 48.1138 22.0689 48.1138 22.2513 48.1138C22.936 48.1041 23.5843 47.9016 24.188 47.5207C25.4724 46.7108 26.2584 45.038 26.2746 43.3313C26.2827 42.3237 25.5209 41.3547 24.6539 41.4029C23.7666 41.456 23.0413 42.2562 23.0332 43.3362Z" fill="#393D46"/>
</svg>
