<svg width="40" height="40" viewBox="0 0 40 40" fill="none" xmlns="http://www.w3.org/2000/svg">
<path d="M35.8675 8.75C35.8675 9.5039 35.8675 10.2617 35.8675 11.0156C35.8675 12.8203 35.8675 14.625 35.8675 16.4258C35.8675 18.6016 35.8675 20.7774 35.8675 22.9532C35.8675 24.8282 35.8675 26.7032 35.8675 28.5743C35.8675 29.4571 35.8714 30.3399 35.8675 31.2227C35.8675 31.3047 35.8636 31.3828 35.8518 31.4649C35.8714 31.3282 35.8909 31.1875 35.9065 31.0508C35.887 31.1914 35.8518 31.3243 35.8011 31.4571C35.8518 31.3321 35.9065 31.2071 35.9573 31.0821C35.8948 31.2266 35.8206 31.3594 35.7268 31.4805C35.8089 31.375 35.8909 31.2696 35.9729 31.1641C35.887 31.2696 35.7932 31.3672 35.6839 31.4532C35.7893 31.3711 35.8948 31.2891 36.0003 31.2071C35.8753 31.3008 35.7425 31.3789 35.6018 31.4375C35.7268 31.3868 35.8518 31.3321 35.9768 31.2813C35.844 31.3321 35.7112 31.3672 35.5706 31.3868C35.7073 31.3672 35.8479 31.3477 35.9846 31.3321C35.6526 31.3711 35.305 31.3477 34.969 31.3477C34.2112 31.3477 33.4495 31.3477 32.6917 31.3477C31.5589 31.3477 30.4261 31.3477 29.2932 31.3477C27.9065 31.3477 26.5198 31.3477 25.1331 31.3477C23.6136 31.3477 22.0901 31.3477 20.5706 31.3477C19.0354 31.3477 17.5003 31.3477 15.9612 31.3477C14.5315 31.3477 13.0979 31.3477 11.6682 31.3477C10.4612 31.3477 9.25805 31.3477 8.05102 31.3477C7.18774 31.3477 6.32836 31.3477 5.46508 31.3477C5.06665 31.3477 4.67212 31.3477 4.27368 31.3477C4.18774 31.3477 4.1018 31.3438 4.01587 31.3321C4.15258 31.3516 4.29321 31.3711 4.42993 31.3868C4.2893 31.3672 4.15649 31.3321 4.02368 31.2813C4.14868 31.3321 4.27368 31.3868 4.39868 31.4375C4.25415 31.375 4.12133 31.3008 4.00024 31.2071C4.10571 31.2891 4.21118 31.3711 4.31665 31.4532C4.21118 31.3672 4.11352 31.2735 4.02758 31.1641C4.10962 31.2696 4.19165 31.375 4.27368 31.4805C4.17993 31.3555 4.1018 31.2227 4.04321 31.0821C4.09399 31.2071 4.14868 31.3321 4.19946 31.4571C4.14868 31.3243 4.11352 31.1914 4.09399 31.0508C4.11352 31.1875 4.13305 31.3282 4.14868 31.4649C4.12133 31.2071 4.13305 30.9453 4.13305 30.6875C4.13305 30.1446 4.13305 29.6016 4.13305 29.0586C4.13305 27.2618 4.13305 25.4649 4.13305 23.668C4.13305 21.4883 4.13305 19.3047 4.13305 17.125C4.13305 15.2344 4.13305 13.3438 4.13305 11.4531C4.13305 10.5625 4.12915 9.67187 4.13305 8.77734C4.13305 8.69531 4.13696 8.61719 4.14868 8.53516C4.12915 8.67187 4.10962 8.8125 4.09399 8.94922C4.11352 8.80859 4.14868 8.67578 4.19946 8.54297C4.14868 8.66797 4.09399 8.79297 4.04321 8.91797C4.10571 8.77344 4.17993 8.64062 4.27368 8.51953C4.19165 8.625 4.10962 8.73047 4.02758 8.83594C4.11352 8.73047 4.20727 8.63281 4.31665 8.54687C4.21118 8.62891 4.10571 8.71094 4.00024 8.79297C4.12524 8.69922 4.25805 8.62109 4.39868 8.5625C4.27368 8.61328 4.14868 8.66797 4.02368 8.71875C4.15649 8.66797 4.2893 8.63281 4.42993 8.61328C4.29321 8.63281 4.15258 8.65234 4.01587 8.66797C4.3479 8.6289 4.69555 8.65234 5.03149 8.65234C5.7893 8.65234 6.55102 8.65234 7.30883 8.65234C8.44165 8.65234 9.57446 8.65234 10.7073 8.65234C12.094 8.65234 13.4807 8.65234 14.8675 8.65234C16.387 8.65234 17.9104 8.65234 19.43 8.65234C20.9651 8.65234 22.5003 8.65234 24.0393 8.65234C25.469 8.65234 26.9026 8.65234 28.3323 8.65234C29.5393 8.65234 30.7425 8.65234 31.9495 8.65234C32.8128 8.65234 33.6721 8.65234 34.5354 8.65234C34.9339 8.65234 35.3284 8.65234 35.7268 8.65234C35.8128 8.65234 35.8987 8.65625 35.9846 8.66797C35.8479 8.64844 35.7073 8.62891 35.5706 8.61328C35.7112 8.63281 35.844 8.66797 35.9768 8.71875C35.8518 8.66797 35.7268 8.61328 35.6018 8.5625C35.7464 8.625 35.8792 8.69922 36.0003 8.79297C35.8948 8.71094 35.7893 8.62891 35.6839 8.54687C35.7893 8.63281 35.887 8.72656 35.9729 8.83594C35.8909 8.73047 35.8089 8.625 35.7268 8.51953C35.8206 8.64453 35.8987 8.77734 35.9573 8.91797C35.9065 8.79297 35.8518 8.66797 35.8011 8.54297C35.8518 8.67578 35.887 8.80859 35.9065 8.94922C35.887 8.8125 35.8675 8.67187 35.8518 8.53516C35.8636 8.60547 35.8675 8.67578 35.8675 8.75C35.8753 9.15625 36.0354 9.5664 36.3245 9.85547C36.594 10.125 37.0393 10.332 37.43 10.3125C38.2659 10.2734 39.0081 9.625 38.9925 8.75C38.9807 7.90625 38.6604 7.12109 38.0823 6.50391C37.5081 5.89453 36.7229 5.59375 35.9026 5.52734C35.805 5.51953 35.7034 5.52344 35.6018 5.52344C35.1682 5.52344 34.7346 5.52344 34.305 5.52344C33.5081 5.52344 32.7073 5.52344 31.9104 5.52344C30.8362 5.52344 29.7581 5.52344 28.6839 5.52344C27.4261 5.52344 26.1643 5.52344 24.9065 5.52344C23.5393 5.52344 22.1682 5.52344 20.8011 5.52344C19.4143 5.52344 18.0315 5.52344 16.6448 5.52344C15.3362 5.52344 14.0276 5.52344 12.719 5.52344C11.5589 5.52344 10.4026 5.52344 9.24243 5.52344C8.33227 5.52344 7.41821 5.52344 6.50805 5.52344C5.92212 5.52344 5.33618 5.52344 4.75024 5.52344C4.60962 5.52344 4.46899 5.52344 4.32446 5.52344C3.77368 5.52344 3.26977 5.64844 2.76977 5.87891C2.17212 6.15234 1.61743 6.71484 1.3479 7.3125C1.13306 7.78906 1.00806 8.23047 1.00415 8.76172C1.00415 8.87891 1.00415 8.99609 1.00415 9.11719C1.00415 9.76953 1.00415 10.4258 1.00415 11.0781C1.00415 12.1445 1.00415 13.2109 1.00415 14.2813C1.00415 15.586 1.00415 16.8907 1.00415 18.1953C1.00415 19.5782 1.00415 20.9649 1.00415 22.3477C1.00415 23.6368 1.00415 24.9219 1.00415 26.211C1.00415 27.2266 1.00415 28.2461 1.00415 29.2618C1.00415 29.8477 1.00415 30.4336 1.00415 31.0235C1.00415 31.1368 1.00024 31.25 1.00806 31.3633C1.06274 32.1875 1.36743 32.9688 1.96899 33.5508C2.57055 34.1328 3.36743 34.461 4.20337 34.4766C4.44165 34.4805 4.67602 34.4766 4.9143 34.4766C5.54712 34.4766 6.17993 34.4766 6.81665 34.4766C7.76977 34.4766 8.7229 34.4766 9.67602 34.4766C10.8557 34.4766 12.0354 34.4766 13.2151 34.4766C14.5432 34.4766 15.8753 34.4766 17.2034 34.4766C18.5862 34.4766 19.9651 34.4766 21.3479 34.4766C22.7073 34.4766 24.0667 34.4766 25.43 34.4766C26.6761 34.4766 27.9182 34.4766 29.1643 34.4766C30.2034 34.4766 31.2425 34.4766 32.2815 34.4766C33.0354 34.4766 33.7932 34.4766 34.5471 34.4766C34.9261 34.4766 35.305 34.4766 35.6878 34.4766C36.2659 34.4766 36.8128 34.3438 37.3245 34.0782C38.3675 33.5391 38.9846 32.3828 38.9964 31.2344C39.0003 30.8399 38.9964 30.4493 38.9964 30.0547C38.9964 29.1641 38.9964 28.2774 38.9964 27.3868C38.9964 26.1797 38.9964 24.9688 38.9964 23.7618C38.9964 22.3907 38.9964 21.0235 38.9964 19.6524C38.9964 18.2969 38.9964 16.9414 38.9964 15.586C38.9964 14.418 38.9964 13.2539 38.9964 12.0859C38.9964 11.2695 38.9964 10.4492 38.9964 9.63281C38.9964 9.33984 38.9964 9.04687 38.9964 8.75C38.9964 7.93359 38.2776 7.14844 37.4339 7.1875C36.5862 7.22656 35.8675 7.875 35.8675 8.75Z" fill="#393D46"/>
<path d="M35.867 13C35.867 14.5664 35.867 16.1328 35.867 17.6992C35.867 17.918 35.867 18.1367 35.867 18.3555C36.3865 17.836 36.9099 17.3125 37.4295 16.793C37.117 16.793 36.8045 16.793 36.492 16.793C35.6482 16.793 34.8045 16.793 33.9568 16.793C32.7068 16.793 31.4607 16.793 30.2107 16.793C28.6834 16.793 27.1521 16.793 25.6248 16.793C23.9568 16.793 22.2889 16.793 20.6209 16.793C18.9295 16.793 17.2381 16.793 15.5506 16.793C13.9803 16.793 12.4099 16.793 10.8396 16.793C9.50757 16.793 8.17554 16.793 6.8435 16.793C5.89038 16.793 4.93725 16.793 3.98022 16.793C3.5271 16.793 3.07397 16.7852 2.62475 16.793C2.60522 16.793 2.58569 16.793 2.56616 16.793C3.08569 17.3125 3.60913 17.836 4.12866 18.3555C4.12866 16.7891 4.12866 15.2227 4.12866 13.6563C4.12866 13.4375 4.12866 13.2188 4.12866 13C3.60913 13.5196 3.08569 14.043 2.56616 14.5625C2.87866 14.5625 3.19116 14.5625 3.50366 14.5625C4.34741 14.5625 5.19116 14.5625 6.03882 14.5625C7.28882 14.5625 8.53491 14.5625 9.78491 14.5625C11.3123 14.5625 12.8435 14.5625 14.3709 14.5625C16.0389 14.5625 17.7068 14.5625 19.3748 14.5625C21.0662 14.5625 22.7576 14.5625 24.4451 14.5625C26.0154 14.5625 27.5857 14.5625 29.156 14.5625C30.4881 14.5625 31.8201 14.5625 33.1521 14.5625C34.1053 14.5625 35.0584 14.5625 36.0154 14.5625C36.4685 14.5625 36.9217 14.5664 37.3709 14.5625C37.3904 14.5625 37.4099 14.5625 37.4295 14.5625C38.2459 14.5625 39.031 13.8438 38.992 13C38.9529 12.1524 38.3045 11.4375 37.4295 11.4375C37.117 11.4375 36.8045 11.4375 36.492 11.4375C35.6482 11.4375 34.8045 11.4375 33.9568 11.4375C32.7068 11.4375 31.4607 11.4375 30.2107 11.4375C28.6834 11.4375 27.1521 11.4375 25.6248 11.4375C23.9568 11.4375 22.2889 11.4375 20.6209 11.4375C18.9295 11.4375 17.2381 11.4375 15.5506 11.4375C13.9803 11.4375 12.4099 11.4375 10.8396 11.4375C9.50757 11.4375 8.17554 11.4375 6.8435 11.4375C5.89038 11.4375 4.93725 11.4375 3.98022 11.4375C3.5271 11.4375 3.07397 11.4336 2.62475 11.4375C2.60522 11.4375 2.58569 11.4375 2.56616 11.4375C1.72241 11.4375 1.00366 12.1524 1.00366 13C1.00366 14.5664 1.00366 16.1328 1.00366 17.6992C1.00366 17.918 1.00366 18.1367 1.00366 18.3555C1.00366 19.1992 1.71851 19.918 2.56616 19.918C2.87866 19.918 3.19116 19.918 3.50366 19.918C4.34741 19.918 5.19116 19.918 6.03882 19.918C7.28882 19.918 8.53491 19.918 9.78491 19.918C11.3123 19.918 12.8435 19.918 14.3709 19.918C16.0389 19.918 17.7068 19.918 19.3748 19.918C21.0662 19.918 22.7576 19.918 24.4451 19.918C26.0154 19.918 27.5857 19.918 29.156 19.918C30.4881 19.918 31.8201 19.918 33.1521 19.918C34.1053 19.918 35.0584 19.918 36.0154 19.918C36.4685 19.918 36.9217 19.9219 37.3709 19.918C37.3904 19.918 37.4099 19.918 37.4295 19.918C38.2732 19.918 38.992 19.2032 38.992 18.3555C38.992 16.7891 38.992 15.2227 38.992 13.6563C38.992 13.4375 38.992 13.2188 38.992 13C38.992 12.1836 38.2732 11.3985 37.4295 11.4375C36.5857 11.4727 35.867 12.1211 35.867 13ZM8.22632 27.0547C9.31616 27.0547 10.406 27.0547 11.4959 27.0547C13.2264 27.0547 14.9568 27.0547 16.6873 27.0547C17.0857 27.0547 17.4842 27.0547 17.8787 27.0547C18.6951 27.0547 19.4803 26.336 19.4412 25.4922C19.4021 24.6446 18.7537 23.9297 17.8787 23.9297C16.7889 23.9297 15.699 23.9297 14.6092 23.9297C12.8787 23.9297 11.1482 23.9297 9.41772 23.9297C9.01928 23.9297 8.62085 23.9297 8.22632 23.9297C7.40991 23.9297 6.62475 24.6485 6.66382 25.4922C6.69897 26.3399 7.34741 27.0547 8.22632 27.0547Z" fill="#393D46"/>
</svg>
