<svg width="2" height="24" viewBox="0 0 2 24" fill="none" xmlns="http://www.w3.org/2000/svg">
<mask id="path-1-inside-1_12345_271785" fill="white">
<ellipse cx="0.483975" cy="12" rx="0.483975" ry="12"/>
</mask>
<ellipse cx="0.483975" cy="12" rx="0.483975" ry="12" fill="white"/>
<path d="M-0.032049 12C-0.032049 15.3047 -0.0861027 18.2906 -0.17299 20.445C-0.216542 21.5249 -0.267825 22.3821 -0.323124 22.9621C-0.351259 23.2571 -0.37797 23.453 -0.399612 23.5628C-0.411969 23.6255 -0.414062 23.6146 -0.395933 23.569C-0.388935 23.5513 -0.35411 23.4629 -0.273648 23.3618C-0.206619 23.2775 0.0419364 23 0.483975 23V25C0.94272 25 1.20788 24.712 1.29141 24.607C1.38837 24.4851 1.43958 24.3657 1.46285 24.3071C1.51352 24.1796 1.54349 24.0467 1.56264 23.9496C1.60401 23.7397 1.63808 23.4641 1.66785 23.1519C1.72835 22.5174 1.78136 21.6173 1.82539 20.5256C1.91366 18.3368 1.96795 15.3227 1.96795 12H-0.032049ZM0.483975 23C0.926015 23 1.17457 23.2775 1.2416 23.3618C1.32206 23.4629 1.35689 23.5513 1.36388 23.569C1.38201 23.6146 1.37992 23.6255 1.36756 23.5628C1.34592 23.453 1.31921 23.2571 1.29107 22.9621C1.23578 22.3821 1.18449 21.5249 1.14094 20.445C1.05405 18.2906 1 15.3047 1 12H-1C-1 15.3227 -0.945712 18.3368 -0.857435 20.5256C-0.813405 21.6173 -0.760399 22.5174 -0.699894 23.1519C-0.670127 23.4641 -0.636057 23.7397 -0.594688 23.9496C-0.575539 24.0467 -0.545569 24.1796 -0.4949 24.3071C-0.471633 24.3657 -0.420419 24.4851 -0.323459 24.607C-0.239932 24.712 0.0252306 25 0.483975 25V23ZM1 12C1 8.69528 1.05405 5.70935 1.14094 3.55502C1.18449 2.47515 1.23578 1.61788 1.29107 1.03794C1.31921 0.742888 1.34592 0.546978 1.36756 0.437171C1.37992 0.374474 1.38201 0.385399 1.36388 0.431049C1.35689 0.448669 1.32206 0.537101 1.2416 0.638229C1.17457 0.722474 0.926015 1 0.483975 1V-1C0.0252306 -1 -0.239932 -0.711981 -0.323459 -0.607C-0.420419 -0.485137 -0.471633 -0.365728 -0.4949 -0.30714C-0.545569 -0.179553 -0.575539 -0.0467303 -0.594688 0.0504234C-0.636057 0.260318 -0.670127 0.535918 -0.699894 0.848096C-0.760399 1.48263 -0.813405 2.38272 -0.857435 3.47442C-0.945712 5.66323 -1 8.6773 -1 12H1ZM0.483975 1C0.0419364 1 -0.206619 0.722474 -0.273648 0.638229C-0.35411 0.537101 -0.388935 0.448669 -0.395933 0.431049C-0.414062 0.385399 -0.411969 0.374474 -0.399612 0.437171C-0.37797 0.546978 -0.351259 0.742888 -0.323124 1.03794C-0.267825 1.61788 -0.216542 2.47515 -0.17299 3.55502C-0.0861027 5.70935 -0.032049 8.69528 -0.032049 12H1.96795C1.96795 8.6773 1.91366 5.66323 1.82539 3.47442C1.78136 2.38272 1.72835 1.48263 1.66785 0.848096C1.63808 0.535918 1.60401 0.260318 1.56264 0.0504234C1.54349 -0.0467303 1.51352 -0.179553 1.46285 -0.30714C1.43958 -0.365728 1.38837 -0.485137 1.29141 -0.607C1.20788 -0.711981 0.94272 -1 0.483975 -1V1Z" fill="#393D46" mask="url(#path-1-inside-1_12345_271785)"/>
<mask id="path-3-inside-2_12345_271785" fill="white">
<ellipse cx="1.08896" cy="12" rx="0.483975" ry="12"/>
</mask>
<ellipse cx="1.08896" cy="12" rx="0.483975" ry="12" fill="white"/>
<path d="M-2.42707 12C-2.42707 15.2778 -2.48077 18.2215 -2.56557 20.3241C-2.60841 21.3862 -2.65711 22.1792 -2.7046 22.6773C-2.73028 22.9467 -2.74595 23.023 -2.73801 22.9827C-2.73422 22.9635 -2.72389 22.9129 -2.70488 22.8409C-2.68813 22.7774 -2.64946 22.6388 -2.57913 22.4617C-2.52673 22.3297 -2.36285 21.9295 -2.01625 21.4939C-1.72339 21.1258 -0.704259 20 1.08896 20V28C2.89888 28 3.93461 26.8637 4.24398 26.4748C4.60707 26.0185 4.78734 25.5873 4.85601 25.4144C5.00987 25.027 5.08166 24.6785 5.11099 24.5297C5.18195 24.1697 5.22706 23.7745 5.25928 23.4367C5.32759 22.7202 5.38318 21.7559 5.42793 20.6465C5.51829 18.406 5.57293 15.3497 5.57293 12H-2.42707ZM1.08896 20C2.88217 20 3.9013 21.1258 4.19417 21.4939C4.54076 21.9295 4.70464 22.3297 4.75704 22.4617C4.82737 22.6388 4.86605 22.7774 4.88279 22.8409C4.9018 22.9129 4.91213 22.9635 4.91592 22.9827C4.92387 23.023 4.90819 22.9467 4.88251 22.6773C4.83502 22.1792 4.78632 21.3862 4.74348 20.3241C4.65868 18.2215 4.60498 15.2778 4.60498 12H-3.39502C-3.39502 15.3497 -3.34038 18.406 -3.25002 20.6465C-3.20527 21.7559 -3.14968 22.7202 -3.08137 23.4367C-3.04915 23.7745 -3.00404 24.1697 -2.93308 24.5297C-2.90375 24.6785 -2.83196 25.027 -2.6781 25.4144C-2.60943 25.5873 -2.42916 26.0185 -2.06606 26.4748C-1.7567 26.8637 -0.720965 28 1.08896 28V20ZM4.60498 12C4.60498 8.72225 4.65868 5.77854 4.74348 3.67591C4.78632 2.61379 4.83502 1.82075 4.88251 1.32271C4.90819 1.05334 4.92387 0.976966 4.91592 1.01729C4.91213 1.03651 4.9018 1.08709 4.88279 1.15912C4.86605 1.22255 4.82737 1.36123 4.75704 1.53833C4.70464 1.67026 4.54076 2.07046 4.19417 2.50607C3.9013 2.87416 2.88217 4 1.08896 4V-4C-0.720965 -4 -1.7567 -2.86366 -2.06606 -2.47484C-2.42916 -2.01849 -2.60943 -1.58732 -2.6781 -1.41442C-2.83196 -1.02698 -2.90375 -0.678537 -2.93308 -0.529699C-3.00404 -0.16967 -3.04915 0.225464 -3.08137 0.563326C-3.14968 1.27975 -3.20527 2.24408 -3.25002 3.35352C-3.34038 5.59404 -3.39502 8.65034 -3.39502 12H4.60498ZM1.08896 4C-0.704259 4 -1.72339 2.87416 -2.01625 2.50607C-2.36285 2.07046 -2.52673 1.67026 -2.57913 1.53833C-2.64946 1.36123 -2.68813 1.22255 -2.70488 1.15912C-2.72389 1.08709 -2.73422 1.03651 -2.73801 1.01729C-2.74595 0.976966 -2.73028 1.05334 -2.7046 1.32271C-2.65711 1.82075 -2.60841 2.61379 -2.56557 3.67591C-2.48077 5.77854 -2.42707 8.72225 -2.42707 12H5.57293C5.57293 8.65034 5.51829 5.59404 5.42793 3.35352C5.38318 2.24408 5.32759 1.27975 5.25928 0.563326C5.22706 0.225464 5.18195 -0.16967 5.11099 -0.529699C5.08166 -0.678537 5.00987 -1.02698 4.85601 -1.41442C4.78734 -1.58732 4.60707 -2.01849 4.24398 -2.47484C3.93461 -2.86366 2.89888 -4 1.08896 -4V4Z" fill="#393D46" mask="url(#path-3-inside-2_12345_271785)"/>
</svg>
