<svg width="56" height="56" viewBox="0 0 56 56" fill="none" xmlns="http://www.w3.org/2000/svg">
<path d="M28 11.6667C16.8771 11.6667 8.16675 16.8 8.16675 23.3334V32.6667C8.16675 37.9937 14.2171 42.5974 22.911 43.9344C23.4011 44.1928 23.946 44.3297 24.5 44.3334H31.5C32.054 44.3297 32.599 44.1928 33.089 43.9344C41.7831 42.5974 47.8334 37.9937 47.8334 32.6667V23.3334C47.8334 16.8 39.123 11.6667 28 11.6667ZM10.5001 32.6667V28.9054C13.5104 31.8314 17.3604 33.743 21.511 34.3724C21.1799 34.9125 21.0031 35.5331 21 36.1667V40.8334C21 40.9547 21.0234 41.0667 21.035 41.188C14.8074 39.704 10.5001 36.3254 10.5001 32.6667ZM32.6667 40.8334C32.6546 41.1389 32.5278 41.4287 32.3116 41.6449C32.0954 41.8612 31.8056 41.988 31.5 42H29.1667V39.6667H30.3334C30.6428 39.6667 30.9395 39.5438 31.1583 39.325C31.3771 39.1062 31.5 38.8095 31.5 38.5C31.5 38.1906 31.3771 37.8939 31.1583 37.6751C30.9395 37.4563 30.6428 37.3334 30.3334 37.3334H29.1667V35H31.5C31.8095 35 32.1062 35.123 32.325 35.3417C32.5438 35.5605 32.6667 35.8573 32.6667 36.1667V40.8334ZM23.3334 40.8334V36.1667C23.3334 35.8573 23.4563 35.5605 23.6751 35.3417C23.8939 35.123 24.1906 35 24.5 35H26.8334V37.3334C26.524 37.3334 26.2272 37.4563 26.0084 37.6751C25.7896 37.8939 25.6667 38.1906 25.6667 38.5C25.6667 38.8095 25.7896 39.1062 26.0084 39.325C26.2272 39.5438 26.524 39.6667 26.8334 39.6667V42H24.5C24.1941 41.989 23.9037 41.8626 23.6873 41.6461C23.4708 41.4297 23.3444 41.1393 23.3334 40.8334ZM34.7294 30.6017C34.9627 27.776 31.9994 26.0587 29.1667 25.732V23.3987C34.6524 23.877 38.3554 27.5894 34.7294 30.6017ZM23.3334 30.3334C23.3334 29.232 25.3284 28 28 28C30.5387 28 32.4334 29.232 32.4334 30.3334C32.4334 31.4347 30.5387 32.6667 28 32.6667C26.1007 32.6667 23.3334 31.7824 23.3334 30.3334ZM26.8334 25.7437C23.4874 26.1054 21 27.9814 21 30.3287C17.7334 27.1787 21.8097 23.8374 26.8334 23.4034V25.7437ZM38.052 29.9437C38.3312 29.3328 38.4836 28.6716 38.5 28C38.5 24.073 33.887 21 28 21C22.113 21 17.5001 24.073 17.5001 28C17.5155 28.6739 17.668 29.3376 17.9481 29.9507C17.1717 29.5159 16.5127 28.8987 16.0281 28.1523C15.5436 27.406 15.2479 26.5529 15.1667 25.6667C15.1667 21.8727 21.0444 18.6667 28 18.6667C34.9557 18.6667 40.8334 21.8727 40.8334 25.6667C40.7522 26.5529 40.4565 27.406 39.972 28.1523C39.4874 28.8987 38.8285 29.5159 38.052 29.9507V29.9437ZM45.5 32.6667C45.5 36.3254 41.1927 39.704 34.965 41.188C34.9767 41.069 35 40.9547 35 40.8334V36.1667C34.997 35.5331 34.8202 34.9125 34.489 34.3724C38.6397 33.743 42.4897 31.8314 45.5 28.9054V32.6667ZM42.483 28.4924C42.9289 27.617 43.1631 26.6491 43.1667 25.6667C43.1667 20.433 36.505 16.3334 28 16.3334C19.495 16.3334 12.8334 20.433 12.8334 25.6667C12.8373 26.6491 13.0714 27.6169 13.5171 28.4924C12.6535 27.9201 11.9325 27.1575 11.4095 26.2632C10.8865 25.3689 10.5754 24.3666 10.5001 23.3334C10.5001 18.2747 18.515 14 28 14C37.485 14 45.5 18.2747 45.5 23.3334C45.4248 24.3666 45.1136 25.3689 44.5906 26.2632C44.0676 27.1575 43.3466 27.9201 42.483 28.4924Z" fill="#393D46"/>
</svg>
