<svg width="32" height="32" viewBox="0 0 32 32" fill="none" xmlns="http://www.w3.org/2000/svg">
<path d="M24 8.55864V6.66664C24 6.31302 23.8595 5.97389 23.6095 5.72384C23.3594 5.47379 23.0203 5.33331 22.6666 5.33331H10.6666C10.313 5.33331 9.97388 5.47379 9.72383 5.72384C9.47378 5.97389 9.33331 6.31302 9.33331 6.66664V8.55864C8.27597 12.1 7.26263 13.6946 7.3173 16.6666C7.37464 19.768 8.48797 21.236 10.5466 27.136C10.6431 27.3894 10.8142 27.6076 11.0372 27.7619C11.2602 27.9161 11.5248 27.9991 11.796 28H17.4346C17.7503 27.9998 18.0556 27.8877 18.2963 27.6836C18.537 27.4795 18.6976 27.1966 18.7493 26.8853L19.3333 23.388L19.9626 27.1653C20.0015 27.3988 20.1221 27.6109 20.3028 27.7637C20.4835 27.9166 20.7126 28.0003 20.9493 28H21.7693C21.9723 27.9994 22.1702 27.9371 22.337 27.8214C22.5037 27.7057 22.6312 27.5419 22.7027 27.352C24.8026 21.352 25.9573 19.792 26.0146 16.668C26.0706 13.688 25.048 12.068 24 8.55864ZM22.6666 6.66664V7.99998H10.6666V6.66664H22.6666ZM21.5373 26.6666H21.2307L19.9906 19.224C19.9644 19.0686 19.884 18.9276 19.7636 18.8259C19.6433 18.7243 19.4909 18.6685 19.3333 18.6685C19.1758 18.6685 19.0233 18.7243 18.903 18.8259C18.7827 18.9276 18.7023 19.0686 18.676 19.224L17.4346 26.6666H11.7946C9.68531 20.6666 8.70797 19.4173 8.65064 16.6666C8.59597 14.0266 9.48931 12.6466 10.4813 9.33331H22.852C23.8386 12.6266 24.732 14.02 24.6826 16.6426C24.632 19.4146 23.64 20.6826 21.5373 26.6666Z" fill="#9F9F9F"/>
</svg>
