<svg width="48" height="48" viewBox="0 0 48 48" fill="none" xmlns="http://www.w3.org/2000/svg">
<path d="M37.3312 36.9611C38.5265 36.9611 39.7312 36.708 40.7156 35.9908C41.85 35.1658 42.7593 33.9799 43.0125 32.569C43.1906 31.5658 43.1343 30.544 43.1343 29.5315C43.1343 27.2158 43.1484 24.8955 43.1343 22.5752C43.1296 21.4783 42.8156 20.3299 42.164 19.4392C41.3437 18.3142 40.1718 17.4096 38.775 17.1517C38.2359 17.0486 37.6828 16.9971 37.1343 17.0252C36.3093 17.0674 35.5921 17.2689 34.8515 17.6158C33.5578 18.2205 32.6437 19.3924 32.1328 20.6908C31.7203 21.7361 31.8 22.8986 31.8 24.0002C31.8 25.3877 31.8 26.7799 31.8 28.1674C31.8 29.208 31.8 30.2486 31.8 31.2893C31.8 32.2221 32.0015 33.0658 32.3953 33.9049C32.9953 35.1986 34.1718 36.1127 35.4703 36.6236C36.0562 36.858 36.7031 36.9565 37.3312 36.9611C38.3109 36.9705 39.2531 36.094 39.2062 35.0861C39.1593 34.0643 38.3812 33.2205 37.3312 33.2111C37.1578 33.2111 36.989 33.1971 36.8156 33.1736C36.9796 33.1971 37.1484 33.2205 37.3125 33.2393C36.9984 33.1924 36.6984 33.108 36.4078 32.9861C36.5578 33.0471 36.7078 33.1127 36.8578 33.1736C36.5718 33.0518 36.3093 32.8971 36.0609 32.7096C36.1875 32.808 36.314 32.9065 36.4406 33.0049C36.1828 32.8033 35.9531 32.5736 35.7515 32.3158C35.85 32.4424 35.9484 32.569 36.0468 32.6955C35.8593 32.4471 35.7046 32.1846 35.5828 31.8986C35.6437 32.0486 35.7093 32.1986 35.7703 32.3486C35.6484 32.058 35.564 31.758 35.5171 31.444C35.5406 31.608 35.564 31.7768 35.5828 31.9408C35.5265 31.5236 35.5453 31.0971 35.5453 30.6752C35.5453 29.9486 35.5453 29.2268 35.5453 28.5002C35.5453 26.8314 35.5453 25.1674 35.5453 23.4986C35.5453 23.0111 35.5171 22.5142 35.5828 22.0314C35.5593 22.1955 35.5359 22.3642 35.5171 22.5283C35.564 22.2142 35.6484 21.9142 35.7703 21.6236C35.7093 21.7736 35.6437 21.9236 35.5828 22.0736C35.7046 21.7877 35.8593 21.5252 36.0468 21.2767C35.9484 21.4033 35.85 21.5299 35.7515 21.6564C35.9531 21.3986 36.1828 21.1689 36.4406 20.9674C36.314 21.0658 36.1875 21.1642 36.0609 21.2627C36.3093 21.0752 36.5718 20.9205 36.8578 20.7986C36.7078 20.8596 36.5578 20.9252 36.4078 20.9861C36.6984 20.8642 36.9984 20.7799 37.3125 20.733C37.1484 20.7564 36.9796 20.7799 36.8156 20.7986C37.2421 20.7424 37.6921 20.7424 38.1187 20.7986C37.9546 20.7752 37.7859 20.7517 37.6218 20.733C37.9359 20.7799 38.2359 20.8642 38.5265 20.9861C38.3765 20.9252 38.2265 20.8596 38.0765 20.7986C38.3625 20.9205 38.625 21.0752 38.8734 21.2627C38.7468 21.1642 38.6203 21.0658 38.4937 20.9674C38.7515 21.1689 38.9812 21.3986 39.1828 21.6564C39.0843 21.5299 38.9859 21.4033 38.8875 21.2767C39.075 21.5252 39.2296 21.7877 39.3515 22.0736C39.2906 21.9236 39.225 21.7736 39.164 21.6236C39.2859 21.9142 39.3703 22.2142 39.4171 22.5283C39.3937 22.3642 39.3703 22.1955 39.3515 22.0314C39.4078 22.4486 39.389 22.8752 39.389 23.2971C39.389 24.0236 39.389 24.7455 39.389 25.4721C39.389 27.1408 39.389 28.8049 39.389 30.4736C39.389 30.9611 39.4171 31.458 39.3515 31.9408C39.375 31.7768 39.3984 31.608 39.4171 31.444C39.3703 31.758 39.2859 32.058 39.164 32.3486C39.225 32.1986 39.2906 32.0486 39.3515 31.8986C39.2296 32.1846 39.075 32.4471 38.8875 32.6955C38.9859 32.569 39.0843 32.4424 39.1828 32.3158C38.9812 32.5736 38.7515 32.8033 38.4937 33.0049C38.6203 32.9065 38.7468 32.808 38.8734 32.7096C38.625 32.8971 38.3625 33.0518 38.0765 33.1736C38.2265 33.1127 38.3765 33.0471 38.5265 32.9861C38.2359 33.108 37.9359 33.1924 37.6218 33.2393C37.7859 33.2158 37.9546 33.1924 38.1187 33.1736C37.8562 33.2065 37.5937 33.2111 37.3312 33.2111C36.3515 33.2111 35.4093 34.0736 35.4562 35.0861C35.5031 36.1033 36.2812 36.9611 37.3312 36.9611ZM10.3968 36.9611C11.5921 36.9611 12.7968 36.708 13.7812 35.9908C14.9156 35.1658 15.825 33.9799 16.0781 32.569C16.2562 31.5658 16.2 30.544 16.2 29.5315C16.2 27.2158 16.214 24.8955 16.2 22.5752C16.1953 21.4783 15.8812 20.3299 15.2296 19.4392C14.4093 18.3142 13.2374 17.4096 11.8406 17.1517C11.3015 17.0486 10.7484 16.9971 10.1999 17.0252C9.37494 17.0674 8.65775 17.2689 7.91712 17.6158C6.62337 18.2205 5.70931 19.3924 5.19838 20.6908C4.78588 21.7361 4.86556 22.8986 4.86556 24.0002C4.86556 25.3877 4.86556 26.7799 4.86556 28.1674C4.86556 29.208 4.86556 30.2486 4.86556 31.2893C4.86556 32.2221 5.06713 33.0658 5.46088 33.9049C6.06087 35.1986 7.23744 36.1127 8.53588 36.6236C9.12182 36.858 9.76868 36.9565 10.3968 36.9611C11.3765 36.9705 12.3187 36.094 12.2718 35.0861C12.2249 34.0643 11.4468 33.2205 10.3968 33.2111C10.2234 33.2111 10.0546 33.1971 9.88119 33.1736C10.0453 33.1971 10.214 33.2205 10.3781 33.2393C10.064 33.1924 9.764 33.108 9.47337 32.9861C9.62337 33.0471 9.77338 33.1127 9.92338 33.1736C9.63743 33.0518 9.37493 32.8971 9.1265 32.7096C9.25307 32.808 9.37962 32.9065 9.50619 33.0049C9.24837 32.8033 9.01868 32.5736 8.81713 32.3158C8.91557 32.4424 9.014 32.569 9.11243 32.6955C8.92493 32.4471 8.77026 32.1846 8.64838 31.8986C8.70932 32.0486 8.77494 32.1986 8.83588 32.3486C8.714 32.058 8.62963 31.758 8.58276 31.444C8.60619 31.608 8.62963 31.7768 8.64838 31.9408C8.59212 31.5236 8.61087 31.0971 8.61087 30.6752C8.61087 29.9486 8.61087 29.2268 8.61087 28.5002C8.61087 26.8314 8.61087 25.1674 8.61087 23.4986C8.61087 23.0111 8.58276 22.5142 8.64838 22.0314C8.62494 22.1955 8.60151 22.3642 8.58276 22.5283C8.62963 22.2142 8.714 21.9142 8.83588 21.6236C8.77494 21.7736 8.70932 21.9236 8.64838 22.0736C8.77026 21.7877 8.92493 21.5252 9.11243 21.2767C9.014 21.4033 8.91557 21.5299 8.81713 21.6564C9.01868 21.3986 9.24837 21.1689 9.50619 20.9674C9.37962 21.0658 9.25307 21.1642 9.1265 21.2627C9.37493 21.0752 9.63743 20.9205 9.92338 20.7986C9.77338 20.8596 9.62337 20.9252 9.47337 20.9861C9.764 20.8642 10.064 20.7799 10.3781 20.733C10.214 20.7564 10.0453 20.7799 9.88119 20.7986C10.3078 20.7424 10.7578 20.7424 11.1843 20.7986C11.0203 20.7752 10.8515 20.7517 10.6874 20.733C11.0015 20.7799 11.3015 20.8642 11.5921 20.9861C11.4421 20.9252 11.2921 20.8596 11.1421 20.7986C11.4281 20.9205 11.6906 21.0752 11.939 21.2627C11.8124 21.1642 11.6859 21.0658 11.5593 20.9674C11.8171 21.1689 12.0468 21.3986 12.2484 21.6564C12.1499 21.5299 12.0515 21.4033 11.9531 21.2767C12.1406 21.5252 12.2952 21.7877 12.4171 22.0736C12.3562 21.9236 12.2906 21.7736 12.2296 21.6236C12.3515 21.9142 12.4359 22.2142 12.4827 22.5283C12.4593 22.3642 12.4359 22.1955 12.4171 22.0314C12.4734 22.4486 12.4546 22.8752 12.4546 23.2971C12.4546 24.0236 12.4546 24.7455 12.4546 25.4721C12.4546 27.1408 12.4546 28.8049 12.4546 30.4736C12.4546 30.9611 12.4827 31.458 12.4171 31.9408C12.4406 31.7768 12.464 31.608 12.4827 31.444C12.4359 31.758 12.3515 32.058 12.2296 32.3486C12.2906 32.1986 12.3562 32.0486 12.4171 31.8986C12.2952 32.1846 12.1406 32.4471 11.9531 32.6955C12.0515 32.569 12.1499 32.4424 12.2484 32.3158C12.0468 32.5736 11.8171 32.8033 11.5593 33.0049C11.6859 32.9065 11.8124 32.808 11.939 32.7096C11.6906 32.8971 11.4281 33.0518 11.1421 33.1736C11.2921 33.1127 11.4421 33.0471 11.5921 32.9861C11.3015 33.108 11.0015 33.1924 10.6874 33.2393C10.8515 33.2158 11.0203 33.1924 11.1843 33.1736C10.9218 33.2065 10.6593 33.2111 10.3968 33.2111C9.41712 33.2111 8.47494 34.0736 8.52182 35.0861C8.56401 36.1033 9.34682 36.9611 10.3968 36.9611Z" fill="#393D46"/>
<path d="M8.61572 31.2939C8.61572 29.8502 8.61572 28.4064 8.61572 26.9627C8.61572 24.9611 8.61572 22.9596 8.61572 20.958C8.61572 19.9924 8.63916 19.0314 8.76572 18.0752C8.74228 18.2393 8.71885 18.408 8.7001 18.5721C8.90635 17.0627 9.30947 15.5861 9.9001 14.1799C9.83916 14.3299 9.77353 14.4799 9.7126 14.6299C10.2985 13.2564 11.0532 11.9627 11.9673 10.7814C11.8689 10.908 11.7704 11.0345 11.672 11.1611C12.5814 9.98921 13.636 8.93452 14.8079 8.02514C14.6814 8.12358 14.5548 8.22202 14.4282 8.32046C15.6095 7.41108 16.9032 6.65171 18.2766 6.06577C18.1266 6.12671 17.9766 6.19233 17.8266 6.25327C19.2329 5.66264 20.7095 5.25952 22.2188 5.05327C22.0548 5.07671 21.886 5.10014 21.722 5.11889C23.236 4.92202 24.7688 4.92202 26.2829 5.11889C26.1188 5.09546 25.9501 5.07202 25.786 5.05327C27.2954 5.25952 28.772 5.66264 30.1782 6.25327C30.0282 6.19233 29.8782 6.12671 29.7282 6.06577C31.1016 6.65171 32.3954 7.40639 33.5766 8.32046C33.4501 8.22202 33.3235 8.12358 33.197 8.02514C34.3688 8.93452 35.4235 9.98921 36.3329 11.1611C36.2345 11.0345 36.136 10.908 36.0376 10.7814C36.947 11.9627 37.7063 13.2564 38.2923 14.6299C38.2313 14.4799 38.1657 14.3299 38.1048 14.1799C38.6954 15.5861 39.0985 17.0627 39.3048 18.5721C39.2813 18.408 39.2579 18.2393 39.2391 18.0752C39.3704 19.0689 39.3891 20.0627 39.3891 21.0611C39.3891 22.1439 39.3891 23.2221 39.3891 24.3049C39.3891 27.0002 39.3891 29.6954 39.3891 32.3908C39.3891 33.2579 39.4266 34.1393 39.3141 35.0018C39.3376 34.8377 39.361 34.6689 39.3798 34.5049C39.2813 35.2174 39.0938 35.9111 38.8173 36.5721C38.8782 36.4221 38.9438 36.2721 39.0048 36.1221C38.7235 36.7877 38.3579 37.4111 37.9126 37.9877C38.011 37.8611 38.1095 37.7346 38.2079 37.608C37.7766 38.1611 37.2845 38.6533 36.7313 39.0846C36.8579 38.9861 36.9845 38.8877 37.111 38.7893C36.5391 39.2299 35.911 39.5955 35.2454 39.8814C35.3954 39.8204 35.5454 39.7549 35.6954 39.6939C35.0298 39.9705 34.3407 40.158 33.6282 40.2564C33.7923 40.233 33.961 40.2095 34.1251 40.1908C33.3985 40.2845 32.6673 40.2658 31.936 40.2658C31.0266 40.2658 30.1173 40.2658 29.2079 40.2658C28.9782 40.2658 28.7532 40.2658 28.5235 40.2658C27.5438 40.2658 26.6016 41.1283 26.6485 42.1408C26.6954 43.158 27.4735 44.0158 28.5235 44.0158C29.6766 44.0158 30.8251 44.0158 31.9782 44.0158C32.4141 44.0158 32.8501 44.0252 33.286 44.0111C34.6407 43.9689 35.9016 43.6502 37.1391 43.1205C39.2251 42.2252 41.0345 40.5049 42.0376 38.4705C42.6376 37.2518 42.9798 36.0048 43.1063 34.6502C43.1391 34.3032 43.1391 33.9564 43.1391 33.6049C43.1391 31.1814 43.1391 28.7579 43.1391 26.3346C43.1391 24.3424 43.1438 22.3502 43.1391 20.358C43.1345 18.1877 42.7735 15.9799 42.0235 13.9408C41.2173 11.7471 40.0641 9.76889 38.5641 7.97827C35.7657 4.64077 31.7063 2.26889 27.4173 1.53296C25.0313 1.12046 22.6501 1.13452 20.2735 1.58921C18.1126 2.00171 15.9938 2.84077 14.1142 3.98452C10.2657 6.33296 7.3501 9.98452 5.87822 14.2361C5.19854 16.1955 4.87041 18.3002 4.86572 20.3721C4.86572 21.1783 4.86572 21.9799 4.86572 22.7861C4.86572 25.4346 4.86572 28.0877 4.86572 30.7361C4.86572 30.9236 4.86572 31.1064 4.86572 31.2939C4.86572 32.2736 5.72822 33.2158 6.74072 33.1689C7.75322 33.1221 8.61572 32.3439 8.61572 31.2939Z" fill="#393D46"/>
<path d="M26.6484 42.1358C26.6484 42.2671 26.639 42.3983 26.6203 42.5249C26.6437 42.3608 26.6671 42.1921 26.6859 42.028C26.6484 42.2577 26.5874 42.4827 26.5031 42.6983C26.564 42.5483 26.6296 42.3983 26.6906 42.2483C26.5921 42.478 26.4656 42.689 26.3156 42.8905C26.414 42.764 26.5124 42.6374 26.6109 42.5108C26.4703 42.689 26.3109 42.8483 26.1328 42.989C26.2593 42.8905 26.3859 42.7921 26.5124 42.6936C26.3156 42.8436 26.0999 42.9702 25.8703 43.0686C26.0203 43.0077 26.1703 42.9421 26.3203 42.8811C26.1046 42.9702 25.8796 43.0311 25.65 43.064C25.814 43.0405 25.9828 43.0171 26.1468 42.9983C25.5328 43.078 24.8906 43.0265 24.2718 43.0265C23.6437 43.0265 22.9921 43.078 22.3687 43.003C22.5328 43.0265 22.7015 43.0499 22.8656 43.0686C22.6218 43.0311 22.3921 42.9702 22.1624 42.8765C22.3124 42.9374 22.4625 43.003 22.6125 43.064C22.3921 42.9655 22.1906 42.8483 21.9984 42.703C22.1249 42.8015 22.2515 42.8999 22.3781 42.9983C22.1906 42.8483 22.0265 42.6843 21.8765 42.4968C21.9749 42.6233 22.0734 42.7499 22.1718 42.8765C22.0265 42.6843 21.9093 42.4827 21.8109 42.2624C21.8718 42.4124 21.9374 42.5624 21.9984 42.7124C21.9046 42.4874 21.8437 42.253 21.8062 42.0093C21.8296 42.1733 21.8531 42.3421 21.8718 42.5061C21.839 42.2483 21.839 41.9952 21.8718 41.7421C21.8484 41.9061 21.8249 42.0749 21.8062 42.239C21.8437 42.0093 21.9046 41.7843 21.989 41.5686C21.9281 41.7186 21.8624 41.8686 21.8015 42.0187C21.8999 41.789 22.0265 41.578 22.1765 41.3765C22.0781 41.503 21.9796 41.6296 21.8812 41.7561C22.0218 41.578 22.1812 41.4186 22.3593 41.278C22.2328 41.3765 22.1062 41.4749 21.9796 41.5733C22.1765 41.4233 22.3921 41.2968 22.6218 41.1983C22.4718 41.2593 22.3218 41.3249 22.1718 41.3858C22.3874 41.2968 22.6124 41.2358 22.8421 41.203C22.6781 41.2265 22.5093 41.2499 22.3453 41.2686C22.9593 41.189 23.6015 41.2405 24.2203 41.2405C24.8484 41.2405 25.4999 41.189 26.1234 41.264C25.9593 41.2405 25.7906 41.2171 25.6265 41.1983C25.8703 41.2358 26.0999 41.2968 26.3296 41.3905C26.1796 41.3296 26.0296 41.264 25.8796 41.203C26.0999 41.3015 26.3015 41.4187 26.4937 41.564C26.3671 41.4655 26.2406 41.3671 26.114 41.2686C26.3015 41.4186 26.4656 41.5827 26.6156 41.7702C26.5171 41.6436 26.4187 41.5171 26.3203 41.3905C26.4656 41.5827 26.5828 41.7843 26.6812 42.0046C26.6203 41.8546 26.5546 41.7046 26.4937 41.5546C26.5874 41.7796 26.6484 42.014 26.6859 42.2577C26.6624 42.0936 26.639 41.9249 26.6203 41.7608C26.639 41.8874 26.6437 42.0093 26.6484 42.1358C26.6531 42.6186 26.8546 43.1155 27.1968 43.4624C27.5203 43.7858 28.0546 44.0343 28.5234 44.0108C29.5265 43.964 30.4125 43.1858 30.3984 42.1358C30.389 41.2827 30.1593 40.3921 29.6859 39.6702C29.2406 38.9952 28.6359 38.3812 27.9046 38.0202C27.2156 37.6827 26.5124 37.4952 25.7343 37.4858C25.5468 37.4858 25.364 37.4858 25.1765 37.4858C24.5062 37.4858 23.8312 37.4858 23.1609 37.4858C23.0203 37.4858 22.8749 37.4858 22.7343 37.4858C21.9468 37.4952 21.1968 37.6921 20.4984 38.0624C19.8234 38.4187 19.2984 38.9671 18.8578 39.5811C18.4031 40.2186 18.2109 40.9733 18.1125 41.7421C18.0093 42.5952 18.225 43.453 18.5906 44.2218C18.9421 44.9718 19.5375 45.5624 20.2124 46.0311C21.0656 46.6218 22.0875 46.7811 23.0999 46.7811C23.7703 46.7811 24.4359 46.7811 25.1062 46.7811C25.3171 46.7811 25.5328 46.7811 25.7437 46.7811C26.5359 46.7718 27.2859 46.5749 27.9843 46.2046C29.4703 45.4171 30.3797 43.7905 30.3984 42.1311C30.4078 41.1515 29.5265 40.2093 28.5234 40.2561C27.4968 40.3077 26.6578 41.0858 26.6484 42.1358Z" fill="#393D46"/>
</svg>
