<svg width="31" height="32" viewBox="0 0 31 32" fill="none" xmlns="http://www.w3.org/2000/svg">
<path d="M5.99985 15.0002C5.99985 14.735 6.10525 14.4806 6.29275 14.2931C6.48025 14.1055 6.73465 14.0002 6.99985 14.0002L20.5899 14.0002L19.2899 12.7102C19.1016 12.5219 18.9958 12.2665 18.9958 12.0002C18.9958 11.7339 19.1016 11.4785 19.2899 11.2902C19.4782 11.1019 19.7336 10.9961 19.9999 10.9961C20.2662 10.9961 20.5216 11.1019 20.7099 11.2902L23.7099 14.2902C23.8486 14.4308 23.9426 14.6094 23.98 14.8034C24.0174 14.9974 23.9964 15.1981 23.9199 15.3802C23.8448 15.5628 23.7174 15.7191 23.5537 15.8295C23.39 15.9398 23.1973 15.9992 22.9999 16.0002L6.99985 16.0002C6.73465 16.0002 6.48025 15.8948 6.29275 15.7073C6.10525 15.5198 5.99985 15.2654 5.99985 15.0002Z" fill="#393D46"/>
<path d="M18.9998 18.0002C18.9991 17.8686 19.0243 17.7381 19.074 17.6163C19.1238 17.4944 19.1971 17.3836 19.2898 17.2902L22.2898 14.2902C22.4781 14.1019 22.7335 13.9961 22.9998 13.9961C23.1317 13.9961 23.2622 14.0221 23.3841 14.0725C23.5059 14.123 23.6166 14.1969 23.7098 14.2902C23.8031 14.3834 23.877 14.4941 23.9275 14.6159C23.9779 14.7378 24.0039 14.8683 24.0039 15.0002C24.0039 15.2665 23.8981 15.5219 23.7098 15.7102L20.7098 18.7102C20.6169 18.8039 20.5062 18.8783 20.3844 18.9291C20.2625 18.9798 20.1318 19.006 19.9998 19.006C19.8678 19.006 19.7371 18.9798 19.6152 18.9291C19.4934 18.8783 19.3828 18.8039 19.2898 18.7102C19.1971 18.6167 19.1238 18.5059 19.074 18.3841C19.0243 18.2623 18.9991 18.1318 18.9998 18.0002Z" fill="#393D46"/>
</svg>
