<svg width="1" height="24" viewBox="0 0 1 24" fill="none" xmlns="http://www.w3.org/2000/svg">
<mask id="path-1-inside-1_12345_273992" fill="white">
<ellipse cx="0.192743" cy="12" rx="0.192743" ry="12"/>
</mask>
<ellipse cx="0.192743" cy="12" rx="0.192743" ry="12" fill="white"/>
<path d="M-0.614513 12C-0.614513 15.3101 -0.636068 18.3045 -0.670837 20.4692C-0.68824 21.5527 -0.708869 22.4228 -0.731512 23.019C-0.742916 23.3193 -0.754424 23.5388 -0.765346 23.6779C-0.768001 23.7118 -0.770394 23.7379 -0.772424 23.7572C-0.77458 23.7777 -0.775707 23.7846 -0.775272 23.7818C-0.775013 23.7802 -0.773662 23.7717 -0.770864 23.7585C-0.768483 23.7472 -0.762319 23.7192 -0.750626 23.6823C-0.742944 23.6581 -0.713724 23.5661 -0.646855 23.4606C-0.618935 23.4166 -0.360338 23 0.192743 23V25C0.749152 25 1.01106 24.5808 1.04229 24.5315C1.11247 24.4208 1.14498 24.3211 1.15595 24.2864C1.18244 24.2029 1.19488 24.1277 1.20017 24.0943C1.21298 24.0133 1.22176 23.9206 1.22852 23.8345C1.24269 23.6539 1.25539 23.4018 1.26705 23.0949C1.29052 22.4767 1.31143 21.5895 1.3289 20.5013C1.36389 18.3229 1.38549 15.3173 1.38549 12H-0.614513ZM0.192743 23C0.745825 23 1.00442 23.4166 1.03234 23.4606C1.09921 23.5661 1.12843 23.6581 1.13611 23.6823C1.14781 23.7192 1.15397 23.7472 1.15635 23.7585C1.15915 23.7717 1.1605 23.7802 1.16076 23.7818C1.16119 23.7846 1.16007 23.7777 1.15791 23.7572C1.15588 23.7379 1.15349 23.7118 1.15083 23.6779C1.13991 23.5388 1.1284 23.3193 1.117 23.019C1.09436 22.4228 1.07373 21.5527 1.05632 20.4692C1.02155 18.3045 1 15.3101 1 12H-1C-1 15.3173 -0.978408 18.3229 -0.943418 20.5013C-0.92594 21.5895 -0.905037 22.4767 -0.881561 23.0949C-0.869905 23.4018 -0.857208 23.6539 -0.843035 23.8345C-0.836275 23.9206 -0.827497 24.0133 -0.814686 24.0943C-0.809395 24.1277 -0.796952 24.2029 -0.770463 24.2864C-0.759496 24.3211 -0.72698 24.4208 -0.656804 24.5315C-0.625578 24.5808 -0.363665 25 0.192743 25V23ZM1 12C1 8.68987 1.02155 5.69548 1.05632 3.53078C1.07373 2.44733 1.09436 1.57723 1.117 0.980967C1.1284 0.680656 1.13991 0.461187 1.15083 0.322049C1.15349 0.288222 1.15588 0.26212 1.15791 0.242811C1.16007 0.222304 1.16119 0.215425 1.16076 0.218172C1.1605 0.219809 1.15915 0.228279 1.15635 0.241534C1.15397 0.252813 1.14781 0.280775 1.13611 0.317678C1.12843 0.341922 1.09921 0.433884 1.03234 0.53936C1.00442 0.583399 0.745825 1 0.192743 1V-1C-0.363665 -1 -0.625578 -0.580776 -0.656804 -0.531521C-0.72698 -0.420831 -0.759496 -0.321061 -0.770463 -0.28645C-0.796952 -0.202852 -0.809395 -0.127718 -0.814686 -0.0942629C-0.827497 -0.0132615 -0.836275 0.0794296 -0.843035 0.165545C-0.857208 0.346109 -0.869905 0.59815 -0.881561 0.905072C-0.905037 1.52328 -0.92594 2.41053 -0.943418 3.49866C-0.978408 5.67711 -1 8.68271 -1 12H1ZM0.192743 1C-0.360338 1 -0.618935 0.583399 -0.646855 0.53936C-0.713724 0.433884 -0.742944 0.341922 -0.750626 0.317678C-0.762319 0.280775 -0.768483 0.252813 -0.770864 0.241534C-0.773662 0.228279 -0.775013 0.219809 -0.775272 0.218172C-0.775707 0.215425 -0.77458 0.222304 -0.772424 0.242811C-0.770394 0.26212 -0.768001 0.288222 -0.765346 0.322049C-0.754424 0.461187 -0.742916 0.680656 -0.731512 0.980967C-0.708869 1.57723 -0.68824 2.44733 -0.670837 3.53078C-0.636068 5.69548 -0.614513 8.68987 -0.614513 12H1.38549C1.38549 8.68271 1.36389 5.67711 1.3289 3.49866C1.31143 2.41053 1.29052 1.52328 1.26705 0.905072C1.25539 0.59815 1.24269 0.346109 1.22852 0.165545C1.22176 0.0794296 1.21298 -0.0132615 1.20017 -0.0942629C1.19488 -0.127718 1.18244 -0.202852 1.15595 -0.28645C1.14498 -0.321061 1.11247 -0.420831 1.04229 -0.531521C1.01106 -0.580776 0.749152 -1 0.192743 -1V1Z" fill="#393D46" mask="url(#path-1-inside-1_12345_273992)"/>
<mask id="path-3-inside-2_12345_273992" fill="white">
<ellipse cx="0.433954" cy="12" rx="0.192743" ry="12"/>
</mask>
<ellipse cx="0.433954" cy="12" rx="0.192743" ry="12" fill="white"/>
<path d="M-3.3733 12C-3.3733 15.2994 -3.3948 18.277 -3.42924 20.421C-3.44653 21.4975 -3.46675 22.3418 -3.48814 22.9052C-3.49917 23.1956 -3.50889 23.3662 -3.51494 23.4432C-3.51927 23.4984 -3.51608 23.4323 -3.49723 23.3132C-3.49226 23.2818 -3.45881 23.0587 -3.36928 22.7761C-3.33362 22.6636 -3.2118 22.284 -2.93936 21.8543C-2.82272 21.6703 -1.78336 20 0.433954 20V28C2.6546 28 3.69727 26.327 3.81722 26.1378C4.09296 25.7029 4.21808 25.3155 4.25702 25.1926C4.35313 24.8894 4.39311 24.6353 4.40455 24.5629C4.43636 24.3618 4.45232 24.1739 4.46053 24.0692C4.47958 23.8265 4.49407 23.5256 4.5061 23.2088C4.53082 22.5577 4.55214 21.6447 4.56973 20.5495C4.60505 18.3504 4.6267 15.328 4.6267 12H-3.3733ZM0.433954 20C2.65127 20 3.69063 21.6703 3.80727 21.8543C4.07971 22.284 4.20153 22.6636 4.23719 22.7761C4.32672 23.0587 4.36017 23.2818 4.36514 23.3132C4.38399 23.4323 4.38717 23.4984 4.38284 23.4432C4.3768 23.3662 4.36708 23.1956 4.35605 22.9052C4.33466 22.3418 4.31444 21.4975 4.29715 20.421C4.26271 18.277 4.24121 15.2994 4.24121 12H-3.75879C-3.75879 15.328 -3.73714 18.3504 -3.70182 20.5495C-3.68423 21.6447 -3.66291 22.5577 -3.63819 23.2088C-3.62616 23.5256 -3.61168 23.8265 -3.59262 24.0692C-3.58441 24.1739 -3.56845 24.3618 -3.53664 24.5629C-3.5252 24.6353 -3.48522 24.8894 -3.38911 25.1926C-3.35017 25.3155 -3.22505 25.7029 -2.94931 26.1378C-2.82937 26.327 -1.78669 28 0.433954 28V20ZM4.24121 12C4.24121 8.7006 4.26271 5.72303 4.29715 3.57896C4.31444 2.50254 4.33466 1.65816 4.35605 1.09481C4.36708 0.804416 4.3768 0.633805 4.38284 0.556806C4.38717 0.501641 4.38399 0.567659 4.36514 0.686825C4.36017 0.718224 4.32672 0.941316 4.23719 1.22387C4.20153 1.3364 4.07971 1.71596 3.80727 2.14568C3.69063 2.32966 2.65127 4 0.433954 4V-4C-1.78669 -4 -2.82937 -2.32704 -2.94931 -2.13784C-3.22505 -1.7029 -3.35017 -1.31554 -3.38911 -1.19264C-3.48522 -0.889353 -3.5252 -0.635282 -3.53664 -0.562916C-3.56845 -0.361814 -3.58441 -0.173897 -3.59262 -0.0692111C-3.61168 0.173491 -3.62616 0.47439 -3.63819 0.79123C-3.66291 1.44234 -3.68423 2.35532 -3.70182 3.45048C-3.73714 5.64955 -3.75879 8.67198 -3.75879 12H4.24121ZM0.433954 4C-1.78336 4 -2.82272 2.32966 -2.93936 2.14568C-3.2118 1.71596 -3.33362 1.3364 -3.36928 1.22387C-3.45881 0.941316 -3.49226 0.718224 -3.49723 0.686825C-3.51608 0.567659 -3.51927 0.501641 -3.51494 0.556806C-3.50889 0.633805 -3.49917 0.804416 -3.48814 1.09481C-3.46675 1.65816 -3.44653 2.50254 -3.42924 3.57896C-3.3948 5.72303 -3.3733 8.7006 -3.3733 12H4.6267C4.6267 8.67198 4.60505 5.64955 4.56973 3.45048C4.55214 2.35532 4.53082 1.44234 4.5061 0.79123C4.49407 0.47439 4.47958 0.173491 4.46053 -0.0692111C4.45232 -0.173897 4.43636 -0.361814 4.40455 -0.562916C4.39311 -0.635282 4.35313 -0.889353 4.25702 -1.19264C4.21808 -1.31554 4.09296 -1.7029 3.81722 -2.13784C3.69727 -2.32704 2.6546 -4 0.433954 -4V4Z" fill="#393D46" mask="url(#path-3-inside-2_12345_273992)"/>
</svg>
