<svg width="1" height="24" viewBox="0 0 1 24" fill="none" xmlns="http://www.w3.org/2000/svg">
<mask id="path-1-inside-1_12345_272752" fill="white">
<ellipse cx="0.146998" cy="12" rx="0.146998" ry="12"/>
</mask>
<ellipse cx="0.146998" cy="12" rx="0.146998" ry="12" fill="white"/>
<path d="M-0.706005 12C-0.706005 15.311 -0.722447 18.3067 -0.748984 20.473C-0.762263 21.557 -0.778021 22.4292 -0.795365 23.028C-0.804085 23.3291 -0.81297 23.5524 -0.82159 23.6964C-0.826095 23.7717 -0.829563 23.8082 -0.830776 23.8183C-0.832094 23.8292 -0.829106 23.7977 -0.817458 23.7495C-0.813566 23.7334 -0.795075 23.6551 -0.749495 23.5608C-0.728001 23.5163 -0.673851 23.4113 -0.569937 23.3038C-0.465576 23.1959 -0.223604 23 0.146998 23V25C0.518868 25 0.762106 24.8034 0.867732 24.6942C0.972911 24.5854 1.02832 24.4784 1.05108 24.4314C1.09918 24.3319 1.12019 24.2458 1.12658 24.2193C1.14324 24.1503 1.15121 24.0878 1.15483 24.0578C1.1635 23.9859 1.16977 23.9006 1.17484 23.816C1.18535 23.6403 1.19493 23.3921 1.2038 23.0859C1.22163 22.4703 1.23754 21.5851 1.25087 20.4975C1.27753 18.3207 1.294 15.3164 1.294 12H-0.706005ZM0.146998 23C0.5176 23 0.759571 23.1959 0.863932 23.3038C0.967847 23.4113 1.022 23.5163 1.04349 23.5608C1.08907 23.6551 1.10756 23.7334 1.11145 23.7495C1.1231 23.7977 1.12609 23.8292 1.12477 23.8183C1.12356 23.8082 1.12009 23.7717 1.11559 23.6964C1.10696 23.5524 1.09808 23.3291 1.08936 23.028C1.07202 22.4292 1.05626 21.557 1.04298 20.473C1.01644 18.3067 1 15.311 1 12H-1C-1 15.3164 -0.983536 18.3207 -0.95687 20.4975C-0.943548 21.5851 -0.92763 22.4703 -0.909801 23.0859C-0.900935 23.3921 -0.891358 23.6403 -0.88084 23.816C-0.875776 23.9006 -0.869506 23.9859 -0.860836 24.0578C-0.857212 24.0878 -0.849246 24.1503 -0.832587 24.2193C-0.82619 24.2458 -0.805185 24.3319 -0.757083 24.4314C-0.734328 24.4784 -0.678916 24.5854 -0.573737 24.6942C-0.468111 24.8034 -0.224873 25 0.146998 25V23ZM1 12C1 8.68902 1.01644 5.6933 1.04298 3.52697C1.05626 2.44297 1.07202 1.57083 1.08936 0.971969C1.09808 0.670867 1.10696 0.447559 1.11559 0.303554C1.12009 0.228299 1.12356 0.191764 1.12477 0.181708C1.12609 0.170783 1.1231 0.202311 1.11145 0.250513C1.10756 0.266616 1.08907 0.344948 1.04349 0.439217C1.022 0.483671 0.967847 0.588713 0.863932 0.696163C0.759571 0.804075 0.5176 1 0.146998 1V-1C-0.224873 -1 -0.468111 -0.803419 -0.573737 -0.6942C-0.678916 -0.585442 -0.734328 -0.47844 -0.757083 -0.431378C-0.805185 -0.331894 -0.82619 -0.245755 -0.832587 -0.219285C-0.849246 -0.150347 -0.857212 -0.0878415 -0.860836 -0.0577991C-0.869506 0.0140817 -0.875776 0.0994451 -0.88084 0.184041C-0.891358 0.359737 -0.900935 0.607939 -0.909801 0.91407C-0.92763 1.52968 -0.943548 2.4149 -0.95687 3.50247C-0.983536 5.67929 -1 8.68356 -1 12H1ZM0.146998 1C-0.223604 1 -0.465576 0.804075 -0.569937 0.696163C-0.673851 0.588713 -0.728001 0.483671 -0.749495 0.439217C-0.795075 0.344948 -0.813566 0.266616 -0.817458 0.250513C-0.829106 0.202311 -0.832094 0.170783 -0.830776 0.181708C-0.829563 0.191764 -0.826095 0.228299 -0.82159 0.303554C-0.81297 0.447559 -0.804085 0.670867 -0.795365 0.971969C-0.778021 1.57083 -0.762263 2.44297 -0.748984 3.52697C-0.722447 5.6933 -0.706005 8.68902 -0.706005 12H1.294C1.294 8.68356 1.27753 5.67929 1.25087 3.50247C1.23754 2.4149 1.22163 1.52968 1.2038 0.91407C1.19493 0.607939 1.18535 0.359737 1.17484 0.184041C1.16977 0.0994451 1.1635 0.0140817 1.15483 -0.0577991C1.15121 -0.0878415 1.14324 -0.150347 1.12658 -0.219285C1.12019 -0.245755 1.09918 -0.331894 1.05108 -0.431378C1.02832 -0.47844 0.972911 -0.585442 0.867732 -0.6942C0.762106 -0.803419 0.518868 -1 0.146998 -1V1Z" fill="#393D46" mask="url(#path-1-inside-1_12345_272752)"/>
<mask id="path-3-inside-2_12345_272752" fill="white">
<ellipse cx="0.330836" cy="12" rx="0.146998" ry="12"/>
</mask>
<ellipse cx="0.330836" cy="12" rx="0.146998" ry="12" fill="white"/>
<path d="M-3.52217 12C-3.52217 15.3028 -3.53858 18.2857 -3.56492 20.4363C-3.57813 21.5149 -3.59365 22.3674 -3.61027 22.9412C-3.61877 23.2347 -3.62662 23.4207 -3.63239 23.5172C-3.63606 23.5784 -3.63532 23.5417 -3.62535 23.459C-3.62321 23.4413 -3.60379 23.2687 -3.54968 23.0448C-3.53036 22.9648 -3.45262 22.6398 -3.26652 22.2549C-3.17865 22.0732 -2.96016 21.6501 -2.5426 21.2183C-2.12326 20.7847 -1.15347 20 0.330836 20V28C1.81641 28 2.78747 27.2147 3.20807 26.7797C3.62689 26.3467 3.84665 25.9216 3.93578 25.7373C4.1244 25.3472 4.20465 25.0143 4.22648 24.924C4.2856 24.6793 4.31 24.4758 4.31708 24.4171C4.33694 24.2524 4.34741 24.0938 4.35331 23.9952C4.36668 23.772 4.37729 23.4865 4.38638 23.1728C4.40493 22.5321 4.42109 21.6272 4.43448 20.5343C4.46134 18.3417 4.47783 15.3246 4.47783 12H-3.52217ZM0.330836 20C1.81515 20 2.78493 20.7847 3.20427 21.2183C3.62183 21.6501 3.84032 22.0732 3.92819 22.2549C4.11429 22.6398 4.19203 22.9648 4.21135 23.0448C4.26546 23.2687 4.28488 23.4413 4.28702 23.459C4.29699 23.5417 4.29773 23.5784 4.29406 23.5172C4.28829 23.4207 4.28044 23.2347 4.27194 22.9412C4.25532 22.3674 4.23981 21.5149 4.22659 20.4363C4.20025 18.2857 4.18384 15.3028 4.18384 12H-3.81616C-3.81616 15.3246 -3.79967 18.3417 -3.77281 20.5343C-3.75942 21.6272 -3.74326 22.5321 -3.72471 23.1728C-3.71562 23.4865 -3.705 23.772 -3.69164 23.9952C-3.68574 24.0938 -3.67527 24.2524 -3.65541 24.4171C-3.64833 24.4758 -3.62393 24.6793 -3.56481 24.924C-3.54298 25.0143 -3.46273 25.3472 -3.27411 25.7373C-3.18498 25.9216 -2.96522 26.3467 -2.5464 26.7797C-2.1258 27.2147 -1.15474 28 0.330836 28V20ZM4.18384 12C4.18384 8.6972 4.20025 5.71431 4.22659 3.56371C4.23981 2.48507 4.25532 1.63256 4.27194 1.05882C4.28044 0.76526 4.28829 0.579291 4.29406 0.482823C4.29773 0.421579 4.29699 0.458286 4.28702 0.54097C4.28488 0.558719 4.26546 0.731299 4.21135 0.95521C4.19203 1.03517 4.11429 1.36021 3.92819 1.74511C3.84032 1.92684 3.62183 2.34994 3.20427 2.78171C2.78493 3.21532 1.81515 4 0.330836 4V-4C-1.15474 -4 -2.1258 -3.21466 -2.5464 -2.77974C-2.96522 -2.34667 -3.18498 -1.92161 -3.27411 -1.73727C-3.46273 -1.34716 -3.54298 -1.01431 -3.56481 -0.923982C-3.62393 -0.679335 -3.64833 -0.475778 -3.65541 -0.41706C-3.67527 -0.252441 -3.68574 -0.0938354 -3.69164 0.00477197C-3.705 0.228005 -3.71562 0.513546 -3.72471 0.827221C-3.74326 1.46794 -3.75942 2.3728 -3.77281 3.46572C-3.79967 5.65827 -3.81616 8.67538 -3.81616 12H4.18384ZM0.330836 4C-1.15347 4 -2.12326 3.21532 -2.5426 2.78171C-2.96016 2.34994 -3.17865 1.92684 -3.26652 1.74511C-3.45262 1.36021 -3.53036 1.03517 -3.54968 0.95521C-3.60379 0.731299 -3.62321 0.558719 -3.62535 0.54097C-3.63532 0.458286 -3.63606 0.421579 -3.63239 0.482823C-3.62662 0.579291 -3.61877 0.76526 -3.61027 1.05882C-3.59365 1.63256 -3.57813 2.48507 -3.56492 3.56371C-3.53858 5.71431 -3.52217 8.6972 -3.52217 12H4.47783C4.47783 8.67538 4.46134 5.65827 4.43448 3.46572C4.42109 2.3728 4.40493 1.46794 4.38638 0.827221C4.37729 0.513546 4.36668 0.228005 4.35331 0.00477197C4.34741 -0.0938354 4.33694 -0.252441 4.31708 -0.41706C4.31 -0.475778 4.2856 -0.679335 4.22648 -0.923982C4.20465 -1.01431 4.1244 -1.34716 3.93578 -1.73727C3.84665 -1.92161 3.62689 -2.34667 3.20807 -2.77974C2.78747 -3.21466 1.81641 -4 0.330836 -4V4Z" fill="#393D46" mask="url(#path-3-inside-2_12345_272752)"/>
</svg>
