<svg width="32" height="32" viewBox="0 0 32 32" fill="none" xmlns="http://www.w3.org/2000/svg">
<path d="M24.9827 9.79333C24.8746 9.52336 24.7091 9.2802 24.4974 9.08078C24.2858 8.88136 24.0332 8.73048 23.7573 8.63867L20.6067 7.588L19.7653 5.90533C19.6 5.57241 19.3448 5.29242 19.0286 5.09707C18.7123 4.90171 18.3477 4.79881 17.976 4.8H14.2907C13.919 4.79881 13.5544 4.90171 13.2382 5.09707C12.9219 5.29242 12.6667 5.57241 12.5014 5.90533L11.6601 7.588L8.50939 8.63867C8.23349 8.73048 7.98092 8.88136 7.7693 9.08078C7.55768 9.2802 7.39208 9.52336 7.28406 9.79333L5.03872 15.408C4.88032 15.8017 4.79929 16.2223 4.80005 16.6467V24.8C4.80005 25.1536 4.94053 25.4928 5.19058 25.7428C5.44063 25.9929 5.77977 26.1333 6.13339 26.1333H7.46672C7.82034 26.1333 8.15948 25.9929 8.40953 25.7428C8.65958 25.4928 8.80006 25.1536 8.80006 24.8V22.8987L9.46672 20.6747V22.1707C9.50604 22.9223 9.73542 23.6518 10.1334 24.2907V26.1333C10.1334 26.487 10.2739 26.8261 10.5239 27.0761C10.774 27.3262 11.1131 27.4667 11.4667 27.4667H20.8C21.1536 27.4667 21.4928 27.3262 21.7428 27.0761C21.9929 26.8261 22.1333 26.487 22.1333 26.1333V24.2907C22.5314 23.6518 22.7607 22.9224 22.8 22.1707V20.6747L23.4667 22.8987V24.8C23.4667 25.1536 23.6071 25.4928 23.8572 25.7428C24.1072 25.9929 24.4464 26.1333 24.8 26.1333H26.1333C26.487 26.1333 26.8261 25.9929 27.0761 25.7428C27.3262 25.4928 27.4667 25.1536 27.4667 24.8V16.6467C27.4676 16.2227 27.3865 15.8026 27.228 15.4093L24.9827 9.79333ZM23.452 9.97333C22.7409 11.0426 22.0897 12.1505 21.5013 13.292C21.4307 13.5587 21.4907 13.2493 21.4667 20.8C20.9362 20.8 20.4275 20.5893 20.0525 20.2142C19.6774 19.8391 19.4667 19.3304 19.4667 18.8C19.4667 18.6232 19.3964 18.4536 19.2714 18.3286C19.1464 18.2036 18.9768 18.1333 18.8 18.1333C18.6232 18.1333 18.4536 18.2036 18.3286 18.3286C18.2036 18.4536 18.1333 18.6232 18.1333 18.8C18.1333 19.6841 18.4845 20.5319 19.1096 21.157C19.7348 21.7821 20.5826 22.1333 21.4667 22.1333V22.1707C21.439 22.6302 21.2974 23.0755 21.0547 23.4667H16.8V11.1573L20.232 8.86933C24.04 10.164 23.1867 9.81866 23.452 9.97333ZM13.3334 7.23467L14.1587 8.67866L12.9987 7.90533L13.3334 7.23467ZM18.944 7.23467L19.2787 7.90133L18.1187 8.67467L18.944 7.23467ZM18.0293 6.14667L16.1333 9.456L14.2427 6.14667C14.5134 6.13333 17.752 6.13333 18.024 6.14667H18.0293ZM12.0347 8.86933L15.4667 11.1573V23.4667H11.2121C10.9673 23.0765 10.8255 22.6306 10.8001 22.1707V22.1333C11.6841 22.1333 12.532 21.7821 13.1571 21.157C13.7822 20.5319 14.1334 19.6841 14.1334 18.8C14.1334 18.6232 14.0631 18.4536 13.9381 18.3286C13.8131 18.2036 13.6435 18.1333 13.4667 18.1333C13.2899 18.1333 13.1203 18.2036 12.9953 18.3286C12.8703 18.4536 12.8001 18.6232 12.8001 18.8C12.8001 19.3304 12.5893 19.8391 12.2143 20.2142C11.8392 20.5893 11.3305 20.8 10.8001 20.8C10.7761 13.2507 10.8361 13.552 10.7654 13.292C10.1775 12.1503 9.52622 11.0424 8.81472 9.97333C9.01872 9.85333 10.6747 9.33333 12.0347 8.86933ZM6.13339 24.8V23.4667H7.46672V24.8H6.13339ZM9.38272 16.3173L7.63739 22.1333H6.13339V16.6467C6.13328 16.3923 6.1817 16.1402 6.27606 15.904L8.09339 11.3627L9.46672 13.6507V15.7427C9.46683 15.9373 9.43853 16.1309 9.38272 16.3173ZM11.4667 26.1333V24.8H20.8V26.1333H11.4667ZM22.8 15.7427V13.6507L24.1733 11.3627L25.9907 15.9053C26.0854 16.141 26.1337 16.3927 26.1333 16.6467V22.1333H24.6293L22.884 16.316C22.8281 16.13 22.7998 15.9369 22.8 15.7427ZM24.8 24.8V23.4667H26.1333V24.8H24.8Z" fill="#9F9F9F"/>
</svg>
