<svg width="56" height="56" viewBox="0 0 56 56" fill="none" xmlns="http://www.w3.org/2000/svg">
<path d="M43.7198 17.1383C43.5307 16.6659 43.2409 16.2403 42.8706 15.8913C42.5003 15.5424 42.0583 15.2783 41.5754 15.1176L36.0618 13.279L34.5894 10.3343C34.3001 9.75169 33.8535 9.26171 33.3001 8.91985C32.7467 8.57799 32.1086 8.3979 31.4581 8.39998H25.0088C24.3583 8.3979 23.7202 8.57799 23.1668 8.91985C22.6134 9.26171 22.1667 9.75169 21.8774 10.3343L20.4051 13.279L14.8915 15.1176C14.4087 15.2783 13.9667 15.5424 13.5963 15.8913C13.226 16.2403 12.9362 16.6659 12.7472 17.1383L8.81782 26.964C8.54062 27.653 8.39881 28.389 8.40016 29.1317V43.4C8.40016 44.0188 8.64599 44.6123 9.08357 45.0499C9.52116 45.4875 10.1146 45.7333 10.7335 45.7333H13.0668C13.6857 45.7333 14.2792 45.4875 14.7167 45.0499C15.1543 44.6123 15.4002 44.0188 15.4002 43.4V40.0727L16.5668 36.1807V38.7987C16.6356 40.1141 17.037 41.3906 17.7335 42.5087V45.7333C17.7335 46.3522 17.9793 46.9457 18.4169 47.3832C18.8544 47.8208 19.4479 48.0667 20.0668 48.0667H36.4001C37.0189 48.0667 37.6124 47.8208 38.05 47.3832C38.4876 46.9457 38.7334 46.3522 38.7334 45.7333V42.5087C39.43 41.3906 39.8314 40.1141 39.9001 38.7987V36.1807L41.0668 40.0727V43.4C41.0668 44.0188 41.3126 44.6123 41.7502 45.0499C42.1878 45.4875 42.7813 45.7333 43.4001 45.7333H45.7334C46.3523 45.7333 46.9458 45.4875 47.3834 45.0499C47.8209 44.6123 48.0668 44.0188 48.0668 43.4V29.1317C48.0683 28.3897 47.9265 27.6545 47.6491 26.9663L43.7198 17.1383ZM41.0411 17.4533C39.7967 19.3246 38.6571 21.2635 37.6274 23.261C37.5038 23.7277 37.6088 23.1863 37.5668 36.4C36.6385 36.4 35.7483 36.0313 35.0919 35.3749C34.4355 34.7185 34.0668 33.8283 34.0668 32.9C34.0668 32.5906 33.9439 32.2938 33.7251 32.075C33.5063 31.8563 33.2095 31.7333 32.9001 31.7333C32.5907 31.7333 32.2939 31.8563 32.0752 32.075C31.8564 32.2938 31.7334 32.5906 31.7334 32.9C31.7334 34.4471 32.348 35.9308 33.442 37.0248C34.536 38.1188 36.0197 38.7333 37.5668 38.7333V38.7987C37.5183 39.6028 37.2705 40.3822 36.8458 41.0667H29.4001V19.5253L35.4061 15.5213C42.0701 17.787 40.5768 17.1826 41.0411 17.4533ZM23.3334 12.6606L24.7778 15.1876L22.7478 13.8343L23.3334 12.6606ZM33.1521 12.6606L33.7378 13.8273L31.7078 15.1806L33.1521 12.6606ZM31.5514 10.7566L28.2334 16.548L24.9248 10.7566C25.3984 10.7333 31.0661 10.7333 31.5421 10.7566H31.5514ZM21.0608 15.5213L27.0668 19.5253V41.0667H19.6211C19.1928 40.3838 18.9447 39.6035 18.9001 38.7987V38.7333C20.4472 38.7333 21.9309 38.1188 23.0249 37.0248C24.1189 35.9308 24.7334 34.4471 24.7334 32.9C24.7334 32.5906 24.6105 32.2938 24.3917 32.075C24.1729 31.8563 23.8762 31.7333 23.5668 31.7333C23.2574 31.7333 22.9606 31.8563 22.7418 32.075C22.523 32.2938 22.4001 32.5906 22.4001 32.9C22.4001 33.8283 22.0314 34.7185 21.375 35.3749C20.7186 36.0313 19.8284 36.4 18.9001 36.4C18.8581 23.1887 18.9631 23.716 18.8394 23.261C17.8106 21.2631 16.6709 19.3242 15.4258 17.4533C15.7828 17.2433 18.6808 16.3333 21.0608 15.5213ZM10.7335 43.4V41.0667H13.0668V43.4H10.7335ZM16.4198 28.5553L13.3655 38.7333H10.7335V29.1317C10.7333 28.6865 10.818 28.2454 10.9832 27.832L14.1635 19.8847L16.5668 23.8887V27.5497C16.567 27.8903 16.5175 28.2291 16.4198 28.5553ZM20.0668 45.7333V43.4H36.4001V45.7333H20.0668ZM39.9001 27.5497V23.8887L42.3034 19.8847L45.4838 27.8343C45.6494 28.2468 45.7341 28.6872 45.7334 29.1317V38.7333H43.1014L40.0471 28.553C39.9492 28.2276 39.8997 27.8895 39.9001 27.5497ZM43.4001 43.4V41.0667H45.7334V43.4H43.4001Z" fill="#393D46"/>
</svg>
