<svg width="1" height="24" viewBox="0 0 1 24" fill="none" xmlns="http://www.w3.org/2000/svg">
<mask id="path-1-inside-1_12345_271639" fill="white">
<ellipse cx="0.0850794" cy="12" rx="0.0850794" ry="12"/>
</mask>
<ellipse cx="0.0850794" cy="12" rx="0.0850794" ry="12" fill="white"/>
<path d="M-0.829841 12C-0.829841 15.3121 -0.83936 18.3097 -0.854735 20.4782C-0.862426 21.5629 -0.871566 22.4378 -0.881663 23.0402C-0.886728 23.3424 -0.891955 23.5709 -0.897174 23.7216C-0.899851 23.7988 -0.902197 23.8455 -0.903794 23.8684C-0.904852 23.8836 -0.904413 23.871 -0.900902 23.8459C-0.90006 23.8398 -0.893531 23.7902 -0.875727 23.7266C-0.868995 23.7025 -0.844078 23.6136 -0.786425 23.5106C-0.757935 23.4597 -0.694428 23.3557 -0.580557 23.254C-0.460806 23.147 -0.233911 23 0.0850794 23V25C0.404437 25 0.631698 24.8528 0.751816 24.7455C0.866053 24.6435 0.929927 24.539 0.958783 24.4874C1.01717 24.3831 1.04282 24.2922 1.05028 24.2656C1.06954 24.1967 1.07753 24.1393 1.07982 24.1229C1.08623 24.0771 1.08955 24.0335 1.09135 24.0077C1.09547 23.9486 1.09876 23.8734 1.10163 23.7908C1.10748 23.6218 1.11294 23.3788 1.11806 23.0737C1.12832 22.4617 1.13751 21.5792 1.14521 20.4924C1.16063 18.3178 1.17016 15.3153 1.17016 12H-0.829841ZM0.0850794 23C0.40407 23 0.630964 23.147 0.750716 23.254C0.864586 23.3557 0.928094 23.4597 0.956584 23.5106C1.01424 23.6136 1.03915 23.7025 1.04589 23.7266C1.06369 23.7902 1.07022 23.8398 1.07106 23.8459C1.07457 23.871 1.07501 23.8836 1.07395 23.8684C1.07236 23.8455 1.07001 23.7988 1.06733 23.7216C1.06211 23.5709 1.05689 23.3424 1.05182 23.0402C1.04172 22.4378 1.03258 21.5629 1.02489 20.4782C1.00952 18.3097 1 15.3121 1 12H-1C-1 15.3153 -0.990474 18.3178 -0.975056 20.4924C-0.96735 21.5792 -0.958157 22.4617 -0.947897 23.0737C-0.942783 23.3788 -0.937324 23.6218 -0.931467 23.7908C-0.928605 23.8734 -0.925315 23.9486 -0.921191 24.0077C-0.919389 24.0335 -0.91607 24.0771 -0.909658 24.1229C-0.907366 24.1393 -0.899383 24.1967 -0.880119 24.2656C-0.872657 24.2922 -0.847009 24.3831 -0.788624 24.4874C-0.759768 24.539 -0.695895 24.6435 -0.581657 24.7455C-0.46154 24.8528 -0.234278 25 0.0850794 25V23ZM1 12C1 8.68787 1.00952 5.69035 1.02489 3.52181C1.03258 2.43705 1.04172 1.56216 1.05182 0.95978C1.05689 0.657615 1.06211 0.429078 1.06733 0.278424C1.07001 0.201174 1.07236 0.154467 1.07395 0.131599C1.07501 0.116443 1.07457 0.12903 1.07106 0.154135C1.07022 0.160155 1.06369 0.209791 1.04589 0.273412C1.03915 0.297468 1.01424 0.38641 0.956584 0.48941C0.928094 0.540309 0.864586 0.644314 0.750716 0.746031C0.630964 0.853001 0.40407 1 0.0850794 1V-1C-0.234278 -1 -0.46154 -0.852837 -0.581657 -0.74554C-0.695895 -0.643495 -0.759768 -0.539 -0.788624 -0.487446C-0.847009 -0.383139 -0.872657 -0.292237 -0.880119 -0.265573C-0.899383 -0.196737 -0.907366 -0.139294 -0.909658 -0.122906C-0.91607 -0.0770661 -0.919389 -0.0335018 -0.921191 -0.00768941C-0.925315 0.0513784 -0.928605 0.12657 -0.931467 0.20917C-0.937324 0.378219 -0.942783 0.621191 -0.947897 0.926259C-0.958157 1.53834 -0.96735 2.42081 -0.975056 3.50763C-0.990474 5.68224 -1 8.68471 -1 12H1ZM0.0850794 1C-0.233911 1 -0.460806 0.853001 -0.580557 0.746031C-0.694428 0.644314 -0.757935 0.540309 -0.786425 0.48941C-0.844078 0.38641 -0.868995 0.297468 -0.875727 0.273412C-0.893531 0.209791 -0.90006 0.160155 -0.900902 0.154135C-0.904413 0.12903 -0.904852 0.116443 -0.903794 0.131599C-0.902197 0.154467 -0.899851 0.201174 -0.897174 0.278424C-0.891955 0.429078 -0.886728 0.657615 -0.881663 0.95978C-0.871566 1.56216 -0.862426 2.43705 -0.854735 3.52181C-0.83936 5.69035 -0.829841 8.68787 -0.829841 12H1.17016C1.17016 8.68471 1.16063 5.68224 1.14521 3.50763C1.13751 2.42081 1.12832 1.53834 1.11806 0.926259C1.11294 0.621191 1.10748 0.378219 1.10163 0.20917C1.09876 0.12657 1.09547 0.0513784 1.09135 -0.00768941C1.08955 -0.0335018 1.08623 -0.0770661 1.07982 -0.122906C1.07753 -0.139294 1.06954 -0.196737 1.05028 -0.265573C1.04282 -0.292237 1.01717 -0.383139 0.958783 -0.487446C0.929927 -0.539 0.866053 -0.643495 0.751816 -0.74554C0.631698 -0.852837 0.404437 -1 0.0850794 -1V1Z" fill="#393D46" mask="url(#path-1-inside-1_12345_271639)"/>
<mask id="path-3-inside-2_12345_271639" fill="white">
<ellipse cx="0.191433" cy="12" rx="0.0850794" ry="12"/>
</mask>
<ellipse cx="0.191433" cy="12" rx="0.0850794" ry="12" fill="white"/>
<path d="M-3.72349 12C-3.72349 15.3074 -3.733 18.2975 -3.74831 20.4569C-3.75598 21.5386 -3.76503 22.4021 -3.77489 22.9899C-3.77988 23.2877 -3.78476 23.4946 -3.78902 23.6177C-3.79142 23.6869 -3.79235 23.6909 -3.79016 23.6595C-3.7901 23.6586 -3.78402 23.5618 -3.76563 23.4303C-3.76008 23.3907 -3.73179 23.1804 -3.65838 22.9181C-3.63036 22.818 -3.52959 22.4593 -3.29788 22.0453C-3.18337 21.8407 -2.9288 21.424 -2.47276 21.0166C-1.99321 20.5882 -1.08508 20 0.191433 20V28C1.46831 28 2.37681 27.4116 2.85673 26.9829C3.31313 26.5752 3.56807 26.158 3.68295 25.9527C3.91539 25.5375 4.01689 25.1768 4.04564 25.0741C4.1205 24.8065 4.15026 24.5885 4.15725 24.5385C4.17855 24.3862 4.1875 24.2584 4.19042 24.2166C4.19833 24.1033 4.20304 23.9853 4.20618 23.8947C4.21299 23.6981 4.2188 23.4334 4.22399 23.124C4.23449 22.4974 4.24377 21.6036 4.25149 20.5136C4.26698 18.3299 4.27651 15.32 4.27651 12H-3.72349ZM0.191433 20C1.46794 20 2.37607 20.5882 2.85563 21.0166C3.31166 21.424 3.56624 21.8407 3.68075 22.0453C3.91246 22.4593 4.01322 22.818 4.04125 22.9181C4.11465 23.1804 4.14295 23.3907 4.14849 23.4303C4.16689 23.5618 4.17296 23.6586 4.17302 23.6595C4.17522 23.6909 4.17429 23.6869 4.17189 23.6177C4.16762 23.4946 4.16275 23.2877 4.15775 22.9899C4.1479 22.4021 4.13884 21.5386 4.13117 20.4569C4.11586 18.2975 4.10635 15.3074 4.10635 12H-3.89365C-3.89365 15.32 -3.88411 18.3299 -3.86863 20.5136C-3.8609 21.6036 -3.85163 22.4974 -3.84112 23.124C-3.83593 23.4334 -3.83013 23.6981 -3.82331 23.8947C-3.82017 23.9853 -3.81547 24.1033 -3.80755 24.2166C-3.80464 24.2584 -3.79568 24.3862 -3.77438 24.5385C-3.76739 24.5885 -3.73764 24.8065 -3.66277 25.0741C-3.63402 25.1768 -3.53252 25.5375 -3.30008 25.9527C-3.18521 26.158 -2.93026 26.5752 -2.47386 26.9829C-1.99394 27.4116 -1.08544 28 0.191433 28V20ZM4.10635 12C4.10635 8.69261 4.11586 5.70251 4.13117 3.54308C4.13884 2.46142 4.1479 1.5979 4.15775 1.01006C4.16275 0.712251 4.16762 0.505366 4.17189 0.382305C4.17429 0.313081 4.17522 0.3091 4.17302 0.340531C4.17296 0.341361 4.16689 0.438174 4.14849 0.569695C4.14295 0.609327 4.11465 0.819582 4.04125 1.08189C4.01322 1.18203 3.91246 1.54073 3.68075 1.95469C3.56624 2.15927 3.31166 2.57603 2.85563 2.98339C2.37607 3.41176 1.46794 4 0.191433 4V-4C-1.08544 -4 -1.99394 -3.41159 -2.47386 -2.9829C-2.93026 -2.57521 -3.18521 -2.15796 -3.30008 -1.95273C-3.53252 -1.53746 -3.63402 -1.1768 -3.66277 -1.07405C-3.73764 -0.806528 -3.76739 -0.588466 -3.77438 -0.538466C-3.79568 -0.38621 -3.80464 -0.258419 -3.80755 -0.216622C-3.81547 -0.103254 -3.82017 0.0146631 -3.82331 0.10529C-3.83013 0.30193 -3.83593 0.566555 -3.84112 0.875979C-3.85163 1.50261 -3.8609 2.39644 -3.86863 3.48636C-3.88411 5.67007 -3.89365 8.67998 -3.89365 12H4.10635ZM0.191433 4C-1.08508 4 -1.99321 3.41176 -2.47276 2.98339C-2.9288 2.57603 -3.18337 2.15927 -3.29788 1.95469C-3.52959 1.54073 -3.63036 1.18203 -3.65838 1.08189C-3.73179 0.819582 -3.76008 0.609327 -3.76563 0.569695C-3.78402 0.438174 -3.7901 0.341361 -3.79016 0.340531C-3.79235 0.3091 -3.79142 0.313081 -3.78902 0.382305C-3.78476 0.505366 -3.77988 0.712251 -3.77489 1.01006C-3.76503 1.5979 -3.75598 2.46142 -3.74831 3.54308C-3.733 5.70251 -3.72349 8.69261 -3.72349 12H4.27651C4.27651 8.67998 4.26698 5.67007 4.25149 3.48636C4.24377 2.39644 4.23449 1.50261 4.22399 0.875979C4.2188 0.566555 4.21299 0.30193 4.20618 0.10529C4.20304 0.0146631 4.19833 -0.103254 4.19042 -0.216622C4.1875 -0.258419 4.17855 -0.38621 4.15725 -0.538466C4.15026 -0.588466 4.1205 -0.806528 4.04564 -1.07405C4.01689 -1.1768 3.91539 -1.53746 3.68295 -1.95273C3.56807 -2.15796 3.31313 -2.57521 2.85673 -2.9829C2.37681 -3.41159 1.46831 -4 0.191433 -4V4Z" fill="#393D46" mask="url(#path-3-inside-2_12345_271639)"/>
</svg>
