<svg width="32" height="32" viewBox="0 0 32 32" fill="none" xmlns="http://www.w3.org/2000/svg">
<path d="M20.6667 4.66669H11.2534C10.9136 4.66604 10.5865 4.79511 10.3386 5.02755C10.0908 5.25999 9.94113 5.57825 9.92006 5.91736L8.6694 25.9174C8.65791 26.0994 8.68388 26.2819 8.74573 26.4534C8.80757 26.625 8.90396 26.7821 9.02893 26.915C9.15391 27.0478 9.30481 27.1536 9.47231 27.2258C9.63981 27.298 9.82034 27.3351 10.0027 27.3347H12.7294C13.045 27.3346 13.3503 27.2225 13.5911 27.0184C13.8318 26.8143 13.9923 26.5314 14.0441 26.22L15.9601 14.7227L17.8761 26.22C17.9281 26.5311 18.0887 26.8137 18.3294 27.0175C18.5701 27.2214 18.8753 27.3333 19.1907 27.3334H21.9173C22.0996 27.3337 22.28 27.2967 22.4474 27.2246C22.6148 27.1525 22.7657 27.0468 22.8906 26.9141C23.0156 26.7814 23.112 26.6245 23.1739 26.453C23.2359 26.2816 23.262 26.0993 23.2507 25.9174L22 5.91736C21.9789 5.57825 21.8292 5.25999 21.5814 5.02755C21.3336 4.79511 21.0064 4.66604 20.6667 4.66669ZM20.6667 6.00003L20.8133 8.34803C20.3598 8.14585 19.9748 7.81636 19.705 7.39955C19.4352 6.98274 19.2922 6.49655 19.2933 6.00003H20.6667ZM12.6267 6.00003C12.6278 6.49651 12.4847 6.98263 12.2149 7.39941C11.9451 7.81619 11.5601 8.14572 11.1067 8.34803L11.2534 6.00003H12.6267ZM19.1907 26L16.6174 10.5574C16.5911 10.402 16.5107 10.261 16.3904 10.1593C16.27 10.0576 16.1176 10.0019 15.9601 10.0019C15.8025 10.0019 15.6501 10.0576 15.5297 10.1593C15.4094 10.261 15.329 10.402 15.3027 10.5574L12.7294 26H10.0027L11.0107 9.88669C11.838 9.61361 12.5629 9.09582 13.0895 8.40181C13.6162 7.70781 13.9197 6.87029 13.9601 6.00003H15.2934V8.00003C15.2934 8.17684 15.3636 8.34641 15.4887 8.47143C15.6137 8.59645 15.7832 8.66669 15.9601 8.66669C16.1369 8.66669 16.3064 8.59645 16.4315 8.47143C16.5565 8.34641 16.6267 8.17684 16.6267 8.00003V6.00003H17.9601C18.0004 6.87029 18.3039 7.70781 18.8305 8.40181C19.3572 9.09582 20.0821 9.61361 20.9093 9.88669L21.9173 26H19.1907Z" fill="#9F9F9F"/>
</svg>
