<svg width="32" height="32" viewBox="0 0 32 32" fill="none" xmlns="http://www.w3.org/2000/svg">
<path d="M26.0006 9.37414H19.0793C18.8407 9.37444 18.6066 9.43914 18.4017 9.5614C18.1968 9.68367 18.0288 9.85897 17.9153 10.0688C17.8246 9.67498 17.6457 9.3069 17.392 8.99237C17.1383 8.67783 16.8164 8.42508 16.4506 8.25321C16.0849 8.08133 15.6849 7.99483 15.2808 8.00024C14.8767 8.00565 14.4792 8.10282 14.1182 8.28442C13.7572 8.46601 13.4421 8.72729 13.1969 9.0485C12.9517 9.3697 12.7827 9.74244 12.7027 10.1386C12.6226 10.5347 12.6337 10.9438 12.735 11.335C12.8362 11.7262 13.0251 12.0893 13.2873 12.3968C13.1273 12.4301 12.2006 12.6435 11.8393 12.7275C11.6714 12.7735 11.5281 12.8835 11.4402 13.0338C11.3522 13.1841 11.3266 13.3628 11.3688 13.5318C11.4109 13.7007 11.5175 13.8465 11.6657 13.9379C11.814 14.0293 11.9921 14.059 12.162 14.0208C13.3225 13.6877 14.5165 13.4851 15.7219 13.4168C14.7257 14.2536 13.4656 14.7108 12.1646 14.7075C10.4459 14.7085 8.77684 15.2836 7.4222 16.3413C6.06757 17.3991 5.10501 18.879 4.6873 20.5461C4.6513 20.6915 4.6753 21.2755 4.6673 22.0408C4.6673 22.3035 4.71903 22.5635 4.81954 22.8062C4.92005 23.0488 5.06737 23.2693 5.25308 23.455C5.4388 23.6407 5.65928 23.7881 5.90193 23.8886C6.14458 23.9891 6.40466 24.0408 6.6673 24.0408H18.1153C18.645 24.0391 19.1528 23.8288 19.5286 23.4555L20.0006 22.9835L20.4726 23.4555C20.8484 23.8288 21.3562 24.0391 21.8859 24.0408H25.3339C25.8644 24.0408 26.3731 23.8301 26.7481 23.455C27.1232 23.0799 27.3339 22.5712 27.3339 22.0408V10.7075C27.3339 10.3538 27.1934 10.0147 26.9434 9.76467C26.6933 9.51462 26.3542 9.37414 26.0006 9.37414ZM15.3339 12.0408C15.0702 12.0408 14.8124 11.9626 14.5932 11.8161C14.3739 11.6696 14.203 11.4614 14.1021 11.2177C14.0012 10.9741 13.9748 10.706 14.0262 10.4474C14.0777 10.1887 14.2047 9.95114 14.3912 9.76467C14.5776 9.5782 14.8152 9.45121 15.0738 9.39976C15.3324 9.34832 15.6005 9.37472 15.8442 9.47564C16.0878 9.57655 16.296 9.74745 16.4425 9.96671C16.5891 10.186 16.6673 10.4438 16.6673 10.7075V12.0408H15.3339ZM12.1646 16.0408C12.8315 16.0398 13.4947 15.9428 14.134 15.7528C14.3618 16.02 14.6048 16.2737 14.8619 16.5128C14.9871 16.638 15.1569 16.7083 15.3339 16.7083C15.511 16.7083 15.6807 16.638 15.8059 16.5128C15.9311 16.3876 16.0014 16.2178 16.0014 16.0408C16.0014 15.8638 15.9311 15.694 15.8059 15.5688L15.4379 15.2008C15.6046 15.1101 15.7713 15.0181 15.9299 14.9128L16.8633 15.8461C16.9884 15.9713 17.1582 16.0416 17.3353 16.0416C17.5123 16.0416 17.6821 15.9713 17.8073 15.8461C17.9324 15.721 18.0028 15.5512 18.0028 15.3741C18.0028 15.1971 17.9324 15.0273 17.8073 14.9021L16.9713 14.0675C17.1046 13.9341 17.2379 13.8008 17.3526 13.6675L18.1966 14.5128C18.2586 14.5748 18.3322 14.624 18.4131 14.6575C18.4941 14.691 18.5809 14.7083 18.6686 14.7083C18.7562 14.7083 18.843 14.691 18.924 14.6575C19.005 14.624 19.0786 14.5748 19.1406 14.5128C19.2026 14.4508 19.2517 14.3772 19.2853 14.2962C19.3188 14.2153 19.3361 14.1285 19.3361 14.0408C19.3361 13.9532 19.3188 13.8663 19.2853 13.7854C19.2517 13.7044 19.2026 13.6308 19.1406 13.5688L18.1273 12.5568C18.5633 11.7875 18.6299 11.5861 19.0806 10.7075H26.0006V20.0408H6.24863C6.72153 18.8588 7.53806 17.8458 8.59269 17.1328C9.64731 16.4197 10.8916 16.0393 12.1646 16.0408ZM25.3339 22.7075H21.8859C21.4646 22.7075 21.3139 22.3621 20.9433 22.0408C20.6891 21.7987 20.3516 21.6637 20.0006 21.6637C19.6496 21.6637 19.3121 21.7987 19.0579 22.0408C18.6859 22.3635 18.5353 22.7075 18.1153 22.7075H6.6673C6.49049 22.7075 6.32092 22.6372 6.1959 22.5122C6.07087 22.3872 6.00063 22.2176 6.00063 22.0408V21.3741H26.0006V22.0408C26.0006 22.2176 25.9303 22.3872 25.8053 22.5122C25.6803 22.6372 25.5107 22.7075 25.3339 22.7075Z" fill="#9F9F9F"/>
</svg>
