<svg width="160" height="48" viewBox="0 0 160 48" fill="none" xmlns="http://www.w3.org/2000/svg">
<rect x="80" width="80" height="48" fill="white"/>
<path d="M106.501 24.1999C106.501 23.7892 106.659 23.3954 106.94 23.105C107.221 22.8146 107.603 22.6515 108.001 22.6515L128.386 22.6515L126.436 20.6541C126.153 20.3625 125.995 19.9671 125.995 19.5547C125.995 19.1424 126.153 18.7469 126.436 18.4554C126.718 18.1638 127.101 18 127.501 18C127.9 18 128.283 18.1638 128.566 18.4554L133.066 23.1005C133.274 23.3183 133.415 23.5948 133.471 23.8951C133.527 24.1955 133.496 24.5063 133.381 24.7883C133.268 25.071 133.077 25.3131 132.832 25.4839C132.586 25.6548 132.297 25.7467 132.001 25.7483L108.001 25.7483C107.603 25.7483 107.221 25.5851 106.94 25.2948C106.659 25.0044 106.501 24.6105 106.501 24.1999Z" fill="#393D46"/>
<path d="M126 28.845C125.999 28.6412 126.036 28.4392 126.111 28.2506C126.186 28.0619 126.296 27.8904 126.435 27.7457L130.935 23.1005C131.217 22.8089 131.6 22.6451 132 22.6451C132.198 22.6451 132.393 22.6854 132.576 22.7635C132.759 22.8416 132.925 22.9561 133.065 23.1005C133.205 23.2449 133.316 23.4163 133.391 23.6049C133.467 23.7935 133.506 23.9957 133.506 24.1999C133.506 24.6122 133.347 25.0077 133.065 25.2992L128.565 29.9444C128.425 30.0895 128.259 30.2047 128.077 30.2833C127.894 30.3619 127.698 30.4024 127.5 30.4024C127.302 30.4024 127.106 30.3619 126.923 30.2833C126.74 30.2047 126.574 30.0895 126.435 29.9444C126.296 29.7997 126.186 29.6281 126.111 29.4395C126.036 29.2508 125.999 29.0488 126 28.845Z" fill="#393D46"/>
<rect width="80" height="48" fill="white"/>
<path d="M53.4993 24.1999C53.4993 23.7892 53.3412 23.3954 53.0599 23.105C52.7786 22.8146 52.3971 22.6515 51.9993 22.6515L31.6142 22.6515L33.5642 20.6541C33.8467 20.3625 34.0054 19.9671 34.0054 19.5547C34.0054 19.1424 33.8467 18.7469 33.5642 18.4554C33.2818 18.1638 32.8987 18 32.4992 18C32.0998 18 31.7167 18.1638 31.4342 18.4554L26.9342 23.1005C26.7261 23.3183 26.5851 23.5948 26.529 23.8951C26.473 24.1955 26.5044 24.5063 26.6192 24.7883C26.7318 25.071 26.9229 25.3131 27.1684 25.4839C27.414 25.6548 27.7031 25.7467 27.9992 25.7483L51.9993 25.7483C52.3971 25.7483 52.7786 25.5851 53.0599 25.2948C53.3412 25.0044 53.4993 24.6105 53.4993 24.1999Z" fill="#CDCFD1"/>
<path d="M34.0003 28.845C34.0014 28.6412 33.9636 28.4392 33.8889 28.2506C33.8143 28.0619 33.7043 27.8904 33.5653 27.7457L29.0653 23.1005C28.7828 22.8089 28.3997 22.6451 28.0003 22.6451C27.8025 22.6451 27.6066 22.6854 27.4239 22.7635C27.2412 22.8416 27.0751 22.9561 26.9353 23.1005C26.7954 23.2449 26.6845 23.4163 26.6088 23.6049C26.5331 23.7935 26.4941 23.9957 26.4941 24.1999C26.4941 24.6122 26.6528 25.0077 26.9353 25.2992L31.4353 29.9444C31.5747 30.0895 31.7406 30.2047 31.9234 30.2833C32.1062 30.3619 32.3023 30.4024 32.5003 30.4024C32.6983 30.4024 32.8944 30.3619 33.0771 30.2833C33.2599 30.2047 33.4258 30.0895 33.5653 29.9444C33.7043 29.7997 33.8143 29.6281 33.8889 29.4395C33.9636 29.2508 34.0014 29.0488 34.0003 28.845Z" fill="#CDCFD1"/>
</svg>
