<svg width="32" height="32" viewBox="0 0 32 32" fill="none" xmlns="http://www.w3.org/2000/svg">
<path d="M16 6.66669C9.64408 6.66669 4.66675 9.60002 4.66675 13.3334V18.6667C4.66675 21.7107 8.12408 24.3414 13.0921 25.1054C13.3721 25.2531 13.6835 25.3313 14.0001 25.3334H18C18.3166 25.3313 18.628 25.2531 18.908 25.1054C23.876 24.3414 27.3334 21.7107 27.3334 18.6667V13.3334C27.3334 9.60002 22.356 6.66669 16 6.66669ZM6.00008 18.6667V16.5174C7.72029 18.1894 9.92028 19.2817 12.2921 19.6414C12.1028 19.95 12.0018 20.3047 12.0001 20.6667V23.3334C12.0001 23.4027 12.0134 23.4667 12.0201 23.536C8.46142 22.688 6.00008 20.7574 6.00008 18.6667ZM18.6667 23.3334C18.6598 23.508 18.5873 23.6736 18.4638 23.7971C18.3402 23.9207 18.1746 23.9931 18 24H16.6667V22.6667H17.3334C17.5102 22.6667 17.6797 22.5965 17.8048 22.4714C17.9298 22.3464 18 22.1768 18 22C18 21.8232 17.9298 21.6537 17.8048 21.5286C17.6797 21.4036 17.5102 21.3334 17.3334 21.3334H16.6667V20H18C18.1768 20 18.3464 20.0703 18.4714 20.1953C18.5965 20.3203 18.6667 20.4899 18.6667 20.6667V23.3334ZM13.3334 23.3334V20.6667C13.3334 20.4899 13.4036 20.3203 13.5287 20.1953C13.6537 20.0703 13.8233 20 14.0001 20H15.3334V21.3334C15.1566 21.3334 14.987 21.4036 14.862 21.5286C14.7369 21.6537 14.6667 21.8232 14.6667 22C14.6667 22.1768 14.7369 22.3464 14.862 22.4714C14.987 22.5965 15.1566 22.6667 15.3334 22.6667V24H14.0001C13.8253 23.9937 13.6593 23.9215 13.5356 23.7978C13.412 23.6741 13.3397 23.5082 13.3334 23.3334ZM19.8454 17.4867C19.9787 15.872 18.2854 14.8907 16.6667 14.704V13.3707C19.8014 13.644 21.9174 15.7654 19.8454 17.4867ZM13.3334 17.3334C13.3334 16.704 14.4734 16 16 16C17.4507 16 18.5334 16.704 18.5334 17.3334C18.5334 17.9627 17.4507 18.6667 16 18.6667C14.9147 18.6667 13.3334 18.1614 13.3334 17.3334ZM15.3334 14.7107C13.4214 14.9174 12.0001 15.9894 12.0001 17.3307C10.1334 15.5307 12.4627 13.6214 15.3334 13.3734V14.7107ZM21.744 17.1107C21.9036 16.7616 21.9907 16.3837 22 16C22 13.756 19.364 12 16 12C12.6361 12 10.0001 13.756 10.0001 16C10.0089 16.3851 10.096 16.7644 10.2561 17.1147C9.81241 16.8663 9.43587 16.5135 9.15898 16.087C8.88208 15.6605 8.71314 15.1731 8.66675 14.6667C8.66675 12.4987 12.0254 10.6667 16 10.6667C19.9747 10.6667 23.3334 12.4987 23.3334 14.6667C23.287 15.1731 23.118 15.6605 22.8411 16.087C22.5642 16.5135 22.1877 16.8663 21.744 17.1147V17.1107ZM26 18.6667C26 20.7574 23.5387 22.688 19.98 23.536C19.9867 23.468 20 23.4027 20 23.3334V20.6667C19.9983 20.3047 19.8973 19.95 19.708 19.6414C22.0798 19.2817 24.2798 18.1894 26 16.5174V18.6667ZM24.276 16.2814C24.5308 15.7811 24.6646 15.2281 24.6667 14.6667C24.6667 11.676 20.86 9.33336 16 9.33336C11.1401 9.33336 7.33342 11.676 7.33342 14.6667C7.33563 15.228 7.46943 15.7811 7.72408 16.2814C7.23061 15.9543 6.81863 15.5186 6.51977 15.0075C6.22092 14.4965 6.04314 13.9238 6.00008 13.3334C6.00008 10.4427 10.5801 8.00002 16 8.00002C21.42 8.00002 26 10.4427 26 13.3334C25.957 13.9238 25.7792 14.4965 25.4803 15.0075C25.1815 15.5186 24.7695 15.9543 24.276 16.2814Z" fill="#9F9F9F"/>
</svg>
