<svg width="48" height="48" viewBox="0 0 48 48" fill="none" xmlns="http://www.w3.org/2000/svg">
<path d="M27.2812 12.2717C27.2812 12.9748 27.2812 13.678 27.2812 14.3811C27.2812 16.0686 27.2812 17.7561 27.2812 19.4482C27.2812 21.4826 27.2812 23.517 27.2812 25.5514C27.2812 27.3139 27.2812 29.0811 27.2812 30.8436C27.2812 31.6967 27.2625 32.5545 27.2812 33.4076C27.2812 33.4217 27.2812 33.4311 27.2812 33.4451C27.9047 32.8217 28.5328 32.1936 29.1562 31.5701C27.5812 31.5701 26.0062 31.5701 24.4312 31.5701C21.914 31.5701 19.3922 31.5701 16.875 31.5701C16.2984 31.5701 15.7218 31.5701 15.15 31.5701C15.7734 32.1936 16.4015 32.8217 17.025 33.4451C17.0156 32.3436 16.7015 31.1811 16.0547 30.2811C15.6328 29.6951 15.2109 29.2686 14.639 28.8373C14.1937 28.4998 13.6922 28.2701 13.1672 28.0779C11.0906 27.3092 8.50777 28.017 7.08746 29.7092C6.19683 30.7732 5.68589 32.0482 5.67183 33.4498C6.29527 32.8264 6.92339 32.1982 7.54683 31.5748C6.97027 31.5748 6.39839 31.5748 5.82183 31.5748C5.23589 31.5748 4.62652 31.6264 4.04058 31.5607C4.20464 31.5842 4.37339 31.6076 4.53745 31.6264C4.41089 31.6076 4.28902 31.5748 4.17183 31.5326C4.32183 31.5936 4.47183 31.6592 4.62183 31.7201C4.48589 31.6639 4.36402 31.5936 4.24683 31.5045C4.37339 31.6029 4.49995 31.7014 4.62652 31.7998C4.52808 31.7201 4.4437 31.6357 4.3687 31.542C4.46714 31.6686 4.56558 31.7951 4.66402 31.9217C4.57495 31.8045 4.50464 31.6826 4.44839 31.5467C4.50933 31.6967 4.57496 31.8467 4.63589 31.9967C4.58902 31.8748 4.56089 31.7576 4.54214 31.6311C4.56558 31.7951 4.58902 31.9639 4.60777 32.1279C4.58433 31.9029 4.5937 31.6732 4.5937 31.4482C4.5937 30.9795 4.5937 30.5061 4.5937 30.0373C4.5937 28.4623 4.5937 26.8826 4.5937 25.3076C4.5937 23.3998 4.5937 21.492 4.5937 19.5842C4.5937 17.9389 4.5937 16.2936 4.5937 14.6483C4.5937 13.8655 4.58433 13.0826 4.5937 12.3045C4.5937 12.2295 4.59839 12.1592 4.60777 12.0842C4.58433 12.2483 4.56089 12.417 4.54214 12.5811C4.56089 12.4545 4.59371 12.3326 4.63589 12.2155C4.57496 12.3655 4.50933 12.5155 4.44839 12.6655C4.50464 12.5295 4.57495 12.4076 4.66402 12.2905C4.56558 12.417 4.46714 12.5436 4.3687 12.6701C4.44839 12.5717 4.53277 12.4873 4.62652 12.4123C4.49995 12.5108 4.37339 12.6092 4.24683 12.7076C4.36402 12.6186 4.48589 12.5483 4.62183 12.492C4.47183 12.553 4.32183 12.6186 4.17183 12.6795C4.2937 12.6326 4.41089 12.6045 4.53745 12.5858C4.37339 12.6092 4.20464 12.6326 4.04058 12.6514C4.29839 12.6233 4.56558 12.6373 4.82808 12.6373C5.39058 12.6373 5.95308 12.6373 6.51558 12.6373C8.39058 12.6373 10.2609 12.6373 12.1359 12.6373C14.4 12.6373 16.664 12.6373 18.9328 12.6373C20.8922 12.6373 22.8515 12.6373 24.8109 12.6373C25.7437 12.6373 26.6765 12.6233 27.6094 12.6373C27.6844 12.6373 27.7594 12.642 27.8344 12.6514C27.6703 12.628 27.5015 12.6045 27.3375 12.5858C27.464 12.6045 27.5859 12.6373 27.7031 12.6795C27.5531 12.6186 27.4031 12.553 27.2531 12.492C27.389 12.5483 27.5109 12.6186 27.6281 12.7076C27.5015 12.6092 27.375 12.5108 27.2484 12.4123C27.3469 12.492 27.4312 12.5764 27.5062 12.6701C27.4078 12.5436 27.3094 12.417 27.2109 12.2905C27.3 12.4076 27.3703 12.5295 27.4265 12.6655C27.3656 12.5155 27.3 12.3655 27.239 12.2155C27.2859 12.3373 27.314 12.4545 27.3328 12.5811C27.3094 12.417 27.2859 12.2483 27.2672 12.0842C27.2765 12.1405 27.2812 12.2061 27.2812 12.2717C27.2906 12.7592 27.4828 13.2514 27.8297 13.5983C28.1531 13.9217 28.6875 14.1701 29.1562 14.1467C30.1547 14.0998 31.0547 13.3217 31.0312 12.2717C31.0125 11.3951 30.6937 10.617 30.1219 9.96078C29.6859 9.4639 28.9875 9.06077 28.3312 8.95765C28.05 8.91078 27.7734 8.87796 27.4875 8.87796C27.0515 8.87796 26.6109 8.87796 26.175 8.87796C24.3234 8.87796 22.4719 8.87796 20.6203 8.87796C18.1968 8.87796 15.7781 8.87796 13.3547 8.87796C11.2406 8.87796 9.12652 8.87796 7.01714 8.87796C6.09371 8.87796 5.16558 8.85921 4.24214 8.87796C2.73277 8.90609 1.42026 9.88109 0.979639 11.3295C0.871826 11.6764 0.848389 12.0467 0.848389 12.4123C0.848389 12.8951 0.848389 13.378 0.848389 13.8608C0.848389 15.8811 0.848389 17.8967 0.848389 19.917C0.848389 22.3029 0.848389 24.6936 0.848389 27.0795C0.848389 28.5982 0.848389 30.1123 0.848389 31.6311C0.848389 31.7295 0.848389 31.8279 0.848389 31.9217C0.857764 32.5123 1.00308 33.0232 1.26089 33.5529C1.55151 34.1436 2.13277 34.6967 2.73277 34.9592C3.24839 35.1889 3.7312 35.3201 4.30308 35.3248C4.47183 35.3248 4.64527 35.3248 4.81402 35.3248C5.40464 35.3248 5.99058 35.3248 6.58121 35.3248C6.90464 35.3248 7.22808 35.3248 7.55152 35.3248C8.57339 35.3248 9.41715 34.467 9.42652 33.4498C9.42652 33.2764 9.44058 33.1029 9.46402 32.9295C9.44058 33.0936 9.41715 33.2623 9.39839 33.4264C9.44527 33.0889 9.53902 32.7654 9.66558 32.4561C9.60465 32.6061 9.53902 32.7561 9.47808 32.9061C9.60933 32.6014 9.77808 32.3201 9.97965 32.0576C9.88121 32.1842 9.78277 32.3107 9.68433 32.4373C9.87652 32.1936 10.0921 31.9779 10.3359 31.7857C10.2093 31.8842 10.0828 31.9826 9.95621 32.0811C10.2187 31.8795 10.5 31.7107 10.8046 31.5795C10.6546 31.6404 10.5046 31.7061 10.3546 31.767C10.6687 31.6357 10.9922 31.5467 11.325 31.4998C11.1609 31.5232 10.9922 31.5467 10.8281 31.5654C11.175 31.5186 11.5218 31.5186 11.8687 31.5654C11.7047 31.542 11.5359 31.5186 11.3718 31.4998C11.7093 31.5467 12.0328 31.6404 12.3422 31.767C12.1922 31.7061 12.0422 31.6404 11.8922 31.5795C12.1968 31.7107 12.4781 31.8795 12.7406 32.0811C12.614 31.9826 12.4875 31.8842 12.3609 31.7857C12.6047 31.9779 12.8203 32.1936 13.0125 32.4373C12.914 32.3107 12.8156 32.1842 12.7172 32.0576C12.9187 32.3201 13.0875 32.6014 13.2187 32.9061C13.1578 32.7561 13.0922 32.6061 13.0312 32.4561C13.1625 32.7701 13.2515 33.0936 13.2984 33.4264C13.275 33.2623 13.2515 33.0936 13.2328 32.9295C13.2562 33.1029 13.2656 33.2764 13.2703 33.4498C13.2797 34.4623 14.1234 35.3248 15.1453 35.3248C16.7203 35.3248 18.2953 35.3248 19.8703 35.3248C22.3875 35.3248 24.9094 35.3248 27.4265 35.3248C28.0031 35.3248 28.5797 35.3248 29.1515 35.3248C30.164 35.3248 31.0265 34.467 31.0265 33.4498C31.0265 32.7467 31.0265 32.0436 31.0265 31.3404C31.0265 29.6529 31.0265 27.9654 31.0265 26.2732C31.0265 24.2389 31.0265 22.2045 31.0265 20.1701C31.0265 18.4076 31.0265 16.6405 31.0265 14.878C31.0265 14.0248 31.0406 13.167 31.0265 12.3139C31.0265 12.2998 31.0265 12.2905 31.0265 12.2764C31.0265 11.2967 30.164 10.3545 29.1515 10.4014C28.139 10.4436 27.2812 11.2217 27.2812 12.2717Z" fill="#393D46"/>
<path d="M43.4016 25.7764C43.4016 27.5998 43.4016 29.4185 43.4016 31.242C43.4016 31.5326 43.4203 31.8326 43.3875 32.1279C43.411 31.9639 43.4344 31.7951 43.4532 31.631C43.4344 31.7576 43.4016 31.8795 43.3594 31.9967C43.4203 31.8467 43.486 31.6967 43.5469 31.5467C43.4907 31.6826 43.4203 31.8045 43.3313 31.9217C43.4297 31.7951 43.5282 31.6685 43.6266 31.542C43.5469 31.6404 43.4625 31.7248 43.3688 31.7998C43.4953 31.7014 43.6219 31.6029 43.7485 31.5045C43.6313 31.5935 43.5094 31.6639 43.3735 31.7201C43.5235 31.6592 43.6735 31.5935 43.8235 31.5326C43.7016 31.5795 43.5844 31.6076 43.4578 31.6264C43.6219 31.6029 43.7907 31.5795 43.9547 31.5607C43.4719 31.6123 42.9703 31.5748 42.4828 31.5748C42.0094 31.5748 41.5407 31.5748 41.0672 31.5748C41.6907 32.1982 42.3188 32.8263 42.9422 33.4498C42.9328 32.3482 42.6188 31.1857 41.9719 30.2857C41.55 29.6998 41.1282 29.2732 40.5563 28.842C40.111 28.5045 39.6094 28.2748 39.0844 28.0826C37.0032 27.3138 34.425 28.0217 33.0047 29.7139C32.1141 30.7779 31.6032 32.0529 31.5891 33.4545C32.2125 32.831 32.8407 32.2029 33.4641 31.5795C32.2079 31.5795 30.9563 31.5795 29.7 31.5795C29.5172 31.5795 29.3344 31.5795 29.1516 31.5795C29.775 32.2029 30.4032 32.831 31.0266 33.4545C31.0266 32.9014 31.0266 32.3529 31.0266 31.7998C31.0266 30.4779 31.0266 29.1514 31.0266 27.8295C31.0266 26.2264 31.0266 24.6279 31.0266 23.0248C31.0266 21.642 31.0266 20.2545 31.0266 18.8717C31.0266 18.1967 31.0407 17.5217 31.0266 16.8467C31.0266 16.8373 31.0266 16.8279 31.0266 16.8186C30.4032 17.442 29.775 18.0701 29.1516 18.6936C30.1079 18.6936 31.0641 18.6936 32.0203 18.6936C33.5157 18.6936 35.011 18.6936 36.5063 18.6936C36.9047 18.6936 37.3219 18.6654 37.7157 18.7123C37.5516 18.6889 37.3828 18.6654 37.2188 18.6467C37.3875 18.6748 37.5422 18.717 37.7016 18.7779C37.5516 18.717 37.4016 18.6514 37.2516 18.5904C37.4297 18.6654 37.5938 18.7592 37.7438 18.8764C37.6172 18.7779 37.4907 18.6795 37.3641 18.5811C37.6735 18.8295 37.9172 19.1717 38.1703 19.4717C38.625 20.0154 39.0797 20.5592 39.5391 21.1029C40.6032 22.3732 41.6672 23.6482 42.736 24.9186C42.9938 25.2279 43.2563 25.5326 43.5094 25.842C43.411 25.7154 43.3125 25.5889 43.2141 25.4623C43.3219 25.6076 43.4063 25.7529 43.4813 25.917C43.4203 25.767 43.3547 25.617 43.2938 25.467C43.3594 25.631 43.4063 25.7951 43.4344 25.9732C43.411 25.8092 43.3875 25.6404 43.3688 25.4763C43.3922 25.5748 43.4016 25.6732 43.4016 25.7764C43.411 26.2639 43.6032 26.756 43.95 27.1029C44.2735 27.4264 44.8078 27.6748 45.2766 27.6514C46.275 27.6045 47.1703 26.8264 47.1516 25.7764C47.1375 25.1014 46.9735 24.4826 46.6641 23.8826C46.5188 23.6014 46.3078 23.3529 46.1063 23.1092C46.0219 23.0107 45.9422 22.9123 45.8578 22.8139C45.45 22.3264 45.0375 21.8342 44.6297 21.3467C43.5235 20.0248 42.4125 18.6982 41.3063 17.3764C41.0016 17.0107 40.6969 16.6451 40.3922 16.2842C39.6469 15.3982 38.5078 14.9389 37.3641 14.9389C36.0094 14.9342 34.65 14.9389 33.2953 14.9389C31.9407 14.9389 30.5813 14.9248 29.2266 14.9389C29.2032 14.9389 29.1797 14.9389 29.1563 14.9389C28.1438 14.9389 27.2813 15.7967 27.2813 16.8139C27.2813 17.367 27.2813 17.9154 27.2813 18.4686C27.2813 19.7904 27.2813 21.117 27.2813 22.4389C27.2813 24.042 27.2813 25.6404 27.2813 27.2435C27.2813 28.6264 27.2813 30.0139 27.2813 31.3967C27.2813 32.0717 27.2719 32.7467 27.2813 33.4217C27.2813 33.431 27.2813 33.4404 27.2813 33.4498C27.2813 34.4623 28.1391 35.3248 29.1563 35.3248C30.4125 35.3248 31.6641 35.3248 32.9203 35.3248C33.1032 35.3248 33.286 35.3248 33.4688 35.3248C34.4907 35.3248 35.3344 34.467 35.3438 33.4498C35.3438 33.2764 35.3578 33.1029 35.3813 32.9295C35.3578 33.0935 35.3344 33.2623 35.3157 33.4263C35.3625 33.0888 35.4563 32.7654 35.5828 32.456C35.5219 32.606 35.4563 32.756 35.3953 32.906C35.5266 32.6014 35.6953 32.3201 35.8969 32.0576C35.7985 32.1842 35.7 32.3107 35.6016 32.4373C35.7938 32.1935 36.0094 31.9779 36.2532 31.7857C36.1266 31.8842 36 31.9826 35.8735 32.081C36.136 31.8795 36.4172 31.7107 36.7219 31.5795C36.5719 31.6404 36.4219 31.706 36.2719 31.767C36.586 31.6357 36.9094 31.5467 37.2422 31.4998C37.0782 31.5232 36.9094 31.5467 36.7453 31.5654C37.0922 31.5185 37.4391 31.5185 37.786 31.5654C37.6219 31.542 37.4532 31.5185 37.2891 31.4998C37.6266 31.5467 37.95 31.6404 38.2594 31.767C38.1094 31.706 37.9594 31.6404 37.8094 31.5795C38.1141 31.7107 38.3953 31.8795 38.6579 32.081C38.5313 31.9826 38.4047 31.8842 38.2782 31.7857C38.5219 31.9779 38.7375 32.1935 38.9297 32.4373C38.8313 32.3107 38.7328 32.1842 38.6344 32.0576C38.836 32.3201 39.0047 32.6014 39.136 32.906C39.075 32.756 39.0094 32.606 38.9485 32.456C39.0797 32.7701 39.1688 33.0935 39.2157 33.4263C39.1922 33.2623 39.1688 33.0935 39.15 32.9295C39.1735 33.1029 39.1828 33.2764 39.1875 33.4498C39.1969 34.4623 40.0407 35.3248 41.0625 35.3248C41.8032 35.3248 42.5485 35.3248 43.2891 35.3248C43.7813 35.3248 44.2828 35.3342 44.7563 35.1701C45.3282 34.9779 45.886 34.6592 46.275 34.1904C46.4719 33.9514 46.6594 33.717 46.7813 33.4357C46.9875 32.9717 47.0813 32.6295 47.1328 32.1232C47.1844 31.5982 47.1469 31.0498 47.1469 30.5248C47.1469 29.5639 47.1469 28.6029 47.1469 27.642C47.1469 27.0185 47.1469 26.3998 47.1469 25.7764C47.1469 24.7967 46.2844 23.8545 45.2719 23.9014C44.2641 23.9482 43.4016 24.7264 43.4016 25.7764ZM13.2703 33.4451C13.2703 33.6185 13.2562 33.792 13.2328 33.9654C13.2562 33.8013 13.2797 33.6326 13.2984 33.4685C13.2516 33.806 13.1578 34.1295 13.0312 34.4389C13.0922 34.2889 13.1578 34.1388 13.2187 33.9888C13.0875 34.2935 12.9187 34.5748 12.7172 34.8373C12.8156 34.7107 12.9141 34.5842 13.0125 34.4576C12.8203 34.7013 12.6047 34.917 12.3609 35.1092C12.4875 35.0107 12.6141 34.9123 12.7406 34.8139C12.4781 35.0154 12.1969 35.1842 11.8922 35.3154C12.0422 35.2545 12.1922 35.1889 12.3422 35.1279C12.0281 35.2592 11.7047 35.3482 11.3719 35.3951C11.5359 35.3717 11.7047 35.3482 11.8687 35.3295C11.5219 35.3764 11.175 35.3764 10.8281 35.3295C10.9922 35.3529 11.1609 35.3764 11.325 35.3951C10.9875 35.3482 10.6641 35.2545 10.3547 35.1279C10.5047 35.1889 10.6547 35.2545 10.8047 35.3154C10.5 35.1842 10.2187 35.0154 9.95625 34.8139C10.0828 34.9123 10.2094 35.0107 10.3359 35.1092C10.0922 34.917 9.87657 34.7013 9.68438 34.4576C9.78282 34.5842 9.88125 34.7107 9.97969 34.8373C9.77813 34.5748 9.60938 34.2935 9.47813 33.9888C9.53907 34.1388 9.60469 34.2889 9.66563 34.4389C9.53438 34.1248 9.44532 33.8014 9.39844 33.4685C9.42188 33.6326 9.44532 33.8013 9.46407 33.9654C9.41719 33.6185 9.41719 33.2717 9.46407 32.9248C9.44063 33.0889 9.41719 33.2576 9.39844 33.4217C9.44532 33.0842 9.53907 32.7607 9.66563 32.4513C9.60469 32.6014 9.53907 32.7514 9.47813 32.9014C9.60938 32.5967 9.77813 32.3154 9.97969 32.0529C9.88125 32.1795 9.78282 32.306 9.68438 32.4326C9.87657 32.1889 10.0922 31.9732 10.3359 31.781C10.2094 31.8795 10.0828 31.9779 9.95625 32.0763C10.2187 31.8748 10.5 31.706 10.8047 31.5748C10.6547 31.6357 10.5047 31.7013 10.3547 31.7623C10.6687 31.631 10.9922 31.542 11.325 31.4951C11.1609 31.5185 10.9922 31.542 10.8281 31.5607C11.175 31.5138 11.5219 31.5138 11.8687 31.5607C11.7047 31.5373 11.5359 31.5139 11.3719 31.4951C11.7094 31.542 12.0328 31.6357 12.3422 31.7623C12.1922 31.7013 12.0422 31.6357 11.8922 31.5748C12.1969 31.706 12.4781 31.8748 12.7406 32.0763C12.6141 31.9779 12.4875 31.8795 12.3609 31.781C12.6047 31.9732 12.8203 32.1889 13.0125 32.4326C12.9141 32.306 12.8156 32.1795 12.7172 32.0529C12.9187 32.3154 13.0875 32.5967 13.2187 32.9014C13.1578 32.7514 13.0922 32.6014 13.0312 32.4513C13.1625 32.7654 13.2516 33.0888 13.2984 33.4217C13.275 33.2576 13.2516 33.0889 13.2328 32.9248C13.2609 33.0982 13.2703 33.2717 13.2703 33.4451C13.275 33.9279 13.4766 34.4295 13.8187 34.7717C14.1422 35.0951 14.6766 35.3435 15.1453 35.3201C16.1532 35.2732 17.0297 34.4951 17.0204 33.4451C17.011 32.3342 16.6922 31.1576 16.0313 30.2529C15.6094 29.681 15.1969 29.2592 14.6344 28.8326C14.1891 28.4904 13.6875 28.2654 13.1625 28.0732C12.6328 27.8764 12.0422 27.792 11.475 27.7732C10.9172 27.7545 10.3312 27.8295 9.79219 27.9842C8.75625 28.2795 7.74844 28.8935 7.05938 29.7279C6.6 30.2857 6.29531 30.8107 6.02344 31.481C5.8125 32.006 5.72813 32.5545 5.67656 33.117C5.58281 34.2185 5.89688 35.4092 6.46406 36.3514C7.01719 37.2701 7.86094 38.0857 8.84063 38.531C9.525 38.8404 10.1344 39.0092 10.8797 39.0889C11.4375 39.1498 11.9953 39.0889 12.5437 38.981C13.6922 38.7654 14.8453 38.0764 15.5953 37.181C16.486 36.117 16.9969 34.842 17.011 33.4404C17.0204 32.4607 16.1438 31.5185 15.1359 31.5654C14.1234 31.617 13.2797 32.3951 13.2703 33.4451Z" fill="#393D46"/>
<path d="M39.1922 33.4452C39.1922 33.6186 39.1781 33.7921 39.1547 33.9655C39.1781 33.8014 39.2016 33.6327 39.2203 33.4686C39.1734 33.8061 39.0797 34.1296 38.9531 34.4389C39.0141 34.2889 39.0797 34.1389 39.1406 33.9889C39.0094 34.2936 38.8406 34.5749 38.6391 34.8374C38.7375 34.7108 38.8359 34.5843 38.9344 34.4577C38.7422 34.7014 38.5266 34.9171 38.2828 35.1093C38.4094 35.0108 38.5359 34.9124 38.6625 34.8139C38.4 35.0155 38.1187 35.1843 37.8141 35.3155C37.9641 35.2546 38.1141 35.1889 38.2641 35.128C37.95 35.2593 37.6266 35.3483 37.2937 35.3952C37.4578 35.3718 37.6266 35.3483 37.7906 35.3296C37.4437 35.3764 37.0969 35.3764 36.75 35.3296C36.9141 35.353 37.0828 35.3764 37.2469 35.3952C36.9094 35.3483 36.5859 35.2546 36.2766 35.128C36.4266 35.1889 36.5766 35.2546 36.7266 35.3155C36.4219 35.1843 36.1406 35.0155 35.8781 34.8139C36.0047 34.9124 36.1312 35.0108 36.2578 35.1093C36.0141 34.9171 35.7984 34.7014 35.6062 34.4577C35.7047 34.5843 35.8031 34.7108 35.9016 34.8374C35.7 34.5749 35.5312 34.2936 35.4 33.9889C35.4609 34.1389 35.5266 34.2889 35.5875 34.4389C35.4562 34.1249 35.3672 33.8014 35.3203 33.4686C35.3437 33.6327 35.3672 33.8014 35.3859 33.9655C35.3391 33.6186 35.3391 33.2718 35.3859 32.9249C35.3625 33.089 35.3391 33.2577 35.3203 33.4218C35.3672 33.0843 35.4609 32.7608 35.5875 32.4514C35.5266 32.6014 35.4609 32.7515 35.4 32.9015C35.5312 32.5968 35.7 32.3155 35.9016 32.053C35.8031 32.1796 35.7047 32.3061 35.6062 32.4327C35.7984 32.189 36.0141 31.9733 36.2578 31.7811C36.1312 31.8796 36.0047 31.978 35.8781 32.0765C36.1406 31.8749 36.4219 31.7061 36.7266 31.5749C36.5766 31.6358 36.4266 31.7015 36.2766 31.7624C36.5906 31.6311 36.9141 31.5421 37.2469 31.4952C37.0828 31.5186 36.9141 31.5421 36.75 31.5608C37.0969 31.514 37.4437 31.514 37.7906 31.5608C37.6266 31.5374 37.4578 31.514 37.2937 31.4952C37.6312 31.5421 37.9547 31.6358 38.2641 31.7624C38.1141 31.7015 37.9641 31.6358 37.8141 31.5749C38.1187 31.7061 38.4 31.8749 38.6625 32.0765C38.5359 31.978 38.4094 31.8796 38.2828 31.7811C38.5266 31.9733 38.7422 32.189 38.9344 32.4327C38.8359 32.3061 38.7375 32.1796 38.6391 32.053C38.8406 32.3155 39.0094 32.5968 39.1406 32.9015C39.0797 32.7515 39.0141 32.6014 38.9531 32.4514C39.0844 32.7655 39.1734 33.0889 39.2203 33.4218C39.1969 33.2577 39.1734 33.089 39.1547 32.9249C39.1781 33.0983 39.1922 33.2718 39.1922 33.4452C39.1969 33.928 39.3984 34.4296 39.7406 34.7718C40.0641 35.0952 40.5984 35.3436 41.0672 35.3202C42.0749 35.2733 42.9515 34.4952 42.9421 33.4452C42.9328 32.3343 42.614 31.1577 41.9531 30.253C41.5312 29.6811 41.1187 29.2593 40.5562 28.8327C40.1109 28.4905 39.6094 28.2655 39.0844 28.0733C38.5547 27.8765 37.9641 27.7921 37.3969 27.7733C36.8391 27.7546 36.2531 27.8296 35.7141 27.9843C34.6781 28.2796 33.6703 28.8936 32.9813 29.728C32.5219 30.2858 32.2172 30.8108 31.9453 31.4811C31.7344 32.0061 31.65 32.5546 31.5984 33.1171C31.5047 34.2186 31.8188 35.4093 32.3859 36.3514C32.9391 37.2702 33.7828 38.0858 34.7625 38.5311C35.4469 38.8405 36.0562 39.0093 36.8016 39.0889C37.3594 39.1499 37.9172 39.0889 38.4656 38.9811C39.6141 38.7655 40.7672 38.0764 41.5172 37.1811C42.4078 36.1171 42.9187 34.8421 42.9328 33.4405C42.9421 32.4608 42.0656 31.5186 41.0578 31.5655C40.0453 31.6171 39.2016 32.3952 39.1922 33.4452Z" fill="#393D46"/>
</svg>
