<svg width="48" height="48" viewBox="0 0 48 48" fill="none" xmlns="http://www.w3.org/2000/svg">
<path d="M38.0002 8.922C37.9772 8.65769 37.8514 8.41297 37.6498 8.24052C37.4482 8.06808 37.1869 7.9817 36.9222 8C36.7907 8.00986 36.6625 8.0456 36.5449 8.1052C36.4273 8.16479 36.3227 8.24704 36.237 8.34723C36.1513 8.44742 36.0863 8.56356 36.0456 8.68897C36.005 8.81439 35.9895 8.9466 36.0002 9.078L37.1742 24.052C34.5077 24.2524 31.9516 25.1996 29.7986 26.7853C27.6455 28.371 25.9826 30.5311 25.0002 33.018C24.0175 30.5305 22.354 28.3701 20.2002 26.7843C18.0463 25.1986 15.4894 24.2516 12.8222 24.052L14.0002 9.078C14.0209 8.81279 13.9354 8.55021 13.7625 8.34805C13.5896 8.14589 13.3435 8.02069 13.0782 8C12.813 7.97932 12.5504 8.06483 12.3483 8.23774C12.1461 8.41065 12.0209 8.65679 12.0002 8.922L10.7702 24.616C8.97865 26.5437 7.99033 29.0825 8.00704 31.7141C8.02376 34.3457 9.04425 36.8718 10.8602 38.7765C12.6761 40.6813 15.1506 41.8211 17.7784 41.9634C20.4062 42.1057 22.9892 41.2396 25.0002 39.542C27.0112 41.2385 29.5938 42.1035 32.2208 41.9606C34.8479 41.8177 37.3214 40.6775 39.1364 38.7729C40.9515 36.8683 41.9712 34.3428 41.9875 31.7119C42.0038 29.081 41.0155 26.543 39.2242 24.616L38.0002 8.922ZM12.4522 37.548C10.9302 36.0283 10.0517 33.981 9.9988 31.8309C9.94592 29.6807 10.7228 27.5927 12.1682 26C15.2747 26.1006 18.2264 27.3797 20.424 29.5776C22.6216 31.7756 23.9002 34.7275 24.0002 37.834C22.4073 39.2792 20.3191 40.0558 18.169 40.0025C16.0188 39.9492 13.9717 39.0703 12.4522 37.548ZM37.5462 37.548C36.0257 39.0655 33.9804 39.941 31.8329 39.9939C29.6854 40.0467 27.5996 39.2728 26.0062 37.832C26.1066 34.7269 27.3846 31.7763 29.5809 29.5789C31.7771 27.3815 34.7271 26.102 37.8322 26C39.2779 27.5928 40.0547 29.681 40.0014 31.8313C39.9482 33.9816 39.0689 36.0288 37.5462 37.548Z" fill="#CDCFD1"/>
</svg>
