<svg width="34" height="34" viewBox="0 0 34 34" fill="none" xmlns="http://www.w3.org/2000/svg">
<path d="M0.00134755 15.1976V4.99837C0.00134755 4.54753 0.18044 4.11517 0.499225 3.79638C0.818011 3.4776 1.25038 3.29851 1.70121 3.29851H28.202L27.7091 2.80555C27.4306 2.48037 27.2851 2.06207 27.3016 1.63425C27.3182 1.20644 27.4955 0.800615 27.7982 0.497878C28.1009 0.195143 28.5068 0.0177923 28.9346 0.00126773C29.3624 -0.0152569 29.7806 0.130262 30.1059 0.408744L33.5056 3.80847C33.8222 4.12696 33.9999 4.55779 33.9999 5.00687C33.9999 5.45595 33.8222 5.88677 33.5056 6.20527L30.1059 9.60499C29.7806 9.88347 29.3624 10.029 28.9346 10.0125C28.5068 9.99595 28.1009 9.81859 27.7982 9.51585C27.4955 9.21312 27.3182 8.8073 27.3016 8.37948C27.2851 7.95167 27.4306 7.53338 27.7091 7.20819L28.202 6.69823H3.40106V15.1976C3.40106 15.6484 3.22198 16.0807 2.90319 16.3995C2.58441 16.7183 2.15204 16.8974 1.70121 16.8974C1.25038 16.8974 0.818011 16.7183 0.499225 16.3995C0.18044 16.0807 0.00134755 15.6484 0.00134755 15.1976ZM32.2987 16.8974C31.8479 16.8974 31.4155 17.0765 31.0967 17.3953C30.7779 17.714 30.5988 18.1465 30.5988 18.5973V27.0965H5.79787L6.29084 26.6036C6.56931 26.2785 6.71484 25.8601 6.69831 25.4323C6.68178 25.0045 6.50444 24.5987 6.20169 24.2959C5.89896 23.9932 5.49314 23.8159 5.06532 23.7993C4.63751 23.7828 4.21921 23.9284 3.89403 24.2068L0.494307 27.6065C0.177706 27.925 0 28.3558 0 28.8049C0 29.254 0.177706 29.6849 0.494307 30.0033L3.89403 33.4031C4.21921 33.6815 4.63751 33.8271 5.06532 33.8105C5.49314 33.794 5.89896 33.6167 6.20169 33.3139C6.50444 33.0111 6.68178 32.6053 6.69831 32.1776C6.71484 31.7497 6.56931 31.3314 6.29084 31.0063L5.79787 30.4963H32.2987C32.7495 30.4963 33.1819 30.3172 33.5007 29.9984C33.8195 29.6796 33.9986 29.2472 33.9986 28.7964V18.5973C33.9986 18.1465 33.8195 17.714 33.5007 17.3953C33.1819 17.0765 32.7495 16.8974 32.2987 16.8974Z" fill="white"/>
</svg>
