<svg width="19" height="17" viewBox="0 0 19 17" fill="none" xmlns="http://www.w3.org/2000/svg">
<path d="M5.81199 16.8379H5.72781C4.03192 16.8231 2.36056 16.4313 0.834742 15.691C0.554073 15.5591 0.322977 15.3409 0.175287 15.0682C0.0275949 14.7956 -0.0289361 14.4827 0.0139688 14.1757C0.0606312 13.8665 0.203785 13.5799 0.422994 13.3569C0.642202 13.1339 0.926258 12.9859 1.2346 12.934C2.18019 12.8078 3.08985 12.4891 3.90737 11.9975C2.48804 10.8878 1.39535 9.41475 0.745108 7.73451C0.0948743 6.05428 -0.0886789 4.22943 0.213901 2.45336C0.254927 2.17204 0.375913 1.90842 0.562464 1.69389C0.749014 1.47936 0.993273 1.32294 1.26617 1.24325C1.53168 1.15986 1.81582 1.1563 2.08333 1.233C2.35085 1.3097 2.58994 1.46328 2.77092 1.67468C3.38546 2.48049 4.15771 3.15266 5.04058 3.65018C5.92344 4.14769 6.89842 4.46013 7.90601 4.56843C7.95414 3.3287 8.48691 2.15737 9.38972 1.30639C9.84052 0.874712 10.3727 0.537077 10.9553 0.31315C11.5379 0.0892231 12.1592 -0.0165172 12.7831 0.00209108C13.407 0.0206994 14.0209 0.163284 14.5891 0.421536C15.1573 0.679788 15.6684 1.04854 16.0927 1.50632C16.2032 1.60403 16.3405 1.66632 16.4869 1.68508C16.6333 1.70384 16.7819 1.67822 16.9135 1.61155C17.1644 1.49321 17.4437 1.44866 17.719 1.48311C17.9943 1.51755 18.254 1.62955 18.468 1.80605C18.6821 1.98255 18.8415 2.21627 18.9277 2.47993C19.0138 2.7436 19.0233 3.02635 18.9549 3.29518C18.7121 4.29496 18.2523 5.22904 17.608 6.03108C17.4659 9.02453 16.1462 11.8405 13.9365 13.8649C11.7268 15.8892 8.80641 16.9579 5.81199 16.8379ZM5.81199 14.7334H5.89617C7.11962 14.7755 8.33925 14.5743 9.48435 14.1415C10.6294 13.7086 11.6773 13.0528 12.567 12.212C13.4568 11.3712 14.1707 10.3622 14.6675 9.24334C15.1644 8.12454 15.4342 6.91823 15.4614 5.69436C15.4787 5.35895 15.617 5.0412 15.8507 4.79993C16.1074 4.47503 16.3262 4.12201 16.5031 3.74766C16.124 3.74838 15.7491 3.66908 15.4027 3.51495C15.0563 3.36082 14.7464 3.13533 14.4933 2.85323C14.2498 2.61178 13.9605 2.42134 13.6425 2.29306C13.3245 2.16478 12.9841 2.10122 12.6413 2.10611C12.295 2.09716 11.9502 2.15669 11.6271 2.28129C11.3038 2.40589 11.0084 2.59309 10.7577 2.83218C10.4195 3.15313 10.1715 3.55726 10.0385 4.00416C9.90553 4.45106 9.89227 4.92505 10 5.37868L10.2736 6.57827L9.04248 6.66246C7.7809 6.76533 6.51203 6.59275 5.32375 6.15669C4.13547 5.72062 3.05618 5.03148 2.1606 4.137C2.12219 5.5222 2.46872 6.89093 3.16163 8.09099C3.85454 9.29104 4.86671 10.2754 6.08559 10.9347L7.08524 11.5029L6.42231 12.45C5.70539 13.3902 4.72308 14.0939 3.60221 14.4703C4.32125 14.6506 5.06022 14.739 5.80146 14.7334H5.81199Z" fill="white"/>
</svg>
