<svg width="40" height="40" viewBox="0 0 40 40" fill="none" xmlns="http://www.w3.org/2000/svg">
<path d="M34.0616 11.8409C33.7738 11.5182 33.454 11.2257 33.107 10.9678C33.2494 9.85135 33.1509 8.71728 32.8181 7.64206C32.4853 6.56685 31.9259 5.57547 31.1775 4.73472C29.3709 2.69859 26.2914 1.66669 22.0239 1.66669H11.6674C10.9192 1.66868 10.1961 1.9366 9.62726 2.42259C9.05838 2.90858 8.68081 3.58099 8.56199 4.31969L4.24556 31.6635C4.1845 32.03 4.20409 32.4054 4.30299 32.7635C4.40188 33.1217 4.57769 33.454 4.81817 33.7372C5.05865 34.0205 5.35801 34.2479 5.69538 34.4036C6.03274 34.5592 6.40001 34.6395 6.77157 34.6387H11.2117L11.075 35.5062C11.0198 35.8552 11.0408 36.212 11.1367 36.552C11.2326 36.8921 11.401 37.2073 11.6304 37.476C11.8598 37.7447 12.1447 37.9605 12.4655 38.1085C12.7863 38.2565 13.1354 38.3332 13.4887 38.3334H18.8793C19.5777 38.3389 20.2551 38.0954 20.79 37.6464C21.3248 37.1975 21.6821 36.5725 21.7977 35.8838L22.8654 29.1651L22.8833 29.0739H23.3813C30.1017 29.0739 34.2993 25.752 35.5233 19.4694C35.8967 18.1725 35.9589 16.8058 35.7049 15.4803C35.451 14.1548 34.888 12.9079 34.0616 11.8409ZM13.0704 22.8402L11.8796 30.399L11.7358 31.3054H7.67657L11.8286 5.00002H22.0239C25.2498 5.00002 27.5528 5.67386 28.6775 6.94012C29.2084 7.55737 29.5786 8.29614 29.7554 9.09085C29.9321 9.88557 29.9099 10.7116 29.6907 11.4957L29.6597 11.6828C29.6394 11.8102 29.621 11.9348 29.5873 12.0931C29.2659 14.4747 28.0757 16.6534 26.2455 18.2107C24.1908 19.6396 21.7144 20.3342 19.2163 20.1824H16.1775C15.4271 20.1798 14.7008 20.4467 14.1306 20.9345C13.5604 21.4223 13.1842 22.0985 13.0704 22.8402ZM32.2517 18.8314C31.3338 23.545 28.5148 25.7406 23.3813 25.7406H22.5756C21.8766 25.7352 21.1986 25.9794 20.6636 26.4293C20.1286 26.8793 19.7718 27.5054 19.6573 28.195L18.5749 34.9854L14.5288 35L15.3257 29.9436L16.3442 23.5222H19.2097C19.4711 23.5222 19.7021 23.4829 19.9566 23.474C20.5547 23.4533 21.151 23.4303 21.7111 23.3608C22.0532 23.3182 22.3671 23.2405 22.695 23.1797C23.1492 23.0957 23.6037 23.0127 24.0301 22.8942C24.3474 22.8059 24.6434 22.6922 24.9452 22.5849C25.344 22.4434 25.7365 22.2949 26.1078 22.1204C26.3878 21.9886 26.6546 21.842 26.9188 21.6916C27.2704 21.4924 27.6111 21.2745 27.9394 21.0388C28.1765 20.8678 28.4093 20.6923 28.6311 20.5038C28.9455 20.2327 29.2443 19.9439 29.5259 19.6389C29.7143 19.438 29.9071 19.243 30.0815 19.0268C30.3708 18.6582 30.6379 18.2727 30.8815 17.8724C31.0089 17.6688 31.1502 17.4804 31.2675 17.266C31.6051 16.6483 31.8953 16.0057 32.1354 15.3439C32.1499 15.3042 32.1705 15.2706 32.1847 15.2306C32.1913 15.2119 32.2011 15.1963 32.2078 15.1775C32.538 16.3712 32.5532 17.6301 32.2517 18.8314Z" fill="#393D46"/>
</svg>
