<svg width="1" height="24" viewBox="0 0 1 24" fill="none" xmlns="http://www.w3.org/2000/svg">
<mask id="path-1-inside-1_12345_272907" fill="white">
<ellipse cx="0.0748038" cy="12" rx="0.0748038" ry="12"/>
</mask>
<ellipse cx="0.0748038" cy="12" rx="0.0748038" ry="12" fill="white"/>
<path d="M-0.850392 12C-0.850392 15.3123 -0.858762 18.3101 -0.872283 20.479C-0.879045 21.5639 -0.887084 22.4393 -0.895971 23.0422C-0.900427 23.3446 -0.905034 23.574 -0.909657 23.7258C-0.91202 23.8033 -0.914133 23.8517 -0.915669 23.8768C-0.916641 23.8926 -0.916451 23.8833 -0.91387 23.8623C-0.913314 23.8578 -0.908284 23.814 -0.894304 23.7572C-0.889281 23.7367 -0.869244 23.6546 -0.821462 23.5575C-0.798768 23.5113 -0.743064 23.4056 -0.6374 23.2983C-0.530421 23.1896 -0.289664 23 0.0748038 23V25C0.439594 25 0.680674 24.8103 0.787975 24.7012C0.893961 24.5936 0.949987 24.4873 0.973003 24.4406C1.02143 24.3422 1.04211 24.258 1.04777 24.235C1.06304 24.173 1.06935 24.1213 1.07118 24.1064C1.07631 24.0647 1.07903 24.0245 1.08057 23.9993C1.08407 23.9424 1.08691 23.8689 1.08942 23.7867C1.09453 23.6187 1.09932 23.3766 1.10381 23.0717C1.11282 22.4602 1.1209 21.5782 1.12768 20.4915C1.14123 18.3173 1.14961 15.3151 1.14961 12H-0.850392ZM0.0748038 23C0.439272 23 0.680028 23.1896 0.787008 23.2983C0.892672 23.4056 0.948375 23.5113 0.97107 23.5575C1.01885 23.6546 1.03889 23.7367 1.04391 23.7572C1.05789 23.814 1.06292 23.8578 1.06348 23.8623C1.06606 23.8833 1.06625 23.8926 1.06528 23.8768C1.06374 23.8517 1.06163 23.8033 1.05926 23.7258C1.05464 23.574 1.05003 23.3446 1.04558 23.0422C1.03669 22.4393 1.02865 21.5639 1.02189 20.479C1.00837 18.3101 1 15.3123 1 12H-1C-1 15.3151 -0.991625 18.3173 -0.978071 20.4915C-0.971297 21.5782 -0.963217 22.4602 -0.954205 23.0717C-0.949711 23.3766 -0.944924 23.6187 -0.939808 23.7867C-0.937302 23.8689 -0.934459 23.9424 -0.930966 23.9993C-0.929422 24.0245 -0.926699 24.0647 -0.921569 24.1064C-0.919738 24.1213 -0.913428 24.173 -0.898166 24.235C-0.892501 24.258 -0.871821 24.3422 -0.823396 24.4406C-0.800379 24.4873 -0.744354 24.5936 -0.638367 24.7012C-0.531066 24.8103 -0.289987 25 0.0748038 25V23ZM1 12C1 8.68768 1.00837 5.68986 1.02189 3.52095C1.02865 2.43607 1.03669 1.56073 1.04558 0.957756C1.05003 0.655416 1.05464 0.426008 1.05926 0.274246C1.06163 0.19667 1.06374 0.148254 1.06528 0.123221C1.06625 0.1074 1.06606 0.116685 1.06348 0.137671C1.06292 0.142189 1.05789 0.186026 1.04391 0.242841C1.03889 0.263258 1.01885 0.345449 0.97107 0.44254C0.948375 0.488654 0.892672 0.594375 0.787008 0.701727C0.680028 0.810416 0.439272 1 0.0748038 1V-1C-0.289987 -1 -0.531066 -0.810252 -0.638367 -0.701236C-0.744354 -0.593556 -0.800379 -0.487345 -0.823396 -0.440576C-0.871821 -0.342178 -0.892501 -0.258027 -0.898166 -0.235002C-0.913428 -0.172972 -0.919738 -0.121328 -0.921569 -0.106442C-0.926699 -0.0647213 -0.929422 -0.0244587 -0.930966 0.000688261C-0.934459 0.0575911 -0.937302 0.131074 -0.939808 0.213348C-0.944924 0.381288 -0.949711 0.62339 -0.954205 0.928283C-0.963217 1.53978 -0.971297 2.42179 -0.978071 3.50849C-0.991625 5.68273 -1 8.6849 -1 12H1ZM0.0748038 1C-0.289664 1 -0.530421 0.810416 -0.6374 0.701727C-0.743064 0.594375 -0.798768 0.488654 -0.821462 0.44254C-0.869244 0.345449 -0.889281 0.263258 -0.894304 0.242841C-0.908284 0.186026 -0.913314 0.142189 -0.91387 0.137671C-0.916451 0.116685 -0.916641 0.1074 -0.915669 0.123221C-0.914133 0.148254 -0.91202 0.19667 -0.909657 0.274246C-0.905034 0.426008 -0.900427 0.655416 -0.895971 0.957756C-0.887084 1.56073 -0.879045 2.43607 -0.872283 3.52095C-0.858762 5.68986 -0.850392 8.68768 -0.850392 12H1.14961C1.14961 8.6849 1.14123 5.68273 1.12768 3.50849C1.1209 2.42179 1.11282 1.53978 1.10381 0.928283C1.09932 0.62339 1.09453 0.381288 1.08942 0.213348C1.08691 0.131074 1.08407 0.0575911 1.08057 0.000688261C1.07903 -0.0244587 1.07631 -0.0647213 1.07118 -0.106442C1.06935 -0.121328 1.06304 -0.172972 1.04777 -0.235002C1.04211 -0.258027 1.02143 -0.342178 0.973003 -0.440576C0.949987 -0.487345 0.893961 -0.593556 0.787975 -0.701236C0.680674 -0.810252 0.439594 -1 0.0748038 -1V1Z" fill="#393D46" mask="url(#path-1-inside-1_12345_272907)"/>
<mask id="path-3-inside-2_12345_272907" fill="white">
<ellipse cx="0.168066" cy="12" rx="0.0748038" ry="12"/>
</mask>
<ellipse cx="0.168066" cy="12" rx="0.0748038" ry="12" fill="white"/>
<path d="M-3.75713 12C-3.75713 15.3082 -3.76549 18.2994 -3.77896 20.4603C-3.78571 21.5425 -3.79368 22.4079 -3.80238 22.998C-3.80678 23.2965 -3.81112 23.5069 -3.815 23.6344C-3.81715 23.7049 -3.81817 23.7158 -3.81677 23.693C-3.81624 23.6843 -3.815 23.665 -3.81282 23.6384C-3.81096 23.6156 -3.80651 23.5639 -3.79818 23.4962C-3.79404 23.4625 -3.772 23.2755 -3.71416 23.0404C-3.6931 22.9548 -3.61199 22.6231 -3.4199 22.2328C-3.32864 22.0473 -3.10534 21.6237 -2.6822 21.1938C-2.2538 20.7586 -1.29029 20 0.168066 20V28C1.62674 28 2.59058 27.2413 3.0193 26.8057C3.44276 26.3755 3.66638 25.9513 3.75796 25.7652C3.9507 25.3736 4.03245 25.04 4.05415 24.9518C4.11328 24.7115 4.1366 24.5166 4.14201 24.4726C4.15871 24.3368 4.1658 24.2222 4.1682 24.1831C4.17463 24.0784 4.17857 23.9673 4.18129 23.878C4.18714 23.6858 4.1922 23.4246 4.19675 23.1159C4.20595 22.4916 4.21409 21.5996 4.22088 20.5102C4.23449 18.328 4.24287 15.3193 4.24287 12H-3.75713ZM0.168066 20C1.62642 20 2.58993 20.7586 3.01833 21.1938C3.44147 21.6237 3.66477 22.0473 3.75603 22.2328C3.94812 22.6231 4.02923 22.9548 4.05029 23.0404C4.10813 23.2755 4.13017 23.4625 4.13431 23.4962C4.14264 23.5639 4.14709 23.6156 4.14895 23.6384C4.15113 23.665 4.15237 23.6843 4.1529 23.693C4.1543 23.7158 4.15328 23.7049 4.15114 23.6344C4.14725 23.5069 4.14291 23.2965 4.13851 22.998C4.12982 22.4079 4.12184 21.5425 4.11509 20.4603C4.10162 18.2994 4.09326 15.3082 4.09326 12H-3.90674C-3.90674 15.3193 -3.89835 18.328 -3.88475 20.5102C-3.87796 21.5996 -3.86982 22.4916 -3.86062 23.1159C-3.85607 23.4246 -3.85101 23.6858 -3.84516 23.878C-3.84243 23.9673 -3.8385 24.0784 -3.83207 24.1831C-3.82967 24.2222 -3.82257 24.3368 -3.80588 24.4726C-3.80047 24.5166 -3.77715 24.7115 -3.71802 24.9518C-3.69632 25.04 -3.61457 25.3736 -3.42183 25.7652C-3.33025 25.9513 -3.10663 26.3755 -2.68317 26.8057C-2.25445 27.2413 -1.29061 28 0.168066 28V20ZM4.09326 12C4.09326 8.69184 4.10162 5.70055 4.11509 3.53965C4.12184 2.4575 4.12982 1.59214 4.13851 1.00197C4.14291 0.703453 4.14725 0.493087 4.15114 0.365593C4.15328 0.295065 4.1543 0.284249 4.1529 0.30702C4.15237 0.315713 4.15113 0.335009 4.14895 0.361601C4.14709 0.384376 4.14264 0.4361 4.13431 0.503839C4.13017 0.537465 4.10813 0.724522 4.05029 0.959605C4.02923 1.04519 3.94812 1.37689 3.75603 1.76721C3.66477 1.95265 3.44147 2.37627 3.01833 2.80617C2.58993 3.24142 1.62642 4 0.168066 4V-4C-1.29061 -4 -2.25445 -3.24125 -2.68317 -2.80568C-3.10663 -2.37545 -3.33025 -1.95134 -3.42183 -1.76525C-3.61457 -1.37362 -3.69632 -1.03996 -3.71802 -0.951766C-3.77715 -0.711468 -3.80047 -0.516604 -3.80588 -0.472611C-3.82257 -0.336831 -3.82967 -0.222247 -3.83207 -0.183111C-3.8385 -0.0784034 -3.84243 0.032679 -3.84516 0.122001C-3.85101 0.314209 -3.85607 0.575353 -3.86062 0.884074C-3.86982 1.50836 -3.87796 2.40037 -3.88475 3.48978C-3.89835 5.67203 -3.90674 8.68074 -3.90674 12H4.09326ZM0.168066 4C-1.29029 4 -2.2538 3.24142 -2.6822 2.80617C-3.10534 2.37627 -3.32864 1.95265 -3.4199 1.76721C-3.61199 1.37689 -3.6931 1.04519 -3.71416 0.959605C-3.772 0.724522 -3.79404 0.537465 -3.79818 0.503839C-3.80651 0.4361 -3.81096 0.384376 -3.81282 0.361601C-3.815 0.335009 -3.81624 0.315713 -3.81677 0.30702C-3.81817 0.284249 -3.81715 0.295065 -3.815 0.365593C-3.81112 0.493087 -3.80678 0.703453 -3.80238 1.00197C-3.79368 1.59214 -3.78571 2.4575 -3.77896 3.53965C-3.76549 5.70055 -3.75713 8.69184 -3.75713 12H4.24287C4.24287 8.68074 4.23449 5.67203 4.22088 3.48978C4.21409 2.40037 4.20595 1.50836 4.19675 0.884074C4.1922 0.575353 4.18714 0.314209 4.18129 0.122001C4.17857 0.032679 4.17463 -0.0784034 4.1682 -0.183111C4.1658 -0.222247 4.15871 -0.336831 4.14201 -0.472611C4.1366 -0.516604 4.11328 -0.711468 4.05415 -0.951766C4.03245 -1.03996 3.9507 -1.37362 3.75796 -1.76525C3.66638 -1.95134 3.44276 -2.37545 3.0193 -2.80568C2.59058 -3.24125 1.62674 -4 0.168066 -4V4Z" fill="#393D46" mask="url(#path-3-inside-2_12345_272907)"/>
</svg>
