<svg width="32" height="32" viewBox="0 0 32 32" fill="none" xmlns="http://www.w3.org/2000/svg">
<path d="M8.00002 22.3907C8.04152 23.874 8.46148 25.322 9.22002 26.5974C9.33086 26.8186 9.50106 27.0046 9.71157 27.1345C9.92209 27.2645 10.1646 27.3334 10.412 27.3334H16.1454C16.443 27.3336 16.7322 27.2342 16.9668 27.051C17.2014 26.8679 17.368 26.6115 17.44 26.3227L18 24.0827L18.56 26.3227C18.6321 26.6115 18.7986 26.8679 19.0333 27.051C19.2679 27.2342 19.557 27.3336 19.8547 27.3334H21.588C21.8359 27.3334 22.0789 27.2642 22.2897 27.1337C22.5005 27.0033 22.6708 26.8166 22.7814 26.5947C23.5403 25.3206 23.9599 23.8732 24 22.3907C24 18.468 21.3334 17.2414 21.3334 15.7374C21.3334 13.8707 24 13.552 24 10.9294C24 8.09069 21.3334 8.37869 21.3334 6.61469V6.00002C21.3334 5.6464 21.1929 5.30726 20.9428 5.05721C20.6928 4.80716 20.3536 4.66669 20 4.66669H18.6667C18.3131 4.66669 17.9739 4.80716 17.7239 5.05721C17.4738 5.30726 17.3334 5.6464 17.3334 6.00002V6.80002C17.3336 7.0599 17.2696 7.3158 17.147 7.54494C17.0244 7.77408 16.847 7.96935 16.6307 8.11336C16.3939 8.27096 16.1815 8.46232 16 8.68136C15.8186 8.46232 15.6061 8.27096 15.3694 8.11336C15.153 7.96935 14.9757 7.77408 14.8531 7.54494C14.7305 7.3158 14.6665 7.0599 14.6667 6.80002V6.00002C14.6667 5.6464 14.5262 5.30726 14.2762 5.05721C14.0261 4.80716 13.687 4.66669 13.3334 4.66669H12C11.6464 4.66669 11.3073 4.80716 11.0572 5.05721C10.8072 5.30726 10.6667 5.6464 10.6667 6.00002V6.61469C10.6676 6.90729 10.5866 7.19431 10.433 7.44335C10.2794 7.69238 10.0592 7.89351 9.79736 8.02402C9.25577 8.29248 8.80028 8.70738 8.48259 9.22163C8.16489 9.73588 7.99771 10.3289 8.00002 10.9334C8.00002 13.5254 10.6667 13.9014 10.6667 15.764C10.6667 17.188 8.00002 18.4987 8.00002 22.3907ZM9.33336 10.924C9.33336 8.82536 12 9.38269 12 6.60936V6.00002H13.3334V6.80002C13.3326 7.27959 13.4508 7.75185 13.6771 8.17462C13.9035 8.59738 14.2311 8.95747 14.6307 9.22269C14.8466 9.36645 15.0238 9.56129 15.1463 9.78993C15.2689 10.0186 15.3332 10.2739 15.3334 10.5334C15.3334 10.7102 15.4036 10.8797 15.5286 11.0048C15.6536 11.1298 15.8232 11.2 16 11.2C16.1768 11.2 16.3464 11.1298 16.4714 11.0048C16.5964 10.8797 16.6667 10.7102 16.6667 10.5334C16.6664 10.2735 16.7305 10.0176 16.8531 9.78844C16.9757 9.5593 17.153 9.36403 17.3694 9.22002C17.7685 8.95505 18.0959 8.59539 18.3223 8.17313C18.5486 7.75086 18.667 7.27913 18.6667 6.80002V6.00002H20V6.61469C20 9.41469 22.6667 8.81202 22.6667 10.9294C22.6667 12.812 20 13.1134 20 15.76C20 18.1 22.6667 18.7214 22.6667 22.3907C22.6211 23.666 22.2503 24.9084 21.5894 26H19.856L18.648 21.172C18.5981 21.041 18.5095 20.9282 18.394 20.8486C18.2786 20.769 18.1416 20.7264 18.0014 20.7264C17.8611 20.7264 17.7242 20.769 17.6087 20.8486C17.4932 20.9282 17.4046 21.041 17.3547 21.172L16.1454 26H10.412C9.75093 24.9084 9.37964 23.666 9.33336 22.3907C9.33336 18.7587 12 18.112 12 15.7374C12 13.092 9.33336 12.8334 9.33336 10.9334V10.924Z" fill="#9F9F9F"/>
</svg>
