<svg width="160" height="160" viewBox="0 0 160 160" fill="none" xmlns="http://www.w3.org/2000/svg">
<path d="M126.667 29.74C126.591 28.8589 126.171 28.0432 125.499 27.4684C124.827 26.8935 123.956 26.6056 123.074 26.6666C122.636 26.6995 122.209 26.8186 121.817 27.0173C121.425 27.2159 121.076 27.4901 120.79 27.824C120.504 28.158 120.288 28.5451 120.152 28.9632C120.017 29.3812 119.965 29.822 120.001 30.26L123.914 80.1733C115.026 80.841 106.506 83.9986 99.3287 89.2842C92.1517 94.5699 86.6087 101.77 83.3342 110.06C80.0587 101.768 74.5135 94.5667 67.3341 89.2809C60.1547 83.995 51.6314 80.8386 42.7408 80.1733L46.6675 30.26C46.7365 29.3759 46.4514 28.5007 45.875 27.8268C45.2987 27.1529 44.4782 26.7356 43.5942 26.6666C42.7101 26.5977 41.8349 26.8827 41.161 27.4591C40.4871 28.0355 40.0698 28.8559 40.0008 29.74L35.9008 82.0533C29.9288 88.4789 26.6344 96.9415 26.6901 105.714C26.7459 114.486 30.1475 122.906 36.2006 129.254C42.2538 135.604 50.502 139.403 59.2614 139.877C68.0208 140.352 76.631 137.465 83.3342 131.806C90.0374 137.461 98.646 140.344 107.403 139.868C116.16 139.392 124.405 135.591 130.454 129.242C136.505 122.894 139.904 114.476 139.958 105.706C140.012 96.9364 136.718 88.4766 130.747 82.0533L126.667 29.74ZM41.5075 125.16C36.4341 120.094 33.5056 113.27 33.3293 106.103C33.1531 98.9356 35.7426 91.9756 40.5608 86.6666C50.9158 87.0017 60.755 91.2654 68.0802 98.5919C75.4055 105.918 79.6674 115.758 80.0008 126.113C74.691 130.93 67.7306 133.518 60.5634 133.341C53.3961 133.163 46.5723 130.234 41.5075 125.16ZM125.154 125.16C120.086 130.218 113.268 133.136 106.11 133.312C98.9514 133.488 91.9987 130.91 86.6875 126.107C87.0222 115.756 91.2822 105.921 98.6031 98.5962C105.924 91.2716 115.757 87.0066 126.107 86.6666C130.926 91.9757 133.515 98.9365 133.338 106.104C133.16 113.272 130.229 120.096 125.154 125.16Z" fill="#393D46"/>
</svg>
