<svg width="24" height="24" viewBox="0 0 24 24" fill="none" xmlns="http://www.w3.org/2000/svg">
<path d="M19.4398 12.9999C19.2198 12.9999 18.9898 12.9299 18.7698 12.8799C18.3243 12.7817 17.8864 12.6514 17.4598 12.4899C16.9959 12.3211 16.4859 12.3299 16.0281 12.5145C15.5702 12.6991 15.1969 13.0466 14.9798 13.4899L14.7598 13.9399C13.7858 13.3981 12.8908 12.7251 12.0998 11.9399C11.3145 11.1489 10.6416 10.2539 10.0998 9.27987L10.5198 8.99987C10.9631 8.78278 11.3105 8.4094 11.4952 7.95156C11.6798 7.49372 11.6885 6.98378 11.5198 6.51987C11.361 6.09229 11.2307 5.65467 11.1298 5.20987C11.0798 4.98987 11.0398 4.75987 11.0098 4.52987C10.8883 3.82549 10.5194 3.18761 9.96939 2.73111C9.41939 2.2746 8.72446 2.02948 8.00977 2.03987H5.00977C4.5788 2.03582 4.15202 2.12468 3.75848 2.3004C3.36494 2.47612 3.01388 2.73456 2.7292 3.05815C2.44452 3.38174 2.2329 3.76286 2.10875 4.17558C1.98461 4.5883 1.95084 5.02293 2.00977 5.44987C2.5425 9.63925 4.4558 13.5318 7.44742 16.5126C10.439 19.4932 14.3385 21.3924 18.5298 21.9099H18.9098C19.6472 21.911 20.3592 21.6404 20.9098 21.1499C21.2261 20.867 21.4789 20.5201 21.6512 20.1322C21.8236 19.7444 21.9117 19.3244 21.9098 18.8999V15.8999C21.8975 15.2053 21.6446 14.5365 21.1941 14.0076C20.7436 13.4787 20.1236 13.1225 19.4398 12.9999ZM19.9398 18.9999C19.9396 19.1419 19.9092 19.2822 19.8506 19.4115C19.7919 19.5409 19.7064 19.6562 19.5998 19.7499C19.488 19.8464 19.3574 19.9185 19.2162 19.9615C19.075 20.0046 18.9263 20.0176 18.7798 19.9999C15.0347 19.5197 11.556 17.8064 8.89248 15.1302C6.22896 12.454 4.53218 8.96721 4.06977 5.21987C4.05385 5.07339 4.0678 4.9252 4.11077 4.78426C4.15374 4.64332 4.22484 4.51256 4.31977 4.39987C4.41348 4.2932 4.52883 4.20771 4.65815 4.14908C4.78746 4.09046 4.92778 4.06005 5.06977 4.05987H8.06977C8.30231 4.05469 8.52939 4.13075 8.71191 4.27494C8.89443 4.41913 9.02098 4.62244 9.06977 4.84987C9.10977 5.1232 9.15977 5.3932 9.21977 5.65987C9.33529 6.18701 9.48903 6.70505 9.67977 7.20987L8.27977 7.85987C8.16006 7.91479 8.05239 7.99281 7.96293 8.08946C7.87346 8.18611 7.80397 8.29948 7.75844 8.42306C7.71291 8.54664 7.69224 8.678 7.69762 8.80959C7.70299 8.94118 7.73431 9.07041 7.78977 9.18987C9.22897 12.2727 11.707 14.7507 14.7898 16.1899C15.0332 16.2899 15.3063 16.2899 15.5498 16.1899C15.6745 16.1453 15.7891 16.0764 15.8869 15.9871C15.9848 15.8978 16.0639 15.79 16.1198 15.6699L16.7398 14.2699C17.2567 14.4548 17.7844 14.6084 18.3198 14.7299C18.5864 14.7899 18.8564 14.8399 19.1298 14.8799C19.3572 14.9287 19.5605 15.0553 19.7047 15.2378C19.8489 15.4203 19.9249 15.6474 19.9198 15.8799L19.9398 18.9999Z" fill="white"/>
</svg>
