<svg width="24" height="3" viewBox="0 0 24 3" fill="none" xmlns="http://www.w3.org/2000/svg">
<rect y="1.94189" width="24" height="0.16886" fill="#393D46"/>
<path d="M8.00444 0.0414065C7.38867 0.0375073 6.44024 0.0378585 5.88605 0.0421909C5.33186 0.0465234 5.38178 0.0531964 5.99754 0.0570956L8.00444 0.0414065ZM12.001 0.0809123L10.9975 0.0887565L12.1445 0.0960196L13.1439 0.0877476L12.001 0.0809123ZM21.6439 0.0173891C22.1804 0.012948 22.1037 0.00628757 21.4725 0.00251263C20.8413 -0.0012623 19.8946 -0.00072223 19.3581 0.00371884L21.6439 0.0173891ZM5.99754 0.0570956L10.9975 0.0887565L13.0044 0.0730677L8.00444 0.0414065L5.99754 0.0570956ZM13.1439 0.0877476L21.6439 0.0173891L19.3581 0.00371884L10.8581 0.0740772L13.1439 0.0877476Z" fill="white"/>
</svg>
