<svg width="56" height="56" viewBox="0 0 56 56" fill="none" xmlns="http://www.w3.org/2000/svg">
<path d="M41.9999 14.9776V11.6666C41.9999 11.0478 41.754 10.4543 41.3165 10.0167C40.8789 9.57915 40.2854 9.33331 39.6665 9.33331H18.6666C18.0477 9.33331 17.4542 9.57915 17.0166 10.0167C16.5791 10.4543 16.3332 11.0478 16.3332 11.6666V14.9776C14.4829 21.175 12.7096 23.9656 12.8052 29.1666C12.9056 34.594 14.8539 37.163 18.4566 47.488C18.6254 47.9315 18.9248 48.3133 19.3151 48.5833C19.7054 48.8532 20.1683 48.9985 20.6429 49H30.5105C31.0629 48.9997 31.5972 48.8035 32.0184 48.4464C32.4397 48.0892 32.7206 47.5941 32.8112 47.0493L33.8332 40.929L34.9345 47.5393C35.0026 47.9479 35.2135 48.3191 35.5297 48.5866C35.846 48.8541 36.247 49.0006 36.6612 49H38.0962C38.4514 48.999 38.7978 48.89 39.0896 48.6875C39.3813 48.4849 39.6045 48.1984 39.7295 47.866C43.4045 37.366 45.4252 34.636 45.5255 29.169C45.6235 23.954 43.8339 21.119 41.9999 14.9776ZM39.6665 11.6666V14H18.6666V11.6666H39.6665ZM37.6902 46.6666H37.1535L34.9835 33.642C34.9376 33.3701 34.7968 33.1234 34.5862 32.9454C34.3757 32.7675 34.1089 32.6698 33.8332 32.6698C33.5575 32.6698 33.2907 32.7675 33.0802 32.9454C32.8696 33.1234 32.7288 33.3701 32.6829 33.642L30.5105 46.6666H20.6406C16.9492 36.1666 15.2389 33.9803 15.1386 29.1666C15.0429 24.5466 16.6062 22.1316 18.3422 16.3333H39.9909C41.7175 22.0966 43.2809 24.535 43.1945 29.1246C43.1059 33.9756 41.3699 36.1946 37.6902 46.6666Z" fill="#393D46"/>
</svg>
